<svg width="172" height="159" viewBox="0 0 172 159" fill="none" xmlns="http://www.w3.org/2000/svg">
<path d="M130.855 134.718C129.991 129.659 124.393 127.07 119.474 125.608C99.9967 119.848 79.4767 118.525 59.4214 121.736L58.3554 122.443C55.2562 123.501 54.2488 127.707 55.5237 130.725C56.7985 133.744 59.6155 135.781 62.3593 137.565C71.3161 143.393 81.075 148.24 91.5557 150.32C102.036 152.401 113.327 151.54 122.752 146.507C127.251 144.111 131.698 139.748 130.855 134.718Z" fill="#4E878C"/>
<path d="M44.9407 23.9262L45.5012 22.6917C50.3697 12.2843 60.5206 5.19223 71.9794 4.60611C73.4548 4.52796 74.9339 4.5598 76.4046 4.70135C87.0281 5.70875 96.919 12.4162 101.769 21.8931C104.63 27.4686 106.008 34.1065 110.704 38.2533C116.814 43.653 126.049 42.7921 134.12 41.6199C142.19 40.4476 151.429 39.6088 157.517 45.0341C161.33 48.4336 163.012 53.6904 163.323 58.7897C164.129 72.2852 156.03 85.3595 144.67 92.6934C133.31 100.027 119.199 102.178 105.726 101.057C86.8633 99.4851 68.1586 91.3966 55.8316 77.0182C43.5047 62.6398 38.4164 41.7078 44.9407 23.9262Z" fill="#4E878C"/>
<path d="M25.2994 70.5332C24.4584 70.1674 23.7851 69.4994 23.4128 68.6613C23.2626 68.3133 23.2589 67.7748 23.6289 67.6978C23.856 67.6502 24.0612 67.8261 24.226 67.9872L25.8782 69.6247C25.7152 69.1937 25.6399 68.7345 25.6569 68.274C25.6739 67.8135 25.7828 67.361 25.9771 66.9432C26.1163 66.6465 26.4093 66.3314 26.7097 66.4413C26.9552 66.5329 27.0321 66.8333 27.0761 67.0897L27.4717 69.4526C27.6904 68.5318 28.1362 67.6804 28.7685 66.9762C28.9956 66.7197 29.3656 66.4706 29.655 66.6538C29.9444 66.837 29.8968 67.185 29.8418 67.4817C29.7068 68.2227 29.5007 68.9489 29.2264 69.6504C29.9373 69.024 30.8438 68.664 31.7907 68.632C31.9274 68.6128 32.0667 68.625 32.1981 68.6675C32.3294 68.71 32.4494 68.7818 32.549 68.8774C32.8054 69.1998 32.582 69.676 32.3072 69.9764C31.5013 70.8922 29.6037 71.1267 28.3839 71.0461" fill="#F8AC46"/>
<path d="M32.6002 72.4935C29.644 70.1673 24.4494 69.8376 21.0316 71.3945C17.1705 73.1602 14.6428 77.2557 14.2655 81.2121C13.8992 84.956 15.7125 88.7511 17.2438 92.2019L32.168 92.2715C33.9593 89.3153 35.8313 86.0037 35.9412 82.5492C36.0511 79.0947 35.3147 74.6292 32.6002 72.4935Z" fill="#4E878C"/>
<path d="M25.9031 70.438C25.9031 70.438 25.8811 70.438 25.8371 70.438L25.643 70.4856L25.3279 70.5552C25.1823 70.5798 25.0389 70.6165 24.8993 70.6651C23.9959 70.9278 23.142 71.3374 22.3717 71.8776C21.2378 72.6903 20.262 73.7034 19.4923 74.8669C19.0376 75.5596 18.6336 76.2844 18.2835 77.0355C17.9149 77.8387 17.6051 78.6675 17.3566 79.5156C16.8924 81.1601 16.806 82.8883 17.1039 84.5709C17.347 85.9474 17.7237 87.297 18.2285 88.6005C18.6425 89.7178 19.0088 90.6117 19.2542 91.2344C19.3715 91.5385 19.4667 91.7766 19.5326 91.9671L19.6022 92.1539C19.6022 92.1978 19.6242 92.2198 19.6022 92.2198C19.5803 92.2198 19.6022 92.2198 19.5693 92.1612L19.4887 91.9781L19.1846 91.271C18.9245 90.6556 18.5436 89.7654 18.1149 88.6481C17.5969 87.3465 17.2091 85.9967 16.9573 84.6185C16.6466 82.9127 16.7305 81.1583 17.2028 79.4899C17.4543 78.6355 17.7678 77.8005 18.1406 76.9916C18.4994 76.235 18.9146 75.5064 19.3824 74.8119C20.1634 73.6386 21.1574 72.6222 22.3131 71.8154C23.0919 71.2738 23.9599 70.8733 24.8774 70.6321C25.0208 70.5867 25.1679 70.5536 25.317 70.5332L25.6393 70.4746L25.8371 70.4453C25.8811 70.438 25.9031 70.4343 25.9031 70.438Z" fill="#222222"/>
<path d="M30.2521 92.1467C30.2684 92.0702 30.2917 91.9954 30.3217 91.9233C30.3767 91.7657 30.4499 91.5569 30.5452 91.2932C30.7393 90.7473 31.0287 89.9561 31.3621 88.9743C31.6954 87.9925 32.0728 86.8166 32.3988 85.4869C32.7619 84.0465 32.984 82.5743 33.0618 81.0909C33.1237 79.6111 32.9695 78.1302 32.6039 76.695C32.3079 75.5208 31.8361 74.3982 31.2046 73.3651C30.777 72.6687 30.2638 72.0288 29.677 71.4602C29.4791 71.2477 29.3106 71.1158 29.1861 71.0096C29.1253 70.9622 29.0689 70.9095 29.0176 70.8521C29.0833 70.8922 29.1458 70.9376 29.2044 70.9876C29.3826 71.1229 29.5538 71.2672 29.7173 71.4199C30.3221 71.9779 30.8506 72.6135 31.2888 73.3101C31.9385 74.347 32.4253 75.4775 32.7321 76.662C33.1059 78.1121 33.2639 79.6094 33.201 81.1056C33.124 82.5972 32.8969 84.0773 32.5233 85.5235C32.19 86.8569 31.7907 88.0328 31.4537 89.0109C31.1166 89.989 30.8053 90.7766 30.5965 91.3151C30.4902 91.5752 30.4096 91.784 30.3473 91.9379C30.3195 92.0092 30.2877 92.0789 30.2521 92.1467Z" fill="#222222"/>
<path d="M27.3682 70.5332C27.3548 70.6068 27.3352 70.6791 27.3096 70.7493L27.1155 71.3684C27.0275 71.6359 26.925 71.9655 26.8151 72.3465C26.7052 72.7275 26.5623 73.1634 26.4304 73.6507C26.152 74.6141 25.859 75.7754 25.5622 77.0685C25.2655 78.3616 25.0017 79.8013 24.7746 81.3179C24.5475 82.8345 24.4083 84.2888 24.313 85.6113C24.2837 86.2743 24.2361 86.9044 24.2325 87.4942C24.2325 87.7909 24.2325 88.0767 24.2325 88.3514C24.2325 88.6262 24.2325 88.8862 24.2325 89.139C24.2325 89.6409 24.2325 90.0951 24.2654 90.4944C24.2984 90.8937 24.2947 91.2271 24.3167 91.5165C24.3387 91.8059 24.346 92.0037 24.3533 92.1612C24.3615 92.2367 24.3615 92.3128 24.3533 92.3883C24.3383 92.3146 24.3285 92.24 24.324 92.1649C24.324 92.0037 24.2837 91.7986 24.2581 91.5201C24.2325 91.2417 24.1995 90.8974 24.1848 90.4981C24.1702 90.0988 24.1335 89.6445 24.1299 89.139C24.1299 88.8862 24.1299 88.6225 24.1299 88.3514C24.1299 88.0803 24.1299 87.7873 24.1299 87.4942C24.1299 86.9007 24.1702 86.2707 24.1995 85.6039C24.2837 84.2742 24.4266 82.8162 24.6501 81.2959C24.8735 79.7757 25.1593 78.3397 25.4523 77.0392C25.7454 75.7387 26.0604 74.5848 26.3498 73.6213C26.489 73.1378 26.6319 72.7055 26.7528 72.3245C26.8737 71.9436 26.9836 71.6175 27.0788 71.3501L27.2986 70.742C27.3162 70.6707 27.3394 70.6008 27.3682 70.5332Z" fill="#222222"/>
<path d="M14.7416 82.4097C14.423 82.6292 14.08 82.8111 13.7196 82.9518C13.3774 83.1274 13.016 83.2627 12.6426 83.3548C12.9586 83.1332 13.3007 82.9511 13.661 82.8126C14.0031 82.6341 14.3661 82.4988 14.7416 82.4097Z" fill="#222222"/>
<path d="M15.2136 78.12C14.8207 77.973 14.4448 77.7838 14.0926 77.5559C13.719 77.3657 13.3677 77.1347 13.0449 76.8672C13.4305 77.0151 13.799 77.2043 14.1439 77.4313C14.5247 77.621 14.8834 77.8519 15.2136 78.12Z" fill="#222222"/>
<path d="M17.9351 74.5814C17.732 74.3115 17.5657 74.0159 17.4405 73.7022C17.2785 73.408 17.1553 73.094 17.0742 72.7681C17.4471 73.3344 17.737 73.9512 17.9351 74.5997V74.5814Z" fill="#222222"/>
<path d="M21.6758 71.2365C21.4641 71.0624 21.2811 70.8559 21.1337 70.6247C20.9539 70.4176 20.8092 70.1825 20.7051 69.9287C20.9194 70.0973 21.1029 70.3018 21.2472 70.5332C21.4309 70.7401 21.5761 70.9784 21.6758 71.2365Z" fill="#222222"/>
<path d="M16.4301 87.6445C16.1087 87.8998 15.7583 88.1162 15.3861 88.2893C15.0402 88.5038 14.6716 88.6795 14.2871 88.8131C14.6085 88.5578 14.959 88.3414 15.3311 88.1684C15.6771 87.9538 16.0456 87.7781 16.4301 87.6445Z" fill="#222222"/>
<path d="M20.8878 85.0362C20.5495 84.9301 20.2277 84.7772 19.9317 84.582C19.6135 84.4297 19.3167 84.2364 19.0488 84.0068C19.3847 84.1161 19.7049 84.2688 20.0013 84.4611C20.3201 84.6141 20.6181 84.8074 20.8878 85.0362Z" fill="#222222"/>
<path d="M22.1303 79.0796C21.8579 79.2983 21.5474 79.4647 21.2144 79.5705C20.8972 79.7177 20.5559 79.8058 20.207 79.8306C20.515 79.6751 20.8347 79.544 21.1631 79.4386C21.4745 79.2912 21.7981 79.1711 22.1303 79.0796Z" fill="#222222"/>
<path d="M23.5448 74.5889C23.3662 74.3772 23.2406 74.1261 23.1784 73.8562C23.0642 73.6011 23.0139 73.3219 23.0319 73.043C23.1488 73.2888 23.242 73.5451 23.3103 73.8086C23.4144 74.0602 23.493 74.3216 23.5448 74.5889Z" fill="#222222"/>
<path d="M20.3828 90.8866C20.4706 90.5357 20.6049 90.1982 20.7821 89.8829C20.9176 89.5481 21.0949 89.2318 21.3096 88.9414C21.2221 89.2935 21.0878 89.6323 20.9103 89.9488C20.7736 90.2818 20.5964 90.5968 20.3828 90.8866Z" fill="#222222"/>
<path d="M27.904 89.2853C27.2536 88.8432 26.7336 88.2347 26.3984 87.5233C26.4314 87.5013 26.7245 87.9299 27.1311 88.4134C27.4035 88.6906 27.6615 88.9817 27.904 89.2853Z" fill="#222222"/>
<path d="M30.5124 82.7246C30.1927 82.9896 29.8436 83.217 29.472 83.4023C29.1273 83.6278 28.7587 83.8145 28.373 83.9591C28.6938 83.6956 29.0427 83.4683 29.4134 83.2814C29.7582 83.056 30.1267 82.8692 30.5124 82.7246Z" fill="#222222"/>
<path d="M28.7568 78.6917C28.9897 78.3743 29.2604 78.0865 29.5628 77.8345C29.8336 77.5485 30.1359 77.2941 30.4639 77.0762C30.2323 77.3946 29.9615 77.6826 29.658 77.9334C29.3872 78.2193 29.0849 78.4737 28.7568 78.6917Z" fill="#222222"/>
<path d="M28.8335 74.4093C28.5356 74.2536 28.2596 74.0589 28.0129 73.8305C27.7388 73.6364 27.4923 73.406 27.2803 73.1455C27.5816 73.2959 27.8593 73.4897 28.1045 73.7206C28.3777 73.916 28.623 74.1477 28.8335 74.4093Z" fill="#222222"/>
<path d="M33.8084 71.5771C33.5645 71.8175 33.2898 72.0245 32.9915 72.1926C32.7178 72.3989 32.4171 72.5665 32.0977 72.6908C32.3404 72.4491 32.6153 72.242 32.9146 72.0754C33.1882 71.869 33.489 71.7014 33.8084 71.5771Z" fill="#222222"/>
<path d="M35.7252 75.5005C35.4499 75.5915 35.1615 75.6361 34.8716 75.6324C34.5866 75.68 34.2957 75.68 34.0107 75.6324C34.2857 75.5454 34.5723 75.5009 34.8606 75.5005C35.1468 75.453 35.4389 75.453 35.7252 75.5005Z" fill="#222222"/>
<path d="M36.9672 80.1381C36.6011 80.177 36.2314 80.166 35.8683 80.1051C35.5048 80.0916 35.1444 80.0338 34.7949 79.9329C35.161 79.8939 35.5308 79.905 35.8939 79.9659C36.2574 79.9795 36.6178 80.0373 36.9672 80.1381Z" fill="#222222"/>
<path d="M36.3546 86.1241C35.9914 85.8545 35.6564 85.5489 35.3545 85.212C35.0216 84.9079 34.7208 84.5703 34.457 84.2046C34.8202 84.4716 35.1541 84.7761 35.4534 85.1131C35.7897 85.4163 36.0919 85.7554 36.3546 86.1241Z" fill="#222222"/>
<path d="M34.7249 90.7329C34.339 90.4615 33.9979 90.1315 33.7139 89.7548C33.397 89.4076 33.134 89.015 32.9336 88.5898C33.2483 88.9336 33.5454 89.2931 33.8238 89.6668C34.3147 90.2566 34.7689 90.7036 34.7249 90.7329Z" fill="#222222"/>
<g opacity="0.3">
<path d="M29.017 70.8444C29.039 70.8041 29.3357 70.9506 29.8266 71.2803C30.5109 71.7771 31.1182 72.3721 31.629 73.046C32.3845 74.0578 32.9436 75.2022 33.2774 76.4199C33.6805 77.8981 33.8668 79.427 33.8306 80.9587C33.8065 82.4854 33.6024 84.004 33.2225 85.4829C32.9169 86.6829 32.5189 87.8574 32.0319 88.996C31.2004 90.9338 30.497 92.0328 30.4237 91.9925C30.3505 91.9522 30.867 90.769 31.5703 88.8128C32.5192 86.2961 33.0452 83.6398 33.1272 80.9514C33.1613 79.4825 33.0012 78.0154 32.651 76.5884C32.3646 75.4303 31.8814 74.3299 31.2223 73.3354C30.7697 72.6683 30.2438 72.0539 29.6544 71.5038C29.2295 71.1045 28.9877 70.8994 29.017 70.8444Z" fill="#222222"/>
</g>
<g opacity="0.3">
<path d="M27.2617 70.3025C27.357 70.3244 27.1628 71.5553 26.7965 73.5298C26.4302 75.5043 25.8917 78.2188 25.4264 81.2227C25.1993 82.732 25.0198 84.1753 24.8879 85.4868C24.8293 86.1461 24.767 86.7689 24.7341 87.355C24.7011 87.9412 24.6608 88.487 24.6388 88.9852C24.5509 90.9817 24.5692 92.2235 24.4593 92.2309C24.3494 92.2382 24.1809 91 24.1406 88.9779C24.1406 88.476 24.1406 87.9192 24.1406 87.3257C24.1406 86.7323 24.1919 86.0985 24.2322 85.4318C24.3311 84.102 24.4923 82.6404 24.7194 81.1201C25.1883 78.0759 25.8184 75.3614 26.2983 73.4272C26.7782 71.493 27.1665 70.2841 27.2617 70.3025Z" fill="#222222"/>
</g>
<g opacity="0.3">
<path d="M25.5115 70.1669C25.5115 70.2181 25.1818 70.35 24.581 70.6248C23.7371 71.0009 22.9332 71.4611 22.1816 71.9985C19.6913 73.7635 17.9519 76.3968 17.3058 79.38C17.1242 80.2229 17.0297 81.0821 17.0237 81.9443C17.0242 82.7487 17.0842 83.5519 17.2032 84.3474C17.4217 85.7068 17.7513 87.0459 18.1886 88.3514C18.5549 89.4723 18.892 90.3735 19.1118 90.9999C19.3316 91.6263 19.4415 91.9817 19.3938 92.0037C19.3462 92.0256 19.1594 91.7033 18.859 91.1062C18.5586 90.5091 18.1483 89.6409 17.7197 88.5162C17.2035 87.2016 16.817 85.8398 16.5658 84.45C16.4212 83.6211 16.344 82.7819 16.335 81.9406C16.333 81.032 16.4275 80.1258 16.6171 79.2371C16.9913 77.5136 17.7295 75.89 18.7821 74.4749C19.6393 73.3301 20.6952 72.3486 21.8995 71.5772C22.6972 71.0601 23.5593 70.65 24.4638 70.3573C25.1269 70.1669 25.5005 70.1046 25.5115 70.1669Z" fill="#222222"/>
</g>
<path d="M15.3643 94.9966L17.7197 110.478H31.4058L34.5818 95.22L15.3643 94.9966Z" fill="#F8AC46"/>
<path d="M32.6661 104.92C32.6661 104.964 29.1604 105.001 24.8377 105.001C20.515 105.001 17.002 104.964 17.002 104.92C17.002 104.876 20.5114 104.84 24.8377 104.84C29.164 104.84 32.6661 104.876 32.6661 104.92Z" fill="#FBFFFE"/>
<path d="M32.7206 104.159C32.7206 104.203 29.1892 104.239 24.8372 104.239C20.4853 104.239 16.9502 104.203 16.9502 104.159C16.9502 104.115 20.4816 104.078 24.8372 104.078C29.1929 104.078 32.7206 104.115 32.7206 104.159Z" fill="#FBFFFE"/>
<path d="M32.6952 103.298C32.6952 103.342 29.1638 103.378 24.8082 103.378C20.4525 103.378 16.9248 103.342 16.9248 103.298C16.9248 103.254 20.4525 103.217 24.8082 103.217C29.1638 103.217 32.6952 103.254 32.6952 103.298Z" fill="#FBFFFE"/>
<path d="M19.2907 109.595C19.099 108.957 18.9582 108.306 18.8695 107.646C18.7302 106.996 18.6432 106.335 18.6094 105.671C18.7961 106.309 18.9321 106.961 19.016 107.62C19.1602 108.27 19.2521 108.93 19.2907 109.595Z" fill="#FBFFFE"/>
<path d="M20.2218 109.43C20.1251 108.801 20.0688 108.166 20.0533 107.529C19.9826 106.897 19.952 106.26 19.9617 105.624C20.1125 106.245 20.1972 106.879 20.2145 107.518C20.283 108.153 20.2854 108.794 20.2218 109.43Z" fill="#FBFFFE"/>
<path d="M21.918 109.43C21.731 108.794 21.6082 108.142 21.5517 107.481C21.4479 106.826 21.4135 106.162 21.4491 105.5C21.5733 106.149 21.6613 106.804 21.7129 107.463C21.8207 108.114 21.8892 108.771 21.918 109.43Z" fill="#FBFFFE"/>
<path d="M23.1084 109.511C22.9021 108.197 22.859 106.863 22.9802 105.54C23.0551 106.201 23.0893 106.867 23.0828 107.532C23.1311 108.191 23.1396 108.851 23.1084 109.511Z" fill="#FBFFFE"/>
<path d="M25.218 109.43C25.1163 108.809 25.0685 108.18 25.0752 107.551C25.0218 106.923 25.0218 106.292 25.0752 105.664C25.2276 106.913 25.2705 108.173 25.2034 109.43H25.218Z" fill="#FBFFFE"/>
<path d="M26.7612 109.514C26.6893 108.869 26.6722 108.218 26.7099 107.569C26.6878 106.919 26.7197 106.269 26.8051 105.624C26.8798 106.27 26.9019 106.92 26.8711 107.569C26.8859 108.22 26.8492 108.87 26.7612 109.514Z" fill="#FBFFFE"/>
<path d="M28.2041 109.305C28.2296 107.947 28.3606 106.592 28.5961 105.254C28.5706 106.613 28.4395 107.967 28.2041 109.305Z" fill="#FBFFFE"/>
<path d="M30.0645 109.104C30.0675 108.52 30.145 107.939 30.2952 107.375C30.3945 106.799 30.5656 106.238 30.8044 105.705C30.7145 106.279 30.5922 106.848 30.4381 107.408C30.3447 107.98 30.2199 108.546 30.0645 109.104Z" fill="#FBFFFE"/>
<path d="M13.793 91.9341V94.8281C13.793 95.1306 13.9129 95.4207 14.1264 95.635C14.34 95.8492 14.6298 95.97 14.9322 95.971H34.7689C35.072 95.971 35.3628 95.8506 35.5771 95.6363C35.7914 95.4219 35.9119 95.1312 35.9119 94.8281V91.9341H13.793Z" fill="#F8AC46"/>
<g opacity="0.4">
<path d="M15.5107 95.9712L15.6756 96.8907L33.9627 98.1948L34.4243 95.9712H15.5107Z" fill="#222222"/>
</g>
<path d="M171.196 110.547C171.196 110.602 132.867 110.643 85.6036 110.643C38.3399 110.643 0 110.602 0 110.547C0 110.492 38.3179 110.452 85.6036 110.452C132.889 110.452 171.196 110.496 171.196 110.547Z" fill="#222222"/>
<path d="M146.094 0.00488281C142.982 0.0335267 139.939 0.923596 137.301 2.5764C134.664 4.2292 132.536 6.58015 131.153 9.36856C129.77 12.157 129.187 15.2739 129.467 18.3737C129.747 21.4735 130.881 24.4351 132.742 26.93L130.786 33.2272L136.907 30.8607C139.63 32.6691 142.826 33.6325 146.094 33.6301C150.51 33.5649 154.724 31.7649 157.823 28.6191C160.923 25.4732 162.661 21.234 162.661 16.8175C162.661 12.401 160.923 8.16185 157.823 5.01596C154.724 1.87007 150.51 0.0700695 146.094 0.00488281Z" fill="#FBFFFE"/>
<path d="M146.134 0.00488981C146.232 -0.00162994 146.33 -0.00162994 146.427 0.00488981L147.285 0.0305327C147.471 0.0305327 147.684 0.0305326 147.915 0.0561755L148.669 0.162411L149.552 0.290625L150.538 0.536066C152.228 0.964628 153.837 1.66754 155.3 2.61681C157.808 4.20063 159.851 6.42181 161.22 9.05348C162.589 11.6851 163.235 14.633 163.092 17.596C163.066 17.9879 163.073 18.3836 163.015 18.7755C162.956 19.1675 162.897 19.5668 162.835 19.9661C162.543 21.6026 162.012 23.1874 161.26 24.6698C160.445 26.2177 159.411 27.6402 158.19 28.8935C156.888 30.1748 155.395 31.2462 153.765 32.0696C152.08 32.9361 150.254 33.4967 148.373 33.7254C147.897 33.8006 147.418 33.841 146.937 33.8463C146.449 33.884 145.96 33.8938 145.471 33.8756C142.366 33.7509 139.353 32.7793 136.76 31.0658H136.936L131.031 33.436L130.664 33.5752L130.763 33.2089C131.359 31.0451 131.938 28.9411 132.5 26.897L132.529 27.0546C130.936 24.9381 129.86 22.4778 129.389 19.8709C129.164 18.6537 129.087 17.4139 129.159 16.1783C129.17 15.5826 129.226 14.9887 129.327 14.4016C129.371 14.1122 129.419 13.8228 129.463 13.537C129.507 13.2513 129.602 12.9802 129.668 12.7018C130.657 8.8193 132.994 5.41486 136.262 3.0967C137.466 2.22927 138.785 1.53389 140.181 1.03061L141.064 0.711903L141.903 0.499432L142.669 0.308941C142.914 0.261319 143.152 0.235677 143.376 0.202707C143.823 0.147758 144.215 0.0708293 144.559 0.0525129L145.427 0.0232059H145.955C146.015 0.0190949 146.075 0.0190949 146.134 0.0232059C146.076 0.0405694 146.016 0.0492107 145.955 0.0488488L145.427 0.0928078L144.566 0.147758C144.226 0.177064 143.834 0.26132 143.394 0.327259C140.191 0.880558 137.217 2.35203 134.833 4.56301C132.45 6.77399 130.76 9.62936 129.968 12.7824C129.902 13.0572 129.818 13.3246 129.767 13.6067C129.715 13.8887 129.682 14.1708 129.642 14.4529C129.545 15.0292 129.493 15.6122 129.485 16.1966C129.417 17.4094 129.497 18.626 129.723 19.8196C130.192 22.3828 131.257 24.7998 132.833 26.8751L132.884 26.9483L132.862 27.0326C132.305 29.0718 131.731 31.177 131.14 33.3481L130.888 33.1283L136.793 30.7508L136.885 30.7142L136.969 30.7691C139.503 32.4429 142.447 33.3905 145.482 33.5093C145.956 33.5282 146.431 33.5197 146.904 33.4836C147.375 33.4778 147.845 33.4386 148.31 33.3664C150.149 33.1446 151.934 32.5989 153.582 31.7545C155.177 30.9493 156.639 29.9027 157.915 28.6517C159.115 27.4288 160.13 26.0381 160.93 24.5232C161.683 23.0769 162.218 21.5279 162.52 19.9258C162.579 19.5338 162.641 19.1455 162.7 18.7572C162.758 18.3689 162.751 17.9843 162.78 17.5996C162.816 16.8438 162.804 16.0864 162.744 15.3321C162.519 12.8094 161.723 10.371 160.416 8.20162C159.109 6.03223 157.326 4.18878 155.201 2.81096C153.759 1.8563 152.172 1.14127 150.501 0.693587L149.537 0.415177L148.666 0.272309L147.933 0.147758C147.706 0.122115 147.493 0.118452 147.307 0.103799L146.457 0.0415221C146.348 0.039777 146.24 0.027509 146.134 0.00488981Z" fill="#222222"/>
<path d="M139.775 14.585C140.141 13.0171 141.607 11.6727 143.211 11.8302C143.682 11.8959 144.134 12.0564 144.541 12.302C144.948 12.5476 145.3 12.8731 145.578 13.2589C145.784 13.5129 145.97 13.7823 146.135 14.0648C146.299 13.7818 146.484 13.5113 146.688 13.2552C146.966 12.8703 147.319 12.5455 147.725 12.3C148.132 12.0545 148.584 11.8935 149.054 11.8265C150.651 11.669 152.139 13.0135 152.494 14.5777C152.849 16.1419 152.26 17.8014 151.296 19.0798C150.022 20.8654 148.142 22.127 146.006 22.6296C144.215 22.2156 141.944 20.3657 140.98 19.0872C140.017 17.8087 139.423 16.1492 139.775 14.585Z" fill="#F8AC46"/>
<path d="M140.072 17.4862H140.124H140.277H140.875H143.072L143.036 17.4569L143.706 19.9039L143.747 20.0505L143.798 19.9076L145.08 16.2187C145.223 15.8121 145.362 15.4091 145.498 15.0171H145.402L146.835 17.4569V17.4825H146.86L150.714 17.4605H151.813H152.102C152.135 17.4637 152.168 17.4637 152.201 17.4605C152.168 17.4573 152.135 17.4573 152.102 17.4605H151.813H150.714L146.86 17.4422L146.901 17.4642L145.479 15.0171L145.421 14.9219L145.384 15.0281C145.248 15.4201 145.109 15.823 144.966 16.2297C144.512 17.5484 144.08 18.794 143.692 19.9186H143.783C143.527 19.0101 143.292 18.1822 143.094 17.4752V17.4495H143.065L140.867 17.4679H140.27H140.116L140.072 17.4862Z" fill="#FBFFFE"/>
<path d="M148.783 124.457C148.867 123.919 148.843 123.371 148.714 122.843C148.584 122.314 148.351 121.817 148.028 121.379C147.705 120.942 147.299 120.572 146.833 120.293C146.366 120.013 145.849 119.828 145.311 119.75C145.211 119.723 145.105 119.735 145.014 119.783C144.964 119.835 144.927 119.898 144.908 119.968C144.889 120.038 144.887 120.111 144.904 120.182C145.003 121.23 145.432 122.22 146.128 123.009C146.824 123.799 147.752 124.348 148.78 124.578" fill="#4E878C"/>
<path d="M143.006 132.077C144.047 134.22 145.541 135.663 147.402 135.74C147.769 135.74 148.051 135.509 148.406 135.487C148.611 135.536 148.81 135.611 148.996 135.711C149.094 135.753 149.2 135.777 149.307 135.78C151.219 135.678 152.85 134.333 153.949 132.084C155.476 128.93 155.004 125.545 152.894 124.516C152.616 124.379 152.326 124.266 152.029 124.179C151.688 124.085 151.335 124.043 150.981 124.054C150.158 124.109 149.348 124.293 148.582 124.6L148.479 124.637C146.765 123.878 145.395 123.875 144.083 124.516C141.948 125.527 141.479 128.912 143.006 132.077Z" fill="#F8AC46"/>
<path d="M143.046 128.871C142.942 128.675 142.882 128.459 142.87 128.238C142.806 127.705 142.87 127.165 143.057 126.662C143.243 126.158 143.546 125.705 143.94 125.34C144.096 125.183 144.281 125.058 144.486 124.974C144.486 124.996 144.288 125.131 144.013 125.417C143.652 125.787 143.374 126.229 143.196 126.714C143.017 127.197 142.941 127.712 142.973 128.227C142.998 128.626 143.068 128.864 143.046 128.871Z" fill="#FBFFFE"/>
<path d="M143.432 130.37C143.395 130.37 143.325 130.23 143.281 130.036C143.237 129.842 143.234 129.67 143.281 129.67C143.329 129.67 143.391 129.809 143.435 130C143.479 130.19 143.472 130.362 143.432 130.37Z" fill="#FBFFFE"/>
<path d="M153.146 119.303C153.146 119.328 152.751 119.479 152.157 119.834C151.809 120.042 151.478 120.279 151.168 120.541C150.79 120.862 150.441 121.215 150.124 121.596C149.812 121.981 149.535 122.393 149.296 122.827C149.101 123.179 148.936 123.546 148.802 123.926C148.567 124.578 148.501 125.025 148.472 125.003C148.47 124.9 148.481 124.798 148.505 124.699C148.505 124.6 148.541 124.483 148.574 124.332C148.607 124.182 148.644 124.043 148.703 123.878C148.826 123.485 148.985 123.104 149.175 122.739C149.645 121.841 150.293 121.048 151.08 120.409C151.401 120.15 151.744 119.919 152.106 119.72C152.256 119.629 152.403 119.566 152.527 119.504C152.634 119.453 152.745 119.408 152.857 119.369C152.95 119.333 153.047 119.311 153.146 119.303Z" fill="#222222"/>
<path d="M92.8454 135.63C95.5965 135.843 98.4905 135.689 100.645 136.561C101.744 137.008 102.63 137.433 103.004 138.898C103.326 140.165 102.315 142.279 101.374 143.202C98.6297 145.906 97.5637 147.17 96.8054 150.181C96.0471 153.192 94.9738 156.408 92.197 158.057C91.5802 158.461 90.857 158.671 90.1199 158.661C89.7452 158.655 89.3792 158.547 89.061 158.349C88.7429 158.151 88.4847 157.87 88.3139 157.537C88.0172 156.804 88.4238 156.035 88.7938 155.364C89.9148 153.357 90.8526 151.221 91.1347 148.935C91.4167 146.649 91.1347 145.814 89.7096 143.807C88.0905 141.872 85.3577 140.327 82.3135 138.891L88.5411 135.319L92.8454 135.63Z" fill="#FFBE9D"/>
<path d="M89.9774 110.134C89.9774 110.134 86.9002 110.724 85.6657 110.42C75.947 108.031 55.2605 97.232 47.4907 101.947C40.5817 106.137 42.3621 112.936 46.758 118.659C51.0697 124.296 78.5406 138.55 78.5406 138.55L87.7538 131.004L84.1894 129.403L85.4862 129.205C87.8612 129.527 90.2728 129.459 92.626 129.004L104.257 126.74V114.651L89.9774 110.134Z" fill="#222222"/>
<path d="M128.544 113.75C128.544 113.75 132.882 118.336 133.585 126.443C133.823 129.19 132.38 134.26 130.028 136.264C125.699 139.899 120.112 141.681 114.477 141.224L88.468 139.942L87.7354 130.15C87.7354 130.15 98.3259 126.19 101.289 125.637L104.238 125.271V114.647L117.203 115.35C121.331 115.567 128.544 113.75 128.544 113.75Z" fill="#222222"/>
<path d="M117.708 120.006C117.519 120.064 117.325 120.107 117.129 120.134C116.763 120.2 116.213 120.31 115.55 120.457C112.08 121.219 108.738 122.476 105.626 124.19C105.029 124.516 104.553 124.79 104.223 124.984C104.058 125.095 103.884 125.19 103.703 125.27C103.853 125.134 104.015 125.011 104.187 124.904C104.502 124.688 104.971 124.395 105.56 124.05C108.655 122.269 112.019 121.004 115.521 120.306C116.191 120.178 116.737 120.087 117.118 120.043C117.313 120.013 117.511 120.001 117.708 120.006Z" fill="#4E878C"/>
<path d="M129.288 135.704C129.468 135.583 129.639 135.451 129.801 135.308C130.219 134.897 130.515 134.378 130.658 133.81C130.845 132.957 130.889 132.079 130.787 131.213C130.731 130.14 130.618 129.071 130.446 128.011C130.277 126.954 129.969 125.924 129.53 124.948C129.166 124.154 128.679 123.422 128.087 122.78C127.532 122.191 126.885 121.696 126.171 121.314C126.227 121.327 126.281 121.347 126.332 121.373C126.483 121.433 126.63 121.502 126.772 121.582C127.295 121.876 127.771 122.246 128.186 122.681C128.802 123.327 129.309 124.07 129.688 124.879C130.142 125.867 130.46 126.912 130.633 127.985C130.806 129.052 130.916 130.129 130.962 131.209C131.057 132.094 130.998 132.989 130.79 133.854C130.63 134.439 130.304 134.965 129.853 135.37C129.728 135.477 129.591 135.569 129.446 135.645C129.397 135.673 129.344 135.693 129.288 135.704Z" fill="#4E878C"/>
<path d="M87.6289 130.26C87.7162 130.213 87.8068 130.173 87.9 130.139L88.6949 129.828C89.3836 129.557 90.391 129.19 91.6255 128.729C92.8601 128.267 94.3693 127.784 96.0508 127.286C97.7322 126.787 99.5859 126.267 101.564 125.82C104.945 125.044 108.403 124.648 111.872 124.641H112.818L113.66 124.685C114.188 124.71 114.638 124.74 115.008 124.787L115.854 124.886C115.953 124.893 116.051 124.908 116.148 124.93C116.049 124.939 115.95 124.939 115.851 124.93L115.001 124.868C114.635 124.831 114.18 124.813 113.657 124.798L112.814 124.769H111.872C108.425 124.826 104.993 125.248 101.634 126.025C99.6628 126.454 97.8055 126.956 96.1387 127.458C94.4719 127.96 92.9663 128.443 91.7098 128.861L88.7462 129.886L87.9403 130.165C87.84 130.207 87.7357 130.239 87.6289 130.26Z" fill="#4E878C"/>
<path d="M83.8111 130.747C83.788 130.722 83.7671 130.695 83.7488 130.667C83.7085 130.601 83.6536 130.52 83.5876 130.417L82.9759 129.461L82.5399 128.769C82.3751 128.516 82.1736 128.252 81.9904 127.963C81.5875 127.388 81.1552 126.718 80.6167 126.022C80.3493 125.655 80.0745 125.289 79.7851 124.923C79.4957 124.556 79.1697 124.157 78.8473 123.754C78.2099 122.937 77.4626 122.12 76.6933 121.248C74.9824 119.389 73.1635 117.633 71.246 115.988C69.312 114.358 67.284 112.844 65.1723 111.453C64.1869 110.837 63.2564 110.233 62.3479 109.735C61.8973 109.482 61.4687 109.222 61.0438 109.002L59.8166 108.365C59.0436 107.943 58.311 107.632 57.6809 107.324C57.3622 107.178 57.0691 107.031 56.7944 106.91L56.0398 106.592L54.9957 106.145L54.7246 106.024L54.6367 105.976L54.732 106.005L55.0104 106.108C55.2668 106.211 55.6185 106.35 56.0691 106.522L56.831 106.826C57.1094 106.943 57.4025 107.082 57.7249 107.225C58.3586 107.518 59.0986 107.83 59.8789 108.244L61.1134 108.87C61.542 109.09 61.9743 109.35 62.4285 109.603C63.3407 110.097 64.2602 110.702 65.2676 111.313C67.392 112.7 69.4301 114.215 71.3706 115.849C73.2931 117.497 75.1135 119.261 76.8215 121.131C77.5908 122.01 78.3345 122.835 78.9719 123.659C79.2906 124.065 79.6166 124.45 79.9024 124.835L80.7229 125.952C81.2578 126.655 81.6827 127.333 82.0784 127.912C82.2689 128.205 82.4447 128.476 82.6169 128.729L83.0381 129.432C83.2872 129.846 83.4814 130.165 83.6206 130.41C83.6792 130.516 83.7268 130.601 83.7671 130.667C83.8074 130.733 83.8148 130.744 83.8111 130.747Z" fill="#4E878C"/>
<path d="M70.547 115.695C70.4333 115.554 70.3328 115.403 70.2466 115.244C70.0634 114.944 69.796 114.511 69.459 113.995C68.5783 112.631 67.6168 111.321 66.5797 110.071C65.5393 108.825 64.4275 107.639 63.2497 106.522C62.7955 106.097 62.4255 105.752 62.1508 105.522C62.0108 105.41 61.8798 105.287 61.7588 105.155C61.9158 105.248 62.063 105.356 62.1984 105.478C62.4731 105.69 62.8614 106.02 63.3267 106.434C64.5374 107.526 65.6686 108.704 66.7115 109.958C67.7548 111.212 68.7061 112.541 69.5579 113.932C69.8839 114.467 70.133 114.907 70.2906 115.218C70.3899 115.369 70.4757 115.529 70.547 115.695Z" fill="#4E878C"/>
<path d="M51.08 111.819C51.0323 111.856 50.2557 110.764 49.0615 109.65C47.8673 108.537 46.7353 107.819 46.7683 107.771C47.0419 107.877 47.2996 108.02 47.5339 108.196C48.1215 108.587 48.6754 109.027 49.1897 109.511C49.7067 109.993 50.181 110.519 50.6074 111.083C50.7969 111.306 50.9559 111.554 51.08 111.819Z" fill="#222222"/>
<path d="M87.7645 130.26L72.1113 132.033L73.0015 140.066H91.0358L87.7645 130.26Z" fill="#FFBE9D"/>
<path d="M77.4492 140.026C75.0534 140.096 70.4414 142.188 68.8185 143.748C67.1957 145.309 66.0674 147.302 65.1552 149.357C64.8512 150.042 64.4885 150.822 63.7376 151.013C63.375 151.074 63.0026 151.036 62.66 150.903C62.3174 150.769 62.0175 150.545 61.7924 150.254C61.3581 149.679 61.1033 148.988 61.0597 148.269C60.7227 145.122 62.6166 142.407 64.5325 140.034C66.4484 137.66 66.9429 136.652 67.4631 132.912C67.639 131.634 68.7013 129.597 69.8845 129.106C71.2546 128.538 72.1008 128.978 73.1046 129.582L76.6286 131.593" fill="#FFBE9D"/>
<path d="M91.0358 140.067C90.8893 140.09 90.7407 140.098 90.5926 140.089H89.391C88.3763 140.089 86.9732 140.125 85.4273 140.158C83.8814 140.191 82.4711 140.199 81.4527 140.158C80.9471 140.158 80.5332 140.125 80.2511 140.103C80.1031 140.103 79.9557 140.085 79.8115 140.052C79.9578 140.026 80.1067 140.019 80.2548 140.03H81.4563C82.4711 140.03 83.8704 139.997 85.4237 139.964C86.9769 139.931 88.3763 139.924 89.391 139.964C89.9002 139.964 90.3105 139.997 90.5962 140.019C90.7442 140.016 90.8919 140.032 91.0358 140.067Z" fill="#EB996E"/>
<path d="M84.4014 115.592C84.5149 115.733 84.6143 115.885 84.6981 116.046C84.8126 116.227 84.9166 116.414 85.0095 116.607C85.1194 116.826 85.2549 117.075 85.3758 117.368C85.4967 117.662 85.6322 117.973 85.7421 118.325C85.852 118.676 85.9729 119.057 86.0828 119.449C86.5383 121.198 86.6626 123.017 86.4491 124.812C86.3869 125.223 86.3392 125.615 86.255 125.974C86.1707 126.333 86.0975 126.67 86.0095 126.97C85.9216 127.27 85.83 127.541 85.7495 127.776C85.6837 127.978 85.6054 128.177 85.515 128.369C85.4516 128.54 85.3731 128.704 85.2806 128.86C85.3203 128.683 85.3768 128.51 85.4491 128.344C85.5077 128.179 85.5809 127.977 85.6469 127.743C85.7128 127.508 85.8117 127.241 85.8813 126.937C85.9509 126.633 86.0389 126.303 86.0975 125.944C86.1561 125.585 86.2184 125.212 86.2733 124.794C86.4685 123.02 86.3507 121.226 85.9253 119.493C85.8191 119.098 85.7238 118.72 85.6029 118.376C85.482 118.032 85.3685 117.709 85.2549 117.42C85.1414 117.13 85.0205 116.878 84.9179 116.65C84.8153 116.423 84.7237 116.237 84.6431 116.083C84.5484 115.926 84.4675 115.762 84.4014 115.592Z" fill="#4E878C"/>
<path d="M91.5343 122.131C91.4944 121.959 91.4711 121.784 91.4647 121.607C91.4647 121.439 91.4318 121.241 91.3951 120.992C91.3585 120.743 91.3329 120.482 91.2706 120.186C91.1468 119.49 90.978 118.804 90.7651 118.131C90.4974 117.308 90.1692 116.506 89.7833 115.731C89.3886 114.966 88.9367 114.231 88.4315 113.533C88.0144 112.962 87.5604 112.419 87.0725 111.907C86.871 111.68 86.6658 111.496 86.4973 111.328C86.3288 111.159 86.1713 111.02 86.0431 110.91C85.9094 110.8 85.7867 110.678 85.6768 110.544C85.8277 110.636 85.9711 110.74 86.1054 110.855C86.2727 110.976 86.4318 111.109 86.5816 111.251C86.7611 111.412 86.9736 111.592 87.1824 111.811C87.6895 112.314 88.1585 112.854 88.5854 113.427C89.628 114.831 90.42 116.405 90.9262 118.079C91.1332 118.762 91.2911 119.459 91.3988 120.164C91.4538 120.464 91.4684 120.743 91.4941 120.981C91.5188 121.186 91.531 121.393 91.5307 121.6C91.5476 121.776 91.5488 121.954 91.5343 122.131Z" fill="#4E878C"/>
<path d="M130.449 130.099C130.438 130.134 130.424 130.168 130.408 130.201L130.273 130.498C130.098 130.878 129.897 131.245 129.672 131.597C129.318 132.15 128.917 132.672 128.474 133.157C127.882 133.794 127.231 134.373 126.529 134.887C124.684 136.21 122.597 137.157 120.386 137.674C117.902 138.301 115.085 138.506 112.151 138.543C106.271 138.543 100.956 138.521 97.1092 138.502L92.5484 138.466L91.3102 138.444H90.9878C90.9514 138.448 90.9144 138.448 90.8779 138.444H90.9878H91.3102H92.5484L97.1092 138.418H112.147C115.078 138.381 117.88 138.183 120.342 137.572C122.545 137.043 124.623 136.089 126.459 134.762C127.161 134.261 127.814 133.694 128.408 133.07C128.854 132.595 129.259 132.084 129.621 131.542C129.852 131.201 130.063 130.846 130.251 130.48L130.401 130.194C130.415 130.161 130.43 130.129 130.449 130.099Z" fill="#F8AC46"/>
<path d="M132.629 122.962C132.428 123.803 132.167 124.628 131.848 125.431C131.588 126.257 131.267 127.063 130.889 127.842C131.089 127 131.35 126.174 131.669 125.369C131.928 124.544 132.249 123.739 132.629 122.962Z" fill="#F8AC46"/>
<path d="M68.3414 130.571L68.2571 130.542L68.0044 130.436L67.0519 130.018C66.2277 129.652 65.0371 129.113 63.5791 128.414C62.1212 127.714 60.3994 126.846 58.5494 125.769C56.5336 124.611 54.6194 123.285 52.8274 121.805C49.5931 119.076 46.911 115.754 44.9257 112.017C44.3229 110.887 43.7931 109.719 43.3395 108.522C43.1673 108.104 43.0684 107.767 42.9732 107.544L42.8889 107.287C42.8889 107.229 42.8633 107.196 42.8633 107.196C42.8823 107.221 42.8971 107.25 42.9072 107.28C42.9329 107.346 42.9659 107.427 43.0098 107.529C43.1014 107.749 43.215 108.082 43.3761 108.496C43.8599 109.674 44.4078 110.825 45.0173 111.943C47.027 115.643 49.7092 118.935 52.9263 121.651C54.7084 123.125 56.6087 124.449 58.6081 125.611C60.4397 126.692 62.1614 127.571 63.6084 128.285C65.0554 129 66.2387 129.556 67.0556 129.945L67.9934 130.395L68.2352 130.516C68.3158 130.553 68.3451 130.568 68.3414 130.571Z" fill="#F8AC46"/>
<path d="M94.974 23.457C94.6977 22.9944 94.2969 22.6188 93.8173 22.3733C93.3377 22.1277 92.7987 22.022 92.2619 22.0682C91.725 22.1144 91.212 22.3108 90.7815 22.6347C90.3509 22.9587 90.0202 23.3972 89.8271 23.9002C89.7194 24.3434 89.5518 24.7698 89.3289 25.1677C88.5962 26.1605 86.7646 25.8711 86.1858 26.9591C85.5594 28.1167 87.0064 29.5014 86.6547 30.7689C86.3726 31.7836 85.0721 32.2342 84.7754 33.2489C84.3798 34.586 85.9916 35.9085 85.6033 37.2492C85.2736 38.4032 83.6471 38.8281 83.4054 40.0004C83.1233 41.2935 84.7168 42.3449 84.6912 43.6636C84.6582 45.3561 82.0719 46.2902 82.31 47.968C82.4382 48.8948 83.4273 49.5139 83.5922 50.437C83.9036 52.1698 81.2184 53.3677 81.5371 55.1077C81.6909 55.921 82.4602 56.4448 83.1269 56.9394C83.7937 57.4339 84.4787 58.1373 84.3432 58.9578C84.2076 59.7784 83.2625 60.2583 82.7496 60.958C81.9584 62.0313 83.2149 64.8191 84.4347 65.3539L89.5047 61.5661C89.5047 61.5661 88.0394 60.3535 89.1933 59.2399C90.3473 58.1263 89.5926 57.6281 89.5597 56.7855C89.5597 56.7855 90.6916 57.738 90.2923 58.7307C90.1329 59.1153 90.0734 59.5341 90.1196 59.9479C90.1657 60.3617 90.3159 60.7571 90.5561 61.0972L98.2526 57.6391L99.0842 50.3125L94.974 23.457Z" fill="#222222"/>
<path d="M83.6906 57.6282C83.5271 57.6543 83.3611 57.6605 83.1961 57.6465C82.5784 57.6113 81.9855 57.3913 81.4943 57.015C81.0031 56.6388 80.6363 56.1237 80.4413 55.5365C80.292 55.0861 80.2432 54.6084 80.2984 54.1371C80.3834 53.6217 80.5595 53.1255 80.8186 52.6718C81.0714 52.1809 81.3864 51.6974 81.6245 51.1589C81.8933 50.6131 81.9964 50.0006 81.9213 49.3968C81.8114 48.7777 81.3388 48.2795 80.9652 47.6971C80.7464 47.4014 80.6294 47.0428 80.6318 46.675C80.6477 46.4836 80.7075 46.2984 80.8066 46.1338C80.9057 45.9693 81.0415 45.8298 81.2033 45.7262C81.5135 45.5246 81.8379 45.3459 82.174 45.1914C82.5029 45.0467 82.7818 44.8084 82.9763 44.5064C83.0587 44.3465 83.108 44.1716 83.1212 43.9922C83.1344 43.8128 83.1113 43.6326 83.0532 43.4623C82.9424 43.0983 82.7715 42.7553 82.5477 42.4476C82.3279 42.1326 82.0678 41.8248 81.8517 41.4805C81.6117 41.1352 81.4549 40.7389 81.3938 40.3229C81.356 39.8878 81.4872 39.4549 81.7601 39.114C82.0423 38.7975 82.3636 38.5181 82.7162 38.2824C83.0563 38.0569 83.374 37.7993 83.665 37.5132C83.9421 37.2383 84.1067 36.8699 84.1266 36.4801C84.1054 36.0938 83.9951 35.7176 83.8042 35.3811C83.621 35.0148 83.4086 34.6924 83.2364 34.3298C83.0393 33.9705 82.9479 33.5628 82.9726 33.1538C82.9949 32.9512 83.0558 32.7547 83.1521 32.575C83.2556 32.4039 83.3785 32.2453 83.5185 32.1025C84.057 31.553 84.7457 31.1793 85.0351 30.5419C85.171 30.2272 85.2142 29.8803 85.1596 29.5419C85.1057 29.2036 85.0199 28.8712 84.9032 28.5491C84.6309 27.9265 84.5056 27.2497 84.5369 26.5709C84.5736 26.2372 84.7205 25.9252 84.9545 25.6844C85.1807 25.4608 85.4608 25.2993 85.7677 25.2155C86.3538 25.0397 86.9326 25.0177 87.4565 24.8895C87.7064 24.8507 87.9461 24.7628 88.1618 24.6307C88.3775 24.4987 88.5648 24.3251 88.713 24.1202C88.9841 23.7209 89.1306 23.2667 89.3944 22.9077C89.6196 22.6045 89.9044 22.3506 90.2314 22.1617C90.5584 21.9727 90.9205 21.8525 91.2956 21.8087C91.7684 21.7398 92.2511 21.7967 92.695 21.9735C92.8091 22.0169 92.9184 22.0721 93.021 22.1384C93.0594 22.1582 93.0951 22.1828 93.1272 22.2116C93.1272 22.2116 92.9807 22.12 92.6803 22.0065C92.2399 21.8512 91.7677 21.8083 91.3066 21.8819C90.9428 21.9317 90.593 22.0548 90.2781 22.2437C89.9633 22.4326 89.6901 22.6834 89.475 22.9809C89.2259 23.3472 89.0866 23.7795 88.8082 24.2008C88.4942 24.6437 88.0173 24.9441 87.4821 25.036C86.9436 25.1679 86.3612 25.1972 85.8043 25.3694C85.5276 25.4514 85.2758 25.6012 85.0717 25.8053C84.8633 26.0242 84.7343 26.3067 84.7054 26.6076C84.6795 27.2611 84.8049 27.9117 85.0717 28.5088C85.1926 28.8401 85.2809 29.1824 85.3355 29.5309C85.3976 29.9023 85.3518 30.2837 85.2036 30.6298C84.8739 31.3405 84.1632 31.7288 83.6577 32.2417C83.5312 32.3737 83.4206 32.52 83.328 32.6776C83.2427 32.8367 83.1892 33.0109 83.1704 33.1905C83.1512 33.5645 83.2375 33.9365 83.4196 34.2638C83.5844 34.6118 83.7859 34.9489 83.9837 35.3079C84.1929 35.6727 84.3122 36.082 84.3317 36.5021C84.3106 36.9394 84.1279 37.3532 83.8189 37.6633C83.5201 37.9603 83.1925 38.2266 82.8408 38.4583C82.504 38.6847 82.1964 38.9517 81.9249 39.2532C81.6747 39.5523 81.5523 39.9379 81.5842 40.3265C81.6402 40.7126 81.7857 41.0802 82.0092 41.3999C82.218 41.7333 82.4708 42.0336 82.7016 42.3633C82.9363 42.6896 83.1157 43.0522 83.2327 43.4367C83.2965 43.6297 83.321 43.8335 83.3046 44.0361C83.2882 44.2387 83.2314 44.436 83.1375 44.6163C82.9241 44.948 82.6186 45.2103 82.2583 45.3709C81.9295 45.5228 81.6113 45.6966 81.3058 45.8911C81.1644 45.9788 81.0454 46.0983 80.9583 46.2402C80.8711 46.382 80.8183 46.5422 80.804 46.708C80.8052 47.0401 80.9117 47.3633 81.108 47.6311C81.4743 48.1953 81.9579 48.7081 82.0751 49.3895C82.157 50.0238 82.0473 50.6681 81.7601 51.2395C81.511 51.7963 81.1923 52.2762 80.9395 52.7561C80.681 53.2008 80.5048 53.6885 80.4193 54.1957C80.3609 54.6488 80.4034 55.1092 80.5439 55.5438C80.7691 56.249 81.2465 56.8464 81.8846 57.2216C82.2866 57.4585 82.7354 57.6048 83.1998 57.6502C83.5185 57.6392 83.687 57.6026 83.6906 57.6282Z" fill="#222222"/>
<path d="M83.9253 63.1778C83.8871 63.1595 83.8524 63.1347 83.8227 63.1045C83.731 63.0146 83.674 62.8953 83.6616 62.7675C83.6417 62.5609 83.6906 62.3536 83.8008 62.1777C83.9528 61.9364 84.1891 61.7601 84.4638 61.6832C84.7936 61.5856 85.1287 61.5073 85.4676 61.4487C85.6624 61.4155 85.8486 61.3432 86.0148 61.2362C86.181 61.1292 86.3238 60.9896 86.4347 60.826C86.4851 60.7322 86.5145 60.6286 86.5209 60.5223C86.5272 60.416 86.5103 60.3096 86.4713 60.2105C86.3746 59.9947 86.2516 59.7917 86.105 59.6061C85.9355 59.3946 85.8254 59.1417 85.7863 58.8734C85.7681 58.5892 85.8385 58.3064 85.9877 58.0639C86.1233 57.8148 86.2881 57.584 86.4347 57.3312C86.5949 57.0976 86.6852 56.8231 86.6947 56.5399C86.6719 56.2481 86.5413 55.9752 86.3284 55.7743C86.1233 55.5472 85.8705 55.3457 85.6507 55.0929C85.5201 54.9719 85.4209 54.821 85.3616 54.6532C85.3022 54.4854 85.2845 54.3057 85.31 54.1295C85.3375 53.9445 85.4266 53.7741 85.5628 53.6459C85.6913 53.5188 85.8398 53.4137 86.0024 53.3346C86.3211 53.1734 86.6581 53.0635 86.9805 52.9206C87.3057 52.8024 87.593 52.5986 87.8121 52.3308C87.9072 52.186 87.9699 52.0222 87.9958 51.8509C88.0217 51.6795 88.0103 51.5046 87.9622 51.3381C87.8607 50.9786 87.7296 50.6282 87.5703 50.2904C87.3962 49.9332 87.2729 49.5534 87.2039 49.1621C87.1591 48.751 87.2275 48.3355 87.4018 47.9605C87.7168 47.2279 88.259 46.5721 88.4275 45.7919C88.5022 45.4019 88.4482 44.9982 88.2736 44.6416C88.0848 44.2709 87.877 43.9101 87.6509 43.5609C87.4074 43.1977 87.2576 42.7799 87.2149 42.3447C87.2119 41.9045 87.3651 41.4775 87.6472 41.1395C87.9 40.7988 88.193 40.5167 88.4458 40.2054C88.7097 39.9237 88.8854 39.571 88.9513 39.1906C88.9761 38.8133 88.8812 38.4377 88.6802 38.1173C88.5007 37.7803 88.2736 37.4652 88.0831 37.1245C87.8735 36.7864 87.7595 36.3977 87.7534 35.9999C87.7883 35.6147 87.922 35.2449 88.1417 34.9266C88.3359 34.6115 88.5484 34.3185 88.6986 34.0071C88.8597 33.712 88.9116 33.3696 88.8451 33.04C88.7022 32.3916 88.193 31.8714 88.0685 31.1864C88.0101 30.8481 88.0878 30.5005 88.2846 30.2193C88.4684 29.9648 88.6797 29.7314 88.9147 29.5232C89.1292 29.3299 89.3176 29.1095 89.4752 28.8675C89.6067 28.6281 89.6784 28.3604 89.684 28.0872C89.706 27.5451 89.5851 27.0212 89.6144 26.512C89.6439 26.0314 89.7924 25.5656 90.0467 25.1566C90.243 24.8273 90.505 24.5419 90.8163 24.3182C91.1276 24.0945 91.4816 23.9372 91.8563 23.8561C92.3262 23.7527 92.8144 23.7665 93.2777 23.8964C93.439 23.9401 93.5941 24.0041 93.7392 24.0869C93.7392 24.0869 93.5817 24.0137 93.2703 23.9331C92.8105 23.8221 92.3308 23.8221 91.871 23.9331C91.5101 24.0177 91.1704 24.1751 90.8725 24.3956C90.5745 24.616 90.3247 24.8949 90.1382 25.2152C89.899 25.6103 89.7607 26.0582 89.7353 26.5193C89.7096 27.0102 89.8342 27.5267 89.8195 28.0946C89.8169 28.3909 89.7401 28.6818 89.5961 28.9408C89.4352 29.1965 89.2405 29.4294 89.0173 29.6331C88.7911 29.8344 88.5883 30.0605 88.4128 30.3072C88.3258 30.4302 88.2645 30.5696 88.2324 30.7168C88.2003 30.8641 88.1981 31.0163 88.226 31.1644C88.3322 31.7798 88.8414 32.2963 89.0099 32.996C89.0841 33.362 89.0298 33.7424 88.8561 34.073C88.6949 34.4027 88.4898 34.6995 88.2919 35.0072C88.0863 35.2996 87.9601 35.6404 87.9256 35.9963C87.9333 36.3614 88.041 36.7174 88.237 37.0256C88.4165 37.3517 88.6473 37.6667 88.8378 38.0184C89.0569 38.3724 89.1594 38.7863 89.1308 39.2016C89.0581 39.6127 88.8686 39.9942 88.585 40.3006C88.3249 40.6193 88.0318 40.905 87.7937 41.2274C87.5333 41.5339 87.3928 41.9243 87.3981 42.3264C87.4395 42.7295 87.5805 43.116 87.8084 43.451C88.0391 43.8051 88.2495 44.172 88.4385 44.55C88.6285 44.9437 88.6875 45.3879 88.607 45.8175C88.4202 46.6674 87.8743 47.3085 87.5666 48.0155C87.4059 48.3581 87.3413 48.738 87.3798 49.1145C87.444 49.4868 87.5573 49.849 87.7168 50.1915C87.881 50.5453 88.0134 50.9131 88.1124 51.2904C88.1668 51.4808 88.1788 51.6807 88.1478 51.8763C88.1168 52.0718 88.0435 52.2582 87.9329 52.4224C87.6952 52.7177 87.3809 52.9419 87.0244 53.0708C86.6948 53.2137 86.3614 53.3272 86.0573 53.4774C85.9088 53.5326 85.7758 53.6226 85.6693 53.7399C85.5628 53.8572 85.4861 53.9983 85.4456 54.1515C85.4262 54.304 85.4434 54.4589 85.4956 54.6034C85.5478 54.748 85.6336 54.8781 85.746 54.983C85.9548 55.2212 86.2039 55.4226 86.42 55.6644C86.6546 55.8942 86.7978 56.2015 86.823 56.5289C86.8098 56.8397 86.7095 57.1406 86.5336 57.3971C86.3834 57.6499 86.2149 57.877 86.083 58.1298C85.9459 58.3487 85.8794 58.6045 85.8925 58.8624C85.9291 59.1062 86.0288 59.336 86.1819 59.5292C86.3309 59.725 86.454 59.9393 86.5482 60.1666C86.5912 60.2805 86.6089 60.4024 86.6001 60.5239C86.5912 60.6454 86.556 60.7634 86.4969 60.8699C86.3766 61.0439 86.2224 61.192 86.0437 61.3053C85.865 61.4185 85.6653 61.4947 85.4566 61.5293C85.0902 61.6136 84.7422 61.6465 84.4528 61.7454C84.1918 61.8135 83.9649 61.9752 83.8154 62.1997C83.7072 62.3644 83.6558 62.5599 83.6689 62.7565C83.6777 62.8414 83.7053 62.9232 83.7496 62.996C83.794 63.0689 83.854 63.131 83.9253 63.1778Z" fill="#4E878C"/>
<path d="M129.108 113.749L122.73 92.5021L124.719 58.7999C120.66 56.602 115.839 54.8363 108.967 54.5615L97.9773 55.3894L85.8555 61.4448L88.4198 81.82L92.5373 99.4037L89.9986 110.155C100.351 117.592 114.136 118.413 129.108 113.749Z" fill="#F8AC46"/>
<path d="M119.499 78.4504C119.499 78.4504 131.903 79.0878 131.903 78.0621C131.903 75.963 131.251 70.0029 129.478 65.3652C128.133 61.8558 125.815 59.2695 124.569 58.742C121.697 57.5074 119.499 78.4504 119.499 78.4504Z" fill="#F8AC46"/>
<path d="M86.0132 61.3242C86.0132 61.3242 83.6724 63.2694 81.207 69.116C78.2764 76.0506 77.4375 77.4793 77.4375 77.4793L84.7897 87.4214L88.7827 82.9449L86.0132 61.3242Z" fill="#F8AC46"/>
<path d="M92.5162 99.3822C92.5162 99.3822 92.5162 99.3565 92.4869 99.3016C92.4576 99.2466 92.4466 99.1587 92.4209 99.0598C92.3623 98.8327 92.2854 98.5176 92.1865 98.1257C91.985 97.3124 91.7066 96.1328 91.3732 94.6748C90.7065 91.7442 89.8273 87.7146 88.8822 83.2527L86.4608 71.8123C86.1494 70.3653 85.893 69.1857 85.7281 68.3505C85.6475 67.9512 85.5816 67.6398 85.534 67.4054C85.5156 67.3065 85.501 67.2259 85.4863 67.1599V67.0757C85.5012 67.1004 85.5112 67.1278 85.5156 67.1563C85.534 67.2222 85.5559 67.2991 85.5816 67.3981C85.6402 67.6276 85.7171 67.939 85.8124 68.3322C86.0102 69.1454 86.2849 70.325 86.6183 71.7867C87.2813 74.7173 88.1532 78.7469 89.0947 83.2124C90.0361 87.678 90.9043 91.7039 91.5307 94.6455C91.8458 96.1108 92.1022 97.2758 92.2854 98.111C92.3696 98.5066 92.4356 98.8217 92.4832 99.0525L92.5308 99.2979C92.5309 99.3266 92.5259 99.3551 92.5162 99.3822Z" fill="#222222"/>
<g opacity="0.3">
<path d="M121.383 57.1373C119.754 56.1743 117.837 55.8199 115.971 56.1372C114.106 56.4544 112.414 57.4228 111.195 58.8701L111.027 57.6246C110.924 58.9726 109.84 60.4929 109.99 61.3721C110.14 62.2513 110.862 63.0682 111.752 63.1048C113.012 63.1561 114.166 61.7458 115.335 62.2183C115.723 62.3722 116.009 62.7165 116.39 62.8924C117.243 63.288 118.221 62.7385 118.976 62.1927C119.855 61.5699 120.718 60.924 121.566 60.2548C122.038 59.8885 122.544 59.4379 122.595 58.8371C122.657 58.1044 122.016 57.511 121.383 57.1373Z" fill="#222222"/>
</g>
<path d="M123.111 59.4341C122.333 59.9321 121.638 60.5503 121.053 61.2657C120.444 62.0629 119.967 62.9521 119.639 63.8996C119.235 65.0644 118.901 66.2522 118.639 67.4567C118.373 68.6619 118.21 69.8873 118.151 71.1199C118.082 72.2556 118.06 73.2813 118.023 74.1422C117.986 75.003 117.954 75.699 117.91 76.1826C117.891 76.4207 117.866 76.6075 117.851 76.7358C117.849 76.8005 117.838 76.8646 117.818 76.9262C117.809 76.8618 117.809 76.7965 117.818 76.7321C117.818 76.5819 117.818 76.3987 117.84 76.1753C117.858 75.6954 117.877 74.9994 117.895 74.1385C117.913 73.2776 117.921 72.2482 117.979 71.109C118.029 69.8675 118.19 68.633 118.459 67.42C118.724 66.2082 119.064 65.0141 119.477 63.8447C119.819 62.8858 120.314 61.9888 120.943 61.1888C121.376 60.6562 121.884 60.1896 122.452 59.8041C122.654 59.6685 122.818 59.5843 122.932 59.5183C122.986 59.4801 123.047 59.4516 123.111 59.4341Z" fill="#222222"/>
<path d="M112.701 106.712C112.639 106.71 112.578 106.703 112.517 106.69L111.994 106.595C111.539 106.511 110.895 106.368 110.081 106.174C107.988 105.672 105.923 105.061 103.894 104.342C101.864 103.624 99.8719 102.801 97.9265 101.877C97.1939 101.511 96.5858 101.217 96.1792 101.001L95.7103 100.745C95.6538 100.719 95.6008 100.686 95.5527 100.646C95.6147 100.658 95.6742 100.68 95.7286 100.712L96.2121 100.932C96.6261 101.133 97.2342 101.415 97.9851 101.752C99.4871 102.434 101.586 103.32 103.956 104.163C106.326 105.005 108.517 105.628 110.114 106.049C110.913 106.254 111.561 106.416 112.008 106.526L112.525 106.657C112.586 106.666 112.645 106.684 112.701 106.712Z" fill="#222222"/>
<path d="M113.561 102.536C113.498 102.551 113.434 102.559 113.37 102.562L112.824 102.606C112.348 102.639 111.659 102.668 110.81 102.683C106.371 102.754 101.941 102.27 97.6217 101.243C96.7938 101.045 96.1271 100.877 95.6692 100.734L95.1453 100.573C95.0829 100.559 95.0225 100.537 94.9658 100.507C95.0304 100.507 95.0946 100.517 95.1563 100.536L95.6911 100.661C96.1491 100.774 96.8194 100.932 97.651 101.111C101.975 102.063 106.389 102.544 110.817 102.547C111.667 102.547 112.352 102.547 112.828 102.529H113.377C113.439 102.523 113.5 102.525 113.561 102.536Z" fill="#222222"/>
<g opacity="0.3">
<path d="M124.305 99.1988C123.646 98.1218 122.356 97.6456 121.173 97.1987C114.762 94.7743 108.881 91.1305 103.857 86.4689C101.464 84.2453 99.1896 81.7396 96.1857 80.4538C93.1818 79.168 89.1339 79.5526 87.3682 82.3038L88.4671 83.0364C94.006 84.8681 97.684 89.96 101.681 94.2131C104.684 97.4075 108.036 100.258 111.381 103.097C113.528 104.928 115.927 106.84 118.744 106.84C120.169 106.799 121.537 106.271 122.619 105.343C123.701 104.414 124.432 103.143 124.69 101.741C124.862 100.875 124.726 99.9754 124.305 99.1988Z" fill="#222222"/>
</g>
<path d="M68.0006 45.7808H67.0445C66.6479 45.7808 66.2594 45.8939 65.9246 46.1066C65.5899 46.3194 65.3227 46.6232 65.1543 46.9823C65.0025 47.3038 64.9356 47.6587 64.96 48.0134C64.9843 48.368 65.0992 48.7105 65.2935 49.0081L66.7588 51.2977C66.7588 51.2977 65.2935 52.0963 65.7038 53.6935C65.7038 53.6935 64.7366 54.2832 65.2422 56.2577C65.2422 56.2577 64.6011 57.9136 65.3814 59.0638C66.1617 60.2141 68.6454 64.621 68.6454 64.621V69.4932L75.2393 68.7312V63.0971C75.7029 62.3162 76.0323 61.463 76.2137 60.5731C76.4921 59.1481 75.4334 53.6861 75.4334 53.6861L72.4002 50.1877L69.0007 48.8543C68.7785 49.2209 68.7015 49.6573 68.7846 50.0778C68.8035 50.1616 68.8292 50.2436 68.8615 50.3232L68.356 50.0924L67.2204 48.0264V47.7516C67.2204 47.7516 70.0154 47.1252 68.9458 46.1324C68.6822 45.9071 68.3474 45.7825 68.0006 45.7808Z" fill="#FFBE9D"/>
<path d="M72.1664 58.7967C72.1664 58.7967 72.258 58.8773 72.3276 59.0751C72.4289 59.3586 72.4442 59.6658 72.3716 59.958C72.3438 60.0642 72.2925 60.1627 72.2214 60.2464C72.1504 60.3301 72.0615 60.3968 71.9613 60.4415C71.7288 60.5398 71.4689 60.5515 71.2286 60.4745C70.7121 60.317 70.3824 59.8261 70.0454 59.4048C69.8873 59.1984 69.6968 59.019 69.4812 58.8736C69.2817 58.7468 69.0466 58.6877 68.8108 58.7051L67.536 58.7821C67.1442 58.8224 66.7497 58.831 66.3564 58.8077C66.7411 58.7236 67.1319 58.6709 67.525 58.6502C67.8914 58.6135 68.3163 58.5696 68.8035 58.5293C69.0753 58.5054 69.3476 58.5696 69.5801 58.7125C69.8154 58.8678 70.0224 59.0623 70.1919 59.2876C70.5362 59.7235 70.8476 60.1704 71.2909 60.306C71.4901 60.3758 71.7071 60.3758 71.9063 60.306C71.9868 60.2734 72.0592 60.2238 72.1187 60.1606C72.1781 60.0973 72.2231 60.022 72.2507 59.9397C72.322 59.6708 72.322 59.388 72.2507 59.1191C72.2104 58.9029 72.1518 58.804 72.1664 58.7967Z" fill="#EB996E"/>
<path d="M69.7115 50.9789C69.7115 51.0009 69.565 50.9789 69.3745 50.869C69.1213 50.7191 68.9215 50.4935 68.8032 50.2241C68.685 49.9546 68.6541 49.6549 68.7151 49.367C68.7627 49.1472 68.8433 49.0337 68.8653 49.0447C68.8238 49.4149 68.8625 49.7897 68.9789 50.1437C69.1591 50.4723 69.4092 50.7574 69.7115 50.9789Z" fill="#222222"/>
<path d="M69.1436 58.5732C69.1656 58.5732 69.1802 58.7271 69.1216 58.9689C69.0423 59.2811 68.8919 59.5707 68.682 59.8151C68.4719 60.0602 68.2088 60.2543 67.9127 60.3829C67.6856 60.4781 67.5464 60.4891 67.5244 60.4672C67.9116 60.282 68.2557 60.0178 68.5345 59.6916C68.8134 59.3655 69.0209 58.9845 69.1436 58.5732Z" fill="#EB996E"/>
<path d="M73.2068 62.405C72.8519 61.9456 72.4177 61.5536 71.9246 61.2474C71.4014 60.9961 70.8364 60.8433 70.2578 60.7968C70.4246 60.7281 70.6068 60.7054 70.7853 60.7308C71.2178 60.754 71.6397 60.8736 72.02 61.0809C72.4003 61.2882 72.7294 61.5778 72.9833 61.9287C73.0968 62.0661 73.1737 62.2299 73.2068 62.405Z" fill="#EB996E"/>
<path d="M73.2581 58.8586C73.5157 59.3143 73.6964 59.8094 73.7929 60.3239C73.899 60.8245 73.9311 61.3379 73.8882 61.8478C73.7526 62.6757 73.3717 65.0275 73.9102 65.5807C74.4487 66.1339 78.0753 69.1084 78.0753 69.1084H80.3575C80.3575 69.1084 75.7235 66.2474 75.1007 64.3242C74.478 62.401 75.0787 61.3716 74.7637 60.1737C74.3285 58.8545 73.8084 57.5647 73.2068 56.3126L67.9097 47.5977L67.0342 47.8028L73.2581 58.8586Z" fill="#FBFFFE"/>
<path d="M73.2574 58.8586C73.2574 58.8586 73.2098 58.7927 73.1329 58.6608C73.0559 58.5289 72.935 58.3274 72.7922 58.082L71.51 55.8547L66.9602 47.8504L66.9053 47.7552L67.0115 47.7296L67.8834 47.5244H67.942L67.975 47.5757L73.283 56.287C73.719 57.2211 74.1622 58.2139 74.5505 59.2506C74.7718 59.7696 74.9055 60.3217 74.9462 60.8844C74.9462 61.4485 74.8839 61.9834 74.8912 62.5182C74.8933 63.045 74.9685 63.569 75.1147 64.0751C75.2571 64.5651 75.5075 65.017 75.8473 65.3976C76.5113 66.1438 77.2475 66.8224 78.0453 67.4234C78.8219 68.0168 79.6022 68.5626 80.3752 69.0499L80.6243 69.2074H78.0197L77.9977 69.1891C76.5617 67.9985 75.2466 66.9142 74.1183 65.9104C73.9659 65.7904 73.8336 65.647 73.7263 65.4855C73.6483 65.3152 73.5988 65.1333 73.5798 64.947C73.5428 64.6063 73.5367 64.263 73.5615 63.9213C73.6005 63.3234 73.6702 62.7279 73.7703 62.1372C73.8577 61.6675 73.8577 61.1856 73.7703 60.7159C73.7313 60.3651 73.6577 60.0191 73.5505 59.6828C73.4948 59.4732 73.4251 59.2676 73.3417 59.0674C73.3063 59.0008 73.2745 58.9323 73.2464 58.8623C73.4016 59.112 73.5246 59.3803 73.6127 59.6609C73.7279 59.9977 73.8101 60.3449 73.8582 60.6976C73.9446 61.176 73.9446 61.6661 73.8582 62.1446C73.7813 62.6794 73.7007 63.2692 73.6677 63.9176C73.6485 64.2536 73.6583 64.5907 73.697 64.925C73.7152 65.0965 73.7623 65.2637 73.8362 65.4195C73.9387 65.5598 74.0623 65.6833 74.2025 65.7859C75.3382 66.7786 76.6606 67.8593 78.1003 69.0389H78.049H80.3312L80.2872 69.1964C79.5033 68.7079 78.7194 68.1633 77.9354 67.5626C77.1197 66.9575 76.3673 66.2714 75.6898 65.5148C75.3299 65.1148 75.0645 64.6391 74.9132 64.1227C74.7641 63.6008 74.6864 63.061 74.6824 62.5182C74.6824 61.9724 74.752 61.4192 74.7374 60.8917C74.7053 60.3497 74.5815 59.8171 74.371 59.3165C73.9864 58.2908 73.5431 57.298 73.1109 56.3859L67.8467 47.649L67.9383 47.6856L67.0628 47.8871L67.1141 47.7699L71.6053 55.8291L72.8435 58.0747L73.1658 58.6681C73.2244 58.7853 73.2574 58.8586 73.2574 58.8586Z" fill="#222222"/>
<path d="M66.6123 51.6022C66.9141 51.2835 67.2864 51.04 67.6992 50.8912C68.1121 50.7423 68.5541 50.6922 68.9898 50.745C69.8634 50.8572 70.6876 51.2141 71.3672 51.7743C72.0429 52.3285 72.6681 52.9414 73.2355 53.606C73.646 53.9853 73.9482 54.467 74.111 55.0017C74.2209 55.5475 73.9242 56.2179 73.3784 56.3022C72.8326 56.3864 72.4039 55.9358 72.034 55.5255C71.5277 54.9861 70.9568 54.5111 70.3342 54.1115C69.963 53.8428 69.536 53.6612 69.085 53.5803C68.528 53.553 67.9719 53.6519 67.4585 53.8697" fill="#FFBE9D"/>
<path d="M67.4551 53.8804C67.5087 53.8496 67.5652 53.8238 67.6236 53.8035C67.7879 53.7388 67.9554 53.6826 68.1255 53.635C68.3969 53.5569 68.6784 53.5199 68.9607 53.5251C69.3383 53.5544 69.7042 53.6697 70.0304 53.8621C70.8691 54.341 71.627 54.9492 72.276 55.6644C72.4571 55.8602 72.6701 56.0237 72.9061 56.148C73.0209 56.2063 73.1492 56.2333 73.2778 56.2262C73.4064 56.2191 73.5309 56.1782 73.6387 56.1077C73.7469 56.0238 73.8371 55.9188 73.9038 55.7993C73.9705 55.6797 74.0124 55.5478 74.027 55.4117C74.0556 55.123 73.9941 54.8325 73.8512 54.5801C73.5255 54.0774 73.1473 53.6108 72.7229 53.1881C72.3484 52.7692 71.947 52.3752 71.5213 52.0085C70.8199 51.3712 69.9455 50.9557 69.0083 50.8143C68.3744 50.7389 67.7329 50.8672 67.1767 51.1806C66.9802 51.3077 66.7929 51.4484 66.6162 51.6019C66.6473 51.5481 66.6855 51.4988 66.7298 51.4553C66.8526 51.327 66.9903 51.2139 67.1401 51.1183C67.7015 50.7667 68.3639 50.612 69.023 50.6787C69.9946 50.8066 70.9056 51.2225 71.6386 51.873C72.0724 52.2422 72.4811 52.64 72.8621 53.0635C73.3012 53.495 73.6907 53.9742 74.0234 54.4922C74.1875 54.7784 74.2556 55.1096 74.2175 55.4373C74.1996 55.5994 74.1487 55.7561 74.0681 55.8978C73.9875 56.0395 73.8788 56.1633 73.7486 56.2616C73.6141 56.3502 73.4585 56.4017 73.2976 56.4107C73.1368 56.4197 72.9764 56.3859 72.8328 56.3128C72.5776 56.1798 72.3482 56.0024 72.1551 55.789C71.5175 55.0788 70.7765 54.4688 69.9571 53.9793C69.6532 53.7829 69.3088 53.6577 68.9497 53.613C68.6763 53.5991 68.4024 53.625 68.1365 53.6899C67.7005 53.8145 67.4807 53.8987 67.4551 53.8804Z" fill="#EB996E"/>
<path d="M66.4404 56.0383C67.6017 56.3167 68.9131 56.0383 69.9352 56.65C70.2702 56.8672 70.5746 57.1284 70.84 57.4267L72.4409 59.0788C72.7339 59.3829 73.1369 59.7125 73.5399 59.5184C73.6307 59.4698 73.7087 59.4003 73.7673 59.3155C73.8259 59.2308 73.8635 59.1333 73.8769 59.0312C73.9037 58.6646 73.807 58.2996 73.6021 57.9945C73.2218 57.2898 72.8036 56.6062 72.3493 55.9467C72.1182 55.6079 71.8544 55.2926 71.5617 55.0052C71.1037 54.5159 70.5551 54.1203 69.9462 53.8403C69.1183 53.5839 68.5029 53.474 67.6713 53.8403" fill="#FFBE9D"/>
<path d="M67.6674 53.8401C67.7168 53.8036 67.7711 53.774 67.8286 53.7522C67.9898 53.6779 68.1596 53.6237 68.3341 53.591C68.989 53.5086 69.6538 53.6154 70.25 53.8987C70.6484 54.1162 71.0177 54.3833 71.349 54.6936C71.742 55.0301 72.0904 55.4154 72.3857 55.8403C72.6971 56.2835 73.0084 56.7597 73.3088 57.2653C73.459 57.518 73.6056 57.7818 73.7448 58.0529C73.9158 58.3322 74 58.6561 73.9865 58.9834C73.972 59.1591 73.8999 59.3252 73.7814 59.4559C73.7211 59.5217 73.6482 59.5748 73.567 59.6119C73.4859 59.649 73.3981 59.6695 73.3088 59.672C72.9841 59.6389 72.6848 59.4813 72.4736 59.2325L71.294 58.0126C70.9277 57.6463 70.5614 57.2396 70.2207 56.9392C69.8847 56.6633 69.4858 56.4745 69.0594 56.3898C68.2682 56.2322 67.5941 56.2542 67.1472 56.1846C66.9722 56.1637 66.7986 56.1332 66.627 56.093C66.566 56.0835 66.5068 56.065 66.4512 56.0381C66.4512 56.0381 66.7003 56.0784 67.1545 56.1113C67.8004 56.1222 68.445 56.1711 69.0851 56.2579C69.5367 56.3373 69.9612 56.5287 70.3196 56.8147C70.6859 57.1261 71.0523 57.5107 71.4186 57.8917L72.5982 59.0969C72.7803 59.3004 73.0304 59.4306 73.3015 59.4632C73.4331 59.4524 73.5561 59.3933 73.6467 59.2973C73.7373 59.2012 73.7892 59.0751 73.7924 58.9431C73.8025 58.6526 73.726 58.3657 73.5726 58.1188C73.437 57.8551 73.2905 57.595 73.144 57.3422C72.8473 56.8403 72.5395 56.3641 72.2392 55.9209C71.9524 55.5059 71.6166 55.127 71.2391 54.7926C70.9251 54.4867 70.5744 54.2209 70.195 54.0013C69.6283 53.7175 68.9957 53.591 68.3634 53.635C68.1275 53.6894 67.8951 53.7579 67.6674 53.8401Z" fill="#EB996E"/>
<path d="M68.5578 47.2974C68.1509 47.5595 67.6987 47.7433 67.2243 47.8395C66.7645 47.9978 66.2737 48.0455 65.792 47.9787C65.792 47.9238 66.4221 47.8615 67.1767 47.6527C67.6271 47.4984 68.0888 47.3795 68.5578 47.2974Z" fill="#EB996E"/>
<path d="M76.841 77.5672L75.2658 68.0757L68.6719 69.2919C68.6719 69.2919 69.0162 82.2306 69.3313 85.4103C69.8405 90.5682 72.3938 96.0338 76.2915 95.0667C79.9291 94.1619 84.2262 86.5606 84.2262 86.5606L76.841 77.5672Z" fill="#FFBE9D"/>
<path d="M109.931 24.076C110.183 24.4863 110.846 24.4094 111.176 24.076C111.465 23.6889 111.639 23.2279 111.678 22.7462C111.715 22.2636 111.917 21.8083 112.25 21.4568C112.616 21.1454 113.301 21.1893 113.458 21.6436C113.165 20.8633 114.096 19.9475 114.869 20.2589C114.93 19.8679 115.13 19.512 115.431 19.2558C115.733 18.9996 116.116 18.8602 116.512 18.8628C116.908 18.8655 117.289 19.0101 117.587 19.2703C117.886 19.5305 118.08 19.8891 118.136 20.2808C118.304 20.1008 118.526 19.9807 118.768 19.9389C119.011 19.8971 119.26 19.9359 119.478 20.0493C119.697 20.1628 119.872 20.3447 119.977 20.5672C120.082 20.7896 120.111 21.0403 120.06 21.2809C120.302 21.3232 120.53 21.4232 120.725 21.5723C120.921 21.7215 121.077 21.9154 121.182 22.1378C121.286 22.3602 121.336 22.6045 121.326 22.85C121.316 23.0955 121.247 23.3351 121.126 23.5485C121.426 23.577 121.71 23.6975 121.939 23.8934C122.168 24.0893 122.331 24.3511 122.406 24.6431C122.481 24.9352 122.464 25.2432 122.358 25.5252C122.251 25.8072 122.06 26.0495 121.811 26.219C121.893 26.4185 121.924 26.6355 121.901 26.85C121.877 27.0646 121.8 27.2698 121.677 27.447C121.554 27.6241 121.388 27.7676 121.195 27.8641C121.002 27.9606 120.788 28.0071 120.572 27.9994C120.295 28.4614 119.847 28.7951 119.324 28.9275C118.802 29.06 118.249 28.9805 117.785 28.7064C116.863 29.0642 115.867 29.1855 114.887 29.0595C113.907 28.9334 112.973 28.5639 112.173 27.9847" fill="#222222"/>
<path d="M110.319 29.1128C110.291 28.5417 110.05 28.002 109.643 27.6004C109.236 27.1988 108.693 26.9646 108.121 26.9442L95.8236 24.7169C91.9259 24.574 89.6803 29.5158 89.7023 33.4172C89.7243 37.7508 89.9258 43.0406 90.6584 46.2387C92.1237 52.6421 97.1498 53.1256 97.1498 53.1256C97.1498 53.1256 97.1974 55.1331 97.3329 57.9538C97.3767 58.8676 97.6035 59.7632 98 60.5876C98.3964 61.412 98.9543 62.1484 99.6407 62.7531C100.327 63.3578 101.128 63.8185 101.996 64.1079C102.863 64.3973 103.78 64.5095 104.692 64.4378C106.432 64.3007 108.052 63.5032 109.222 62.2089C110.391 60.9146 111.021 59.2217 110.982 57.4776L110.319 29.1128Z" fill="#FFBE9D"/>
<path d="M91.8848 38.0296C91.8972 38.2463 91.9937 38.4496 92.1539 38.5961C92.314 38.7426 92.5251 38.8206 92.7421 38.8136C92.8485 38.8146 92.954 38.7943 93.0525 38.7539C93.1509 38.7135 93.2403 38.6539 93.3154 38.5784C93.3905 38.503 93.4498 38.4133 93.4897 38.3147C93.5296 38.216 93.5494 38.1104 93.548 38.004C93.5348 37.7876 93.4379 37.5849 93.278 37.4386C93.118 37.2923 92.9074 37.214 92.6908 37.2201C92.5843 37.2191 92.4788 37.2394 92.3803 37.2797C92.2819 37.3201 92.1925 37.3798 92.1174 37.4552C92.0423 37.5306 91.9831 37.6203 91.9431 37.7189C91.9032 37.8176 91.8834 37.9232 91.8848 38.0296Z" fill="#222222"/>
<path d="M91.138 35.667C91.2479 35.7696 91.845 35.2604 92.7388 35.2018C93.6327 35.1432 94.3177 35.5424 94.4093 35.4289C94.4532 35.3739 94.336 35.1871 94.0429 35.0003C93.639 34.7565 93.1689 34.6451 92.6985 34.6816C92.2327 34.7124 91.7887 34.8907 91.431 35.1908C91.1636 35.4179 91.0867 35.623 91.138 35.667Z" fill="#222222"/>
<path d="M100.249 37.7768C100.262 37.9929 100.359 38.1952 100.519 38.3409C100.679 38.4866 100.89 38.5642 101.106 38.5571C101.213 38.5586 101.318 38.5387 101.416 38.4988C101.515 38.4588 101.604 38.3995 101.679 38.3243C101.755 38.2492 101.814 38.1598 101.854 38.0613C101.894 37.9629 101.914 37.8574 101.912 37.7512C101.9 37.5345 101.803 37.3312 101.643 37.1847C101.483 37.0382 101.272 36.9602 101.055 36.9672C100.949 36.9662 100.843 36.9865 100.745 37.0269C100.646 37.0673 100.557 37.127 100.482 37.2024C100.407 37.2778 100.347 37.3675 100.307 37.4661C100.267 37.5648 100.248 37.6704 100.249 37.7768Z" fill="#222222"/>
<path d="M99.9626 35.6485C100.072 35.751 100.673 35.2419 101.563 35.1832C102.454 35.1246 103.142 35.5276 103.234 35.4104C103.278 35.3591 103.161 35.1722 102.868 34.9818C102.462 34.7411 101.993 34.6311 101.523 34.6667C101.058 34.6965 100.614 34.8735 100.256 35.1722C99.9882 35.403 99.9076 35.6228 99.9626 35.6485Z" fill="#222222"/>
<path d="M97.1751 42.4988C97.1751 42.4475 96.6147 42.3889 95.7098 42.3376C95.479 42.3376 95.2592 42.2973 95.2116 42.1471C95.1762 41.9121 95.2132 41.6718 95.3179 41.4584C95.4937 40.8894 95.6793 40.2947 95.8747 39.6744C96.6403 37.1358 97.1788 35.055 97.0762 35.0257C96.9737 34.9964 96.2703 37.0295 95.501 39.5682L94.9552 41.3595C94.8327 41.6457 94.8133 41.9655 94.9002 42.2644C94.9401 42.3471 94.9991 42.4191 95.0724 42.4746C95.1457 42.53 95.231 42.5672 95.3215 42.5831C95.4432 42.5967 95.5661 42.5967 95.6878 42.5831C96.6147 42.5831 97.1751 42.5501 97.1751 42.4988Z" fill="#222222"/>
<path d="M97.1533 53.1147C100.206 52.9515 103.153 51.9446 105.667 50.2061C105.667 50.2061 103.784 54.8071 97.2632 54.6459L97.1533 53.1147Z" fill="#EB996E"/>
<path d="M99.3813 33.3515C99.4839 33.5896 100.37 33.4137 101.425 33.465C102.48 33.5163 103.352 33.7471 103.473 33.52C103.528 33.4137 103.367 33.1939 103.008 32.9815C102.533 32.7209 102.003 32.5754 101.462 32.5565C100.922 32.5278 100.383 32.6295 99.8905 32.8532C99.5132 33.0364 99.352 33.2379 99.3813 33.3515Z" fill="#222222"/>
<path d="M91.3217 33.4763C91.4902 33.6704 92.091 33.4176 92.831 33.3554C93.571 33.2931 94.2084 33.3993 94.3366 33.1759C94.3952 33.0696 94.2816 32.8718 93.9959 32.6996C93.6121 32.4946 93.176 32.4082 92.743 32.4512C92.31 32.4943 91.8995 32.6649 91.5635 32.9414C91.3144 33.1685 91.2448 33.3847 91.3217 33.4763Z" fill="#222222"/>
<path d="M94.2483 24.6036C93.8819 25.4059 95.4352 26.8895 96.2777 27.1679C97.1203 27.4463 98.2119 27.3035 98.6662 28.0691C99.1864 28.9373 98.1277 30.3403 99.886 31.2855C100.443 31.5822 101.252 30.9558 101.718 31.3807C102.293 31.9082 101.542 32.8167 101.567 33.5787C101.615 35.0879 104.37 35.2088 104.553 36.7071C104.667 37.6522 103.612 38.5387 103.978 39.4253C104.344 40.3118 105.861 40.2458 106.235 41.1397C106.714 42.2936 104.769 43.29 105.007 44.5136C105.245 45.7371 107.279 45.7261 107.685 46.891C108.033 47.8874 106.912 48.9754 107.293 49.9572C107.729 51.0818 109.627 50.917 110.136 52.0086C110.751 53.3274 108.671 54.8477 109.374 56.1188C109.608 56.5438 110.151 56.694 110.473 57.0603C111.506 58.2472 111.414 60.8335 110.348 61.8702H111.11C112.255 61.8508 113.377 61.5483 114.376 60.9896C115.375 60.4309 116.22 59.6335 116.836 58.6685L117.47 60.1338C119.499 59.4891 121.082 58.1593 122.708 56.7929C123.112 56.4554 123.591 56.2205 124.105 56.1082C124.62 55.9959 125.153 56.0096 125.661 56.1481L126.111 56.269C127.471 56.3716 129.251 55.6976 130.387 54.9393C128.888 54.6389 128.082 53.005 127.709 51.5251C127.335 50.0451 127.108 48.393 125.987 47.3526C124.774 46.2243 122.672 45.9715 122.115 44.422C121.675 43.1984 122.481 41.8027 122.097 40.5645C121.712 39.3264 120.228 38.6999 119.66 37.5167C118.887 35.9048 120.005 33.7728 119.019 32.2819C117.953 30.659 115.092 30.8971 114.283 29.1314C113.839 28.1533 114.198 26.8309 113.429 26.0836C112.81 25.4865 111.759 25.5854 111.11 25.0212C110.158 24.197 110.623 22.5009 109.795 21.5521C108.678 20.27 106.385 21.4019 104.949 20.4898C104.044 19.9146 103.743 18.6764 102.85 18.0866C101.637 17.2807 100.047 18.0061 98.6735 18.4859C97.6111 18.8523 96.4938 19.0684 95.4608 19.5227C94.4278 19.9769 93.4606 20.7242 93.0943 21.7902C92.728 22.8562 93.1859 24.2336 94.2519 24.5963" fill="#222222"/>
<path d="M128.39 49.7813C128.429 49.8072 128.465 49.838 128.497 49.8729C128.566 49.9389 128.669 50.0341 128.793 50.166C128.953 50.3283 129.098 50.5049 129.226 50.6935C129.414 50.9476 129.539 51.2426 129.592 51.5544C129.614 51.7509 129.596 51.9499 129.538 52.139C129.48 52.328 129.383 52.5032 129.255 52.6534C129.102 52.8319 128.89 52.949 128.658 52.9831C128.532 52.996 128.405 52.9838 128.285 52.9474C128.164 52.9109 128.052 52.8508 127.954 52.7706C127.574 52.376 127.354 51.8534 127.339 51.3053C127.306 50.7123 127.306 50.1179 127.339 49.5249C127.372 48.9022 127.427 48.2501 127.515 47.5761C127.559 47.239 127.614 46.8947 127.672 46.5467C127.74 46.2006 127.762 45.8471 127.738 45.4953C127.731 45.3204 127.684 45.1495 127.6 44.9958C127.516 44.842 127.398 44.7097 127.255 44.6088C126.932 44.4316 126.561 44.3635 126.196 44.4146C125.799 44.4568 125.401 44.4764 125.002 44.4733C124.786 44.4717 124.574 44.4227 124.379 44.3296C124.185 44.2365 124.013 44.1017 123.877 43.9348C123.625 43.5762 123.489 43.1494 123.485 42.7112C123.476 42.2804 123.509 41.8497 123.584 41.4254C123.654 41.0041 123.668 40.5754 123.624 40.1506C123.6 39.9417 123.533 39.7401 123.428 39.558C123.323 39.376 123.181 39.2173 123.013 39.0919C122.634 38.8578 122.234 38.6592 121.818 38.4984C121.378 38.3043 121.01 37.9761 120.767 37.5606C120.294 36.7071 120.302 35.707 120.32 34.7692C120.336 34.3041 120.313 33.8384 120.25 33.3772C120.19 32.9291 120.023 32.502 119.763 32.1317C119.21 31.399 118.32 31.095 117.51 30.7286C117.095 30.5562 116.699 30.3387 116.331 30.0802C115.96 29.8118 115.681 29.4357 115.532 29.0032C115.43 28.5838 115.368 28.1558 115.345 27.7247C115.331 27.3258 115.168 26.9466 114.887 26.6624C114.576 26.4256 114.206 26.2764 113.818 26.2301C113.421 26.1748 113.03 26.0791 112.653 25.9444C112.272 25.7946 111.963 25.5032 111.792 25.1311C111.654 24.7804 111.576 24.4089 111.561 24.0321C111.51 23.2995 111.528 22.5668 111.195 22.0027C110.853 21.4604 110.336 21.0518 109.73 20.8451C109.181 20.6401 108.601 20.5287 108.015 20.5154C107.458 20.4861 106.916 20.4934 106.436 20.4714C105.974 20.4623 105.514 20.4083 105.063 20.3103C104.676 20.2228 104.306 20.0771 103.964 19.878C103.483 19.6189 103.098 19.2133 102.865 18.7204C102.782 18.5505 102.734 18.3665 102.722 18.1782C102.766 18.3572 102.825 18.5324 102.898 18.7021C103.141 19.1733 103.525 19.5572 103.996 19.8011C104.332 20.001 104.697 20.148 105.077 20.237C105.525 20.3268 105.98 20.3747 106.436 20.3799C106.927 20.3799 107.455 20.3799 108.019 20.4092C108.617 20.4192 109.21 20.5281 109.773 20.7315C110.412 20.9465 110.956 21.3747 111.316 21.9441C111.682 22.5668 111.656 23.3215 111.715 24.0358C111.729 24.3985 111.803 24.7562 111.935 25.0945C112.089 25.4301 112.367 25.6928 112.711 25.8272C113.08 25.9539 113.461 26.0447 113.847 26.0982C114.267 26.1471 114.666 26.3092 115.001 26.5671C115.315 26.8786 115.5 27.2974 115.518 27.7394C115.542 28.1591 115.603 28.5759 115.701 28.9849C115.84 29.3797 116.095 29.7232 116.433 29.9703C116.791 30.2208 117.175 30.4297 117.58 30.5931C117.987 30.7762 118.408 30.9594 118.814 31.1682C119.241 31.3809 119.615 31.6833 119.913 32.0547C120.193 32.4475 120.373 32.9028 120.437 33.3808C120.504 33.854 120.528 34.3321 120.511 34.8095C120.489 35.7473 120.511 36.7144 120.932 37.502C121.155 37.8855 121.495 38.1872 121.903 38.3629C122.328 38.5303 122.738 38.7363 123.126 38.9783C123.314 39.1187 123.471 39.2962 123.588 39.4997C123.704 39.7032 123.778 39.9285 123.804 40.1616C123.853 40.6021 123.84 41.0473 123.764 41.484C123.69 41.8986 123.656 42.3195 123.665 42.7405C123.667 43.1405 123.788 43.5308 124.013 43.8615C124.135 44.009 124.287 44.1281 124.46 44.2104C124.633 44.2926 124.821 44.3361 125.013 44.3377C125.404 44.3413 125.796 44.3229 126.185 44.2828C126.586 44.2307 126.994 44.3104 127.346 44.5099C127.508 44.6242 127.642 44.7741 127.737 44.9481C127.833 45.122 127.887 45.3155 127.896 45.5136C127.92 45.8816 127.896 46.2512 127.822 46.6126C127.76 46.9789 127.709 47.2976 127.661 47.6347C127.57 48.305 127.507 48.9534 127.474 49.5725C127.433 50.159 127.425 50.7472 127.449 51.3346C127.461 51.8523 127.66 52.3482 128.009 52.7303C128.092 52.8015 128.188 52.8556 128.291 52.8892C128.395 52.9228 128.504 52.9354 128.613 52.9262C128.721 52.917 128.827 52.8862 128.923 52.8355C129.02 52.7849 129.105 52.7155 129.174 52.6314C129.299 52.4911 129.393 52.3266 129.45 52.1481C129.507 51.9696 129.527 51.7812 129.508 51.5947C129.465 51.2925 129.353 51.0042 129.182 50.7521C129.059 50.5648 128.921 50.3872 128.771 50.2209L128.489 49.9169C128.451 49.8762 128.417 49.8306 128.39 49.7813Z" fill="#222222"/>
<path d="M114.213 59.159L114.389 59.0821C114.506 59.0308 114.682 58.9612 114.898 58.8513C115.168 58.7203 115.405 58.5299 115.591 58.2945C115.713 58.1359 115.789 57.947 115.812 57.7482C115.835 57.5494 115.802 57.3481 115.719 57.1662C115.595 56.9663 115.398 56.8229 115.17 56.7669C114.928 56.69 114.66 56.6607 114.386 56.5654C114.24 56.5195 114.107 56.4405 113.997 56.3346C113.888 56.2131 113.822 56.0583 113.81 55.895C113.836 55.5685 113.949 55.2548 114.136 54.9866C114.314 54.7083 114.423 54.392 114.455 54.0634C114.484 53.7165 114.419 53.3683 114.265 53.056C114.09 52.7236 113.82 52.4513 113.489 52.2744C113.157 52.0974 112.781 52.0238 112.407 52.0633H112.33V51.9827C112.324 51.3996 112.509 50.8306 112.858 50.3635C113.215 49.8944 113.529 49.3942 113.796 48.8689C113.917 48.5974 113.986 48.3052 113.997 48.008C114.011 47.7104 113.915 47.4182 113.726 47.1874C113.331 46.7185 112.627 46.6123 112.037 46.3302C111.701 46.2004 111.425 45.9513 111.261 45.6305C111.125 45.2894 111.125 44.9093 111.261 44.5682C111.477 43.9015 111.913 43.3043 111.891 42.6266C111.865 42.2875 111.727 41.9666 111.499 41.7145C111.266 41.4523 110.992 41.2285 110.689 41.0514C110.085 40.6851 109.371 40.4287 108.777 39.9524C108.398 39.6607 108.138 39.2417 108.044 38.7729C107.98 38.3134 108.026 37.8452 108.176 37.4065C108.297 36.9742 108.451 36.5603 108.543 36.139C108.589 35.9348 108.606 35.7252 108.594 35.5162C108.573 35.3157 108.507 35.1227 108.4 34.9521C108.158 34.621 107.81 34.3821 107.414 34.2744C107.008 34.1538 106.614 33.9981 106.235 33.8091C106.046 33.702 105.883 33.5552 105.756 33.3787C105.63 33.2022 105.543 33.0003 105.502 32.7871C105.444 32.3774 105.467 31.9603 105.572 31.5599C105.652 31.1716 105.751 30.7942 105.799 30.4169C105.865 30.0489 105.833 29.67 105.707 29.3179C105.563 28.9945 105.322 28.7234 105.019 28.5413C104.718 28.3613 104.394 28.2256 104.055 28.1384C103.385 27.9589 102.696 27.9039 102.066 27.6731C101.743 27.5747 101.443 27.4128 101.183 27.1969C100.951 26.9892 100.758 26.7409 100.615 26.4642C100.333 25.9221 100.183 25.3653 99.9559 24.889C99.7564 24.4292 99.4408 24.029 99.0401 23.7278C98.7194 23.4868 98.3504 23.3178 97.9585 23.2325C97.5665 23.1471 97.1607 23.1474 96.7689 23.2332C96.2701 23.3469 95.8094 23.5879 95.4318 23.9329C95.1753 24.1747 95.0654 24.3322 95.0654 24.3249C95.1589 24.1704 95.2735 24.0298 95.4061 23.9073C95.7801 23.5465 96.2446 23.2934 96.7505 23.1746C97.1539 23.079 97.5732 23.0724 97.9794 23.1553C98.3855 23.2381 98.7687 23.4085 99.1024 23.6545C99.5219 23.9605 99.8541 24.3709 100.066 24.8451C100.304 25.3396 100.458 25.8928 100.736 26.413C100.871 26.6784 101.054 26.9167 101.275 27.1163C101.514 27.3161 101.789 27.4701 102.084 27.5706C102.689 27.7904 103.37 27.838 104.062 28.0175C104.418 28.1067 104.759 28.2474 105.074 28.4351C105.406 28.636 105.67 28.9338 105.828 29.2886C105.965 29.6609 106.003 30.0623 105.938 30.4536C105.89 30.8455 105.792 31.2265 105.711 31.6112C105.614 31.9879 105.592 32.3798 105.645 32.7651C105.682 32.9541 105.759 33.1328 105.873 33.2886C105.986 33.4443 106.132 33.5732 106.301 33.6663C106.671 33.8478 107.056 33.9985 107.451 34.1168C107.884 34.2317 108.265 34.49 108.532 34.8495C108.656 35.0449 108.733 35.2671 108.755 35.4979C108.766 35.725 108.749 35.9527 108.704 36.1756C108.616 36.6189 108.462 37.0328 108.337 37.4578C108.196 37.8681 108.152 38.3059 108.209 38.7362C108.299 39.1636 108.541 39.5437 108.891 39.8059C109.451 40.2712 110.151 40.5129 110.781 40.9049C111.102 41.0925 111.391 41.3299 111.638 41.6082C111.89 41.8925 112.042 42.2515 112.07 42.6303C112.089 43.4033 111.627 44.0114 111.429 44.6378C111.312 44.9382 111.312 45.2716 111.429 45.5719C111.577 45.8511 111.82 46.0682 112.114 46.1837C112.407 46.3192 112.722 46.4145 113.03 46.55C113.349 46.662 113.636 46.8507 113.865 47.0995C114.08 47.3635 114.19 47.6975 114.173 48.0373C114.159 48.3561 114.084 48.6694 113.953 48.9605C113.681 49.4936 113.361 50.0012 112.997 50.4771C112.664 50.9136 112.485 51.4482 112.488 51.9973L112.404 51.9277C112.809 51.8879 113.216 51.9717 113.572 52.1678C113.929 52.364 114.217 52.6634 114.4 53.0267C114.556 53.3513 114.624 53.7109 114.599 54.07C114.573 54.4292 114.454 54.7754 114.254 55.0745C114.077 55.3234 113.967 55.6135 113.935 55.917C113.948 56.0533 114.003 56.1822 114.092 56.2859C114.181 56.3896 114.3 56.463 114.433 56.4958C114.69 56.5874 114.961 56.624 115.21 56.7046C115.46 56.7709 115.675 56.9326 115.807 57.1552C115.911 57.3611 115.941 57.5966 115.891 57.8219C115.856 58.0182 115.775 58.2038 115.657 58.3641C115.458 58.6034 115.208 58.7939 114.924 58.9209C114.694 59.0201 114.457 59.0997 114.213 59.159Z" fill="#4E878C"/>
<path d="M124.628 55.7706C124.737 55.6122 124.827 55.4413 124.895 55.2614C125.073 54.74 125.036 54.1694 124.793 53.6752C124.616 53.3235 124.332 53.0364 123.983 52.8546C123.78 52.7455 123.584 52.6231 123.397 52.4883C123.291 52.4124 123.202 52.3163 123.133 52.2057C123.065 52.0951 123.019 51.972 122.998 51.8435C122.921 51.2904 123.302 50.7995 123.291 50.2464C123.286 50.1063 123.248 49.9693 123.181 49.8461C123.115 49.7228 123.02 49.6166 122.906 49.5357C122.652 49.3611 122.377 49.2173 122.089 49.1071C121.776 48.9878 121.48 48.8263 121.21 48.6272C120.924 48.3998 120.736 48.0725 120.682 47.7114C120.565 46.9787 120.796 46.246 120.811 45.5134C120.837 45.1433 120.743 44.7747 120.543 44.462C120.302 44.1645 119.98 43.9421 119.616 43.821C119.229 43.6831 118.85 43.5229 118.481 43.3411C118.28 43.2438 118.104 43.1006 117.969 42.9231C117.833 42.7455 117.741 42.5386 117.701 42.319C117.662 41.881 117.683 41.4399 117.763 41.0076C117.808 40.8039 117.81 40.5931 117.771 40.3884C117.731 40.1836 117.65 39.9892 117.532 39.817C117.217 39.5167 116.831 39.3001 116.411 39.1869C115.948 39.0559 115.539 38.7814 115.243 38.403C114.997 37.9751 114.91 37.4745 114.997 36.9889C115.08 36.5154 115.202 36.0497 115.363 35.5969C115.514 35.153 115.577 34.6837 115.547 34.2158C115.518 33.9871 115.44 33.7672 115.319 33.5712C115.198 33.3752 115.035 33.2077 114.843 33.0802C114.427 32.8485 113.973 32.6911 113.502 32.615C113.03 32.5234 112.55 32.4465 112.085 32.3109C111.607 32.1925 111.168 31.9498 110.814 31.6076C110.481 31.257 110.23 30.8365 110.081 30.3767C109.795 29.4755 109.715 28.5451 109.531 27.6989C109.448 27.2753 109.307 26.865 109.114 26.479C108.916 26.114 108.624 25.809 108.268 25.5961C107.535 25.2042 106.674 25.3067 105.879 25.3434C105.477 25.3752 105.073 25.3629 104.674 25.3067C104.275 25.2479 103.897 25.0905 103.575 24.8488C102.956 24.3616 102.608 23.6876 102.205 23.1271C102.016 22.8458 101.795 22.5876 101.546 22.3578C101.302 22.146 101.032 21.9663 100.743 21.823C99.6925 21.345 98.5014 21.2758 97.4023 21.6288C96.5761 21.9001 95.8117 22.3321 95.1531 22.9C94.733 23.2549 94.341 23.6419 93.9808 24.0576L93.7024 24.3873C93.6401 24.4605 93.6035 24.4971 93.6035 24.4971C93.6259 24.454 93.6529 24.4135 93.6841 24.3763C93.7427 24.2957 93.8306 24.1821 93.9515 24.0356C94.3001 23.6053 94.6863 23.2068 95.1055 22.845C95.7648 22.2591 96.5345 21.8108 97.3694 21.5262C98.5 21.1517 99.7299 21.2145 100.817 21.7021C101.118 21.8479 101.399 22.0326 101.652 22.2516C101.911 22.4873 102.14 22.7529 102.337 23.0428C102.751 23.6106 103.102 24.27 103.685 24.7243C103.985 24.9457 104.335 25.0903 104.703 25.1456C105.09 25.1989 105.482 25.21 105.872 25.1785C106.275 25.1565 106.685 25.1199 107.106 25.1382C107.541 25.1419 107.968 25.246 108.356 25.4423C108.742 25.6699 109.06 25.9977 109.275 26.3911C109.478 26.793 109.626 27.2206 109.715 27.6622C109.851 28.5554 110.034 29.4407 110.264 30.3144C110.4 30.7462 110.632 31.1418 110.942 31.472C111.272 31.7937 111.684 32.0203 112.132 32.1278C112.583 32.2596 113.059 32.3329 113.535 32.4282C114.03 32.5071 114.507 32.6747 114.942 32.9227C115.158 33.064 115.341 33.2506 115.477 33.4694C115.614 33.6883 115.701 33.9342 115.733 34.1902C115.766 34.6864 115.701 35.1841 115.543 35.6555C115.388 36.0977 115.272 36.5524 115.195 37.0146C115.113 37.4565 115.19 37.913 115.411 38.3041C115.684 38.6557 116.061 38.9122 116.488 39.0367C116.94 39.1599 117.352 39.397 117.686 39.7254C117.836 39.9121 117.931 40.1365 117.961 40.3738C117.986 40.599 117.986 40.8263 117.961 41.0515C117.882 41.4654 117.859 41.888 117.891 42.308C117.927 42.5027 118.008 42.6862 118.129 42.8434C118.249 43.0007 118.405 43.1272 118.583 43.2129C118.94 43.3928 119.307 43.5506 119.682 43.6854C120.073 43.8228 120.418 44.0663 120.679 44.3888C120.887 44.7256 120.987 45.1181 120.965 45.5134C120.943 46.2827 120.715 47.0007 120.822 47.6784C120.868 48.0054 121.037 48.3026 121.294 48.51C121.554 48.7031 121.838 48.8597 122.14 48.9752C122.438 49.0908 122.721 49.2421 122.983 49.4258C123.11 49.5198 123.215 49.6415 123.288 49.7818C123.362 49.922 123.403 50.0771 123.408 50.2354C123.408 50.8508 123.042 51.3343 123.097 51.8216C123.137 52.0565 123.269 52.266 123.463 52.404C123.644 52.538 123.834 52.6604 124.031 52.7704C124.394 52.9612 124.686 53.2645 124.862 53.6349C124.983 53.8885 125.052 54.1637 125.065 54.4444C125.077 54.725 125.033 55.0053 124.936 55.2687C124.868 55.4551 124.763 55.6258 124.628 55.7706Z" fill="#4E878C"/>
<path d="M98.3216 45.4035C98.1738 45.1937 98.0992 44.941 98.1093 44.6846C98.1194 44.4282 98.2136 44.1823 98.3774 43.9847C98.5412 43.7872 98.7654 43.649 99.0155 43.5916C99.2656 43.5342 99.5277 43.5607 99.7612 43.6671C100.055 43.8232 100.301 44.0545 100.476 44.3374C100.584 44.4709 100.665 44.6253 100.711 44.791C100.758 44.9567 100.77 45.1303 100.747 45.3009C100.705 45.4333 100.636 45.5556 100.544 45.6603C100.453 45.7649 100.341 45.8496 100.215 45.909C100.027 46.0117 99.8195 46.0742 99.6057 46.0925C99.3919 46.1108 99.1767 46.0845 98.9736 46.0152C98.7715 45.9435 98.5893 45.8247 98.4422 45.6686C98.295 45.5126 98.1871 45.3237 98.1274 45.1177" fill="#EB996E"/>
<path d="M100.42 43.4914C100.494 43.5097 100.523 43.7258 100.42 44.0555C100.269 44.4834 99.9934 44.8563 99.6284 45.1259C99.2634 45.3956 98.826 45.5497 98.3725 45.5685C98.0282 45.5685 97.8304 45.4769 97.834 45.4036C97.834 45.2424 98.6033 45.1802 99.2993 44.671C99.9954 44.1618 100.266 43.4511 100.42 43.4914Z" fill="#222222"/>
<path d="M77.2692 68.3872C77.1894 68.1036 77.1864 67.8039 77.2604 67.5188C77.3344 67.2336 77.4828 66.9733 77.6905 66.7643C78.1152 66.3511 78.6742 66.1041 79.2657 66.0683C79.7824 66.0124 80.3042 66.1078 80.7676 66.343C81.0326 66.4695 81.2633 66.6578 81.4403 66.8921C81.6172 67.1263 81.7353 67.3997 81.7845 67.6892C81.8337 67.9786 81.8126 68.2756 81.723 68.5552C81.6333 68.8348 81.4778 69.0887 81.2695 69.2956C80.8155 69.7665 80.2008 70.049 79.5478 70.0869C79 70.1474 78.45 69.9939 78.0129 69.6583C77.8107 69.5074 77.6414 69.3169 77.5154 69.0983C77.3894 68.8797 77.3094 68.6377 77.2802 68.3872" fill="#F8AC46"/>
<path d="M71.7856 70.4237C69.6169 70.9952 67.2394 68.7276 66.5801 67.1817C66.535 67.1052 66.5091 67.0189 66.5046 66.9302C66.5001 66.8416 66.5172 66.7531 66.5544 66.6725C66.6199 66.6042 66.7016 66.5536 66.7919 66.5254C66.8823 66.4973 66.9782 66.4924 67.0709 66.5113C68.1718 66.5739 69.2236 66.9876 70.0721 67.6917C70.9206 68.3958 71.5211 69.3533 71.7856 70.4237Z" fill="#4E878C"/>
<path d="M69.2135 69.4276C69.1329 69.1447 69.1294 68.8454 69.2035 68.5606C69.2776 68.2759 69.4265 68.0162 69.6348 67.8085C70.0597 67.395 70.6184 67.1468 71.21 67.1088C71.7271 67.0549 72.2486 67.1515 72.712 67.3872C72.973 67.5146 73.1999 67.7023 73.3741 67.9347C73.5483 68.1672 73.6647 68.4377 73.7137 68.7239C73.7627 69.0102 73.7429 69.304 73.656 69.5812C73.5691 69.8583 73.4176 70.1108 73.2138 70.3178C72.7598 70.7907 72.1431 71.0736 71.4884 71.1091C70.9424 71.1689 70.3943 71.0168 69.9572 70.6842C69.7536 70.5338 69.5834 70.3429 69.4573 70.1235C69.3312 69.9041 69.252 69.6609 69.2245 69.4093" fill="#F8AC46"/>
<path d="M80.6207 68.9953C80.5474 67.8451 81.2251 66.3834 81.8259 65.4017C82.4317 64.4127 83.3269 63.6339 84.3902 63.1707C84.4235 63.1446 84.463 63.1277 84.5048 63.1216C84.5466 63.1156 84.5893 63.1206 84.6285 63.1361C84.6678 63.1517 84.7024 63.1773 84.7287 63.2104C84.755 63.2434 84.7722 63.2828 84.7785 63.3246C85.0668 63.9765 85.1781 64.6929 85.1013 65.4015C85.0245 66.1102 84.7623 66.7861 84.3411 67.3611C83.9199 67.9361 83.3545 68.3899 82.702 68.6769C82.0495 68.9638 81.3329 69.0736 80.6244 68.9953" fill="#4E878C"/>
<path d="M88.4862 66.3943C88.8825 65.8583 89.2283 65.2869 89.5192 64.6872C89.8087 64.0822 89.9266 63.4093 89.8599 62.742C89.859 62.6918 89.847 62.6426 89.8249 62.5976C89.8027 62.5526 89.7709 62.5131 89.7317 62.4819C89.6873 62.462 89.6393 62.4517 89.5907 62.4517C89.542 62.4517 89.494 62.462 89.4496 62.4819C88.2271 62.86 87.1542 63.6126 86.3825 64.6334C85.6108 65.6542 85.1793 66.8916 85.1489 68.1709L85.1123 68.5006C86.21 69.0347 87.4723 69.1213 88.6327 68.7424C89.5773 68.4974 90.463 68.0651 91.2373 67.4713C92.0179 66.8689 92.5414 65.9932 92.7026 65.0205C91.9421 64.9257 91.1699 64.9996 90.4412 65.237C89.7124 65.4745 89.0449 65.8696 88.4862 66.3943Z" fill="#4E878C"/>
<path d="M74.6166 65.5406C73.5176 64.5661 72.023 64.1009 70.5613 63.8774C70.528 64.6152 70.6418 65.3522 70.8962 66.0455C71.1506 66.7388 71.5404 67.3746 72.043 67.9157C72.5456 68.4568 73.1509 68.8925 73.8235 69.1973C74.4962 69.5021 75.2228 69.6699 75.961 69.6911L76.0343 69.5262C76.4153 68.0829 75.7339 66.515 74.6166 65.5406Z" fill="#4E878C"/>
<path d="M67.2461 69.4129C67.2461 69.4129 69.8104 78.2047 74.9023 81.3185C81.5549 85.3848 91.5556 79.9741 92.4055 77.8457C93.2554 75.7174 94.7427 67.0757 94.7427 67.0757L67.2461 69.4129Z" fill="#FBFFFE"/>
<path d="M67.2463 69.4126H67.3746L67.7665 69.3723L69.2978 69.2331L75.0345 68.7166L94.7356 66.9985H94.8565L94.8345 67.1158C94.3656 69.7753 93.8528 72.5887 93.186 75.4607C93.0395 76.0688 92.8966 76.6696 92.7135 77.2631C92.6695 77.4132 92.6182 77.5598 92.5669 77.7063C92.5376 77.7796 92.5157 77.8528 92.4863 77.9261C92.457 77.9994 92.4131 78.0726 92.3728 78.1422C92.1979 78.4027 91.9925 78.6412 91.761 78.8529C90.8527 79.6447 89.8424 80.3112 88.7571 80.8348C87.7192 81.3518 86.6396 81.7807 85.5298 82.1169C84.4679 82.4461 83.3776 82.6755 82.2731 82.8019C80.2234 83.0799 78.1367 82.8355 76.2067 82.0913C74.5549 81.3706 73.1093 80.2486 72.0013 78.8273C71.0727 77.6823 70.2604 76.4478 69.5762 75.142C69.0568 74.16 68.5897 73.1512 68.1768 72.1198C67.8325 71.2736 67.6053 70.5995 67.4442 70.1416C67.3672 69.9145 67.3159 69.7387 67.283 69.6214C67.25 69.5042 67.2354 69.4346 67.2354 69.4383C67.2607 69.4956 67.2827 69.5543 67.3013 69.6141C67.3416 69.7387 67.4039 69.9108 67.4808 70.1306C67.642 70.5812 67.8801 71.2516 68.2354 72.0905C68.6589 73.1142 69.1346 74.1156 69.6604 75.0907C70.3486 76.389 71.1633 77.616 72.0929 78.754C73.2037 80.1377 74.6396 81.225 76.2727 81.9191C78.1801 82.6463 80.2401 82.8806 82.2621 82.6004C84.4983 82.3214 86.6696 81.6584 88.6802 80.6406C89.7505 80.1264 90.7462 79.4695 91.6401 78.6881C91.8573 78.4867 92.0514 78.2619 92.2189 78.0177L92.3178 77.8272C92.3471 77.7576 92.3691 77.6843 92.3948 77.6147C92.4424 77.4719 92.4973 77.329 92.5376 77.1825C92.7171 76.5963 92.86 75.9956 93.0102 75.3911C93.6696 72.5264 94.1898 69.713 94.6587 67.0571L94.7576 67.167L75.1187 68.7935L69.3564 69.2551L67.8032 69.376L67.3965 69.4053L67.2463 69.4126Z" fill="#222222"/>
<path d="M73.9833 79.4098C73.8691 79.3307 73.7646 79.2385 73.6719 79.135C73.4814 78.9519 73.214 78.6735 72.8916 78.3181C72.0597 77.3898 71.2969 76.4017 70.6094 75.3619C69.9194 74.3242 69.3072 73.2369 68.7778 72.1089C68.5763 71.6729 68.4114 71.3176 68.3272 71.0685C68.2685 70.942 68.2243 70.8093 68.1953 70.6729C68.2782 70.7856 68.346 70.9088 68.3968 71.0392C68.5104 71.2773 68.6825 71.6253 68.8987 72.0466C69.4642 73.152 70.0916 74.2246 70.7779 75.2593C71.465 76.2899 72.2086 77.2817 73.0052 78.2302C73.3093 78.5965 73.562 78.8859 73.7379 79.0838C73.8329 79.1818 73.9153 79.2913 73.9833 79.4098Z" fill="#FBFFFE"/>
<path d="M93.314 68.552C93.2302 68.576 93.1444 68.592 93.0576 68.5996L92.3249 68.6985C91.6912 68.7864 90.7717 68.8963 89.6324 69.0245C87.3575 69.281 84.2071 69.5923 80.7233 69.8598C77.2395 70.1272 74.0744 70.2957 71.7885 70.3873C70.6419 70.4312 69.7188 70.4642 69.0777 70.4752H68.3451C68.2585 70.4808 68.1716 70.4808 68.085 70.4752C68.169 70.4554 68.2551 70.4455 68.3414 70.4459L69.0741 70.3983L71.7812 70.2481C74.0671 70.1199 77.2248 69.9294 80.7086 69.6656C84.1924 69.4018 87.3392 69.1088 89.6177 68.8853L92.3176 68.6216L93.0502 68.5556C93.1378 68.5453 93.2262 68.5441 93.314 68.552Z" fill="#FBFFFE"/>
<path d="M118.811 78.6442L116.979 88.1431L98.0985 78.1167L93.8564 82.6006C93.8564 82.6006 111.829 99.0377 115.594 102.042C119.36 105.045 124.485 101.576 125.983 96.0008C127.482 90.4253 129.471 83.227 130.039 78.549L118.811 78.6442Z" fill="#FFBE9D"/>
<path d="M99.7175 79.2889C99.7175 79.2889 94.2628 75.1494 92.325 75.5706C91.7492 75.6851 91.1887 75.8658 90.6545 76.1091C90.0163 76.4253 89.3153 76.5943 88.6031 76.6037C87.8887 76.6037 86.9839 76.6037 86.1084 76.5597C84.4306 76.4828 83.9104 76.926 83.7785 77.5708C83.7461 77.7164 83.7453 77.8673 83.7761 78.0133C83.8069 78.1593 83.8686 78.297 83.9572 78.4171C84.0457 78.5372 84.1589 78.637 84.2893 78.7096C84.4196 78.7823 84.564 78.8261 84.7127 78.8383C85.7992 78.8971 86.8789 79.0478 87.94 79.2889C88.9511 79.6186 87.7678 79.4097 86.504 80.2303C85.2402 81.0509 80.0969 81.2194 80.0969 81.2194L77.2982 79.0801C77.1347 78.9542 76.9343 78.8858 76.7281 78.8854C76.5218 78.885 76.3211 78.9526 76.1572 79.0778C75.9932 79.2029 75.8751 79.3787 75.8211 79.5778C75.7671 79.7769 75.7803 79.9882 75.8585 80.179L75.8805 80.223L75.6241 79.9629C75.4933 79.8332 75.3214 79.7531 75.138 79.7365C74.9546 79.7199 74.7711 79.7678 74.6192 79.8719C74.4673 79.9761 74.3565 80.13 74.3058 80.3071C74.2552 80.4842 74.268 80.6734 74.3419 80.8421C74.3494 80.8523 74.3555 80.8633 74.3602 80.8751L76.6388 83.073L80.0969 84.5054L86.0827 83.9156C86.0827 83.9156 90.4787 82.3147 91.3102 82.062C92.1418 81.8092 94.9405 82.6041 97.0799 84.9926L99.7175 79.2889Z" fill="#FFBE9D"/>
<path d="M121.521 96.4112C121.492 96.4112 121.335 95.8983 121.027 95.0814C120.624 94.0136 120.149 92.9745 119.606 91.9713C119.055 90.9719 118.436 90.0122 117.752 89.0992C117.228 88.3959 116.876 87.9819 116.898 87.96C117.002 88.0368 117.096 88.1267 117.177 88.2274C117.345 88.4032 117.58 88.6743 117.858 89.015C118.579 89.9118 119.218 90.8704 119.77 91.8797C120.324 92.8879 120.786 93.9434 121.152 95.0338C121.291 95.4514 121.393 95.7957 121.448 96.0338C121.492 96.1551 121.517 96.2824 121.521 96.4112Z" fill="#EB996E"/>
<path d="M86.1632 83.9118C85.9966 83.9563 85.826 83.9845 85.654 83.9961C85.3243 84.0364 84.8444 84.0913 84.2546 84.1463C83.075 84.2708 81.4302 84.3698 79.6206 84.443C79.1724 84.4796 78.7213 84.4549 78.2798 84.3698C77.8696 84.2665 77.4805 84.093 77.1295 83.8569C76.5542 83.4527 76.0366 82.9721 75.591 82.4282C75.2063 81.974 74.9132 81.593 74.7081 81.3292C74.5922 81.2004 74.4891 81.0605 74.4004 80.9116C74.536 81.0195 74.6589 81.1424 74.7667 81.2779L75.6972 82.333C76.1467 82.8548 76.6627 83.3155 77.2321 83.703C77.5685 83.9244 77.9401 84.0867 78.3311 84.1829C78.7576 84.2596 79.1923 84.2805 79.6242 84.2452C81.4559 84.1719 83.0677 84.095 84.2546 84.0071L85.6577 83.9155C85.8257 83.8981 85.9949 83.8969 86.1632 83.9118Z" fill="#EB996E"/>
<path d="M84.6981 83.7692C84.5778 83.7945 84.4545 83.8031 84.3318 83.7949H83.3647C82.5478 83.7949 81.4085 83.7949 80.1227 83.7583H80.1044C79.9212 83.718 79.738 83.674 79.5292 83.6191C79.1867 83.5386 78.8557 83.4155 78.5438 83.2527C78.2543 83.0868 77.9963 82.871 77.7818 82.6153C77.3862 82.1354 77.0492 81.6995 76.7671 81.3258C76.485 80.9522 76.2762 80.6408 76.1334 80.421C76.052 80.3079 75.9855 80.1848 75.9355 80.0547C76.0324 80.1495 76.1196 80.2538 76.1956 80.3661C76.3532 80.5712 76.5839 80.8716 76.8733 81.2306L77.9137 82.4908C78.3559 82.9731 78.9371 83.3059 79.5768 83.4432C79.771 83.4945 79.9652 83.5385 80.1447 83.5788H80.1263C81.4122 83.6081 82.5514 83.6447 83.3683 83.6813L84.3318 83.729C84.4553 83.7227 84.5789 83.7363 84.6981 83.7692Z" fill="#EB996E"/>
<path d="M91.6256 79.9483C91.6256 79.9996 90.8929 79.8165 90.01 79.6956C89.1272 79.5747 88.3835 79.5637 88.3799 79.5087C88.9267 79.4027 89.4888 79.4027 90.0357 79.5087C90.589 79.5514 91.1289 79.7007 91.6256 79.9483Z" fill="#EB996E"/>
<path d="M115.023 29.4757C114.925 29.501 114.823 29.501 114.726 29.4757C114.461 29.4298 114.21 29.3233 113.993 29.1644C113.658 28.924 113.417 28.5742 113.312 28.1753C113.191 27.7357 113.209 27.2301 113.056 26.7759C112.985 26.5584 112.839 26.3729 112.645 26.252C112.449 26.1481 112.237 26.074 112.019 26.0323C111.808 25.9861 111.603 25.9135 111.411 25.8161C111.242 25.729 111.097 25.6035 110.986 25.4498C110.836 25.2258 110.726 24.978 110.66 24.7171C110.612 24.534 110.594 24.4314 110.608 24.4277C110.66 24.5099 110.701 24.5986 110.729 24.6915C110.821 24.9335 110.945 25.1625 111.096 25.3729C111.2 25.5094 111.334 25.6208 111.488 25.6989C111.671 25.7833 111.864 25.8448 112.063 25.8821C112.3 25.924 112.53 26.0019 112.744 26.1128C112.977 26.2546 113.152 26.4738 113.239 26.7319C113.411 27.2485 113.378 27.743 113.484 28.1533C113.574 28.5204 113.784 28.8469 114.081 29.0801C114.362 29.2805 114.683 29.4157 115.023 29.4757Z" fill="#4E878C"/>
<path d="M121.877 23.4165C121.923 23.47 121.954 23.5343 121.968 23.6033C122.025 23.8009 122.017 24.0112 121.946 24.2041C121.897 24.3592 121.809 24.4989 121.689 24.6093C121.57 24.7198 121.424 24.7973 121.265 24.8342C121.055 24.8827 120.835 24.866 120.635 24.7861C120.434 24.7062 120.263 24.5671 120.144 24.3873H120.283C120.178 24.6909 120.005 24.9662 119.776 25.1917C119.547 25.4173 119.27 25.587 118.964 25.6877C118.621 25.8046 118.251 25.8212 117.898 25.7354C117.529 25.6389 117.193 25.4454 116.924 25.1749C116.642 24.8908 116.448 24.5306 116.367 24.1382L116.521 24.1895C115.931 24.6924 115.218 25.031 114.455 25.1712C113.849 25.2884 113.226 25.281 112.623 25.1492C112.224 25.0673 111.84 24.924 111.484 24.7243C111.388 24.6731 111.296 24.6143 111.209 24.5485C111.147 24.5082 111.118 24.4825 111.121 24.4789C111.601 24.7325 112.114 24.9175 112.645 25.0283C113.233 25.1361 113.837 25.1286 114.422 25.0064C115.152 24.8628 115.833 24.5321 116.397 24.0466L116.517 23.9404L116.55 24.1015C116.623 24.4577 116.801 24.7842 117.06 25.0393C117.303 25.2861 117.608 25.4632 117.942 25.5522C118.262 25.6303 118.597 25.6176 118.91 25.5156C119.19 25.4248 119.446 25.2715 119.659 25.0671C119.872 24.8628 120.035 24.6128 120.137 24.336L120.188 24.1785L120.276 24.3213C120.378 24.4775 120.524 24.5996 120.695 24.6721C120.867 24.7446 121.057 24.764 121.239 24.728C121.381 24.6973 121.512 24.6315 121.622 24.5368C121.731 24.4421 121.815 24.3214 121.866 24.1858C121.937 24.0094 121.957 23.8164 121.924 23.629C121.904 23.5593 121.888 23.4883 121.877 23.4165Z" fill="#4E878C"/>
<path d="M118.517 19.5996C118.517 19.5996 118.58 19.5996 118.653 19.6765C118.703 19.7348 118.739 19.8038 118.758 19.8781C118.777 19.9524 118.778 20.0301 118.763 20.1051C118.732 20.2218 118.67 20.3279 118.584 20.4119C118.497 20.4958 118.389 20.5545 118.272 20.5814C117.978 20.6436 117.673 20.6142 117.396 20.4971L117.503 20.3836C117.755 20.9477 117.404 21.7023 116.77 22.0284C116.297 22.2486 115.779 22.3577 115.257 22.3471C114.834 22.3818 114.408 22.3384 114.001 22.2189C113.723 22.125 113.485 21.9421 113.323 21.6987C113.213 21.5228 113.206 21.4056 113.217 21.4056C113.228 21.4056 113.264 21.5082 113.381 21.6584C113.556 21.8639 113.786 22.0141 114.045 22.0906C114.439 22.1862 114.846 22.2135 115.25 22.1712C115.743 22.1741 116.231 22.0678 116.678 21.8599C117.232 21.5705 117.536 20.9074 117.338 20.4495L117.257 20.2663L117.444 20.3396C117.688 20.451 117.959 20.4892 118.224 20.4495C118.322 20.4314 118.412 20.388 118.488 20.3237C118.563 20.2594 118.62 20.1765 118.653 20.0832C118.669 20.0218 118.673 19.9577 118.665 19.8948C118.656 19.8318 118.634 19.7713 118.602 19.7168C118.561 19.6326 118.51 19.6106 118.517 19.5996Z" fill="#4E878C"/>
</svg>
