<svg width="178" height="147" viewBox="0 0 178 147" fill="none" xmlns="http://www.w3.org/2000/svg">
<g clip-path="url(#clip0_409_3557)">
<path d="M100.151 135.594C100.342 129.245 95.3513 123.944 89.0032 123.753C82.6551 123.562 77.3539 128.553 77.1627 134.901C76.9714 141.249 81.9625 146.55 88.3106 146.742C94.6587 146.933 99.9599 141.942 100.151 135.594Z" fill="#F8AC46"/>
<path d="M64.4004 105.8C70.8004 99.4 80.3004 95.3 88.5004 95.3H89.0004C97.2004 95.3 106.6 99.4 113.1 105.8C115.8 108.5 120.2 108.5 122.9 105.8C125.6 103.1 125.6 98.7 122.9 96C113.9 87 100.9 81.5 89.1004 81.5H88.6004C76.8004 81.5 63.8004 87.1 54.8004 96C52.1004 98.7 52.1004 103.1 54.8004 105.8C56.2004 107.2 57.9004 107.9 59.7004 107.9C61.2004 107.8 63.0004 107.2 64.4004 105.8Z" fill="#F8AC46"/>
<path d="M150.6 76.9998C153.3 74.2998 153.3 69.8998 150.6 67.1998C133.7 50.1998 111.8 40.7998 89 40.7998C66.2 40.7998 44.3 50.1998 27.4 67.1998C24.7 69.8998 24.7 74.2998 27.4 76.9998C30.1 79.6998 34.5 79.6998 37.2 76.9998C51.5 62.5998 69.9 54.6998 89 54.6998C108.1 54.6998 126.5 62.5998 140.7 76.9998C142.1 78.3998 143.8 79.0998 145.6 79.0998C147.4 78.9998 149.2 78.2998 150.6 76.9998Z" fill="#F8AC46"/>
<path d="M175.8 48.1999C178.6 45.5999 178.8 41.1999 176.1 38.3999C153.3 13.8999 122.3 0.399902 89.0002 0.399902C55.7002 0.399902 24.7002 13.8999 1.90024 38.3999C-0.699761 41.1999 -0.599761 45.5999 2.20024 48.1999C5.00024 50.7999 9.40024 50.6999 12.0002 47.8999C32.2002 26.1999 59.5002 14.2999 89.0002 14.2999C118.4 14.2999 145.8 26.1999 166 47.8999C167.4 49.3999 169.2 50.0999 171.1 50.0999C172.7 50.0999 174.4 49.4999 175.8 48.1999Z" fill="#EEEEEE"/>
</g>
<defs>
<clipPath id="clip0_409_3557">
<rect width="178" height="146.4" fill="white" transform="translate(0 0.399902)"/>
</clipPath>
</defs>
</svg>
