<svg width="178" height="147" viewBox="0 0 178 147" fill="none" xmlns="http://www.w3.org/2000/svg">
<g clip-path="url(#clip0_409_3555)">
<path d="M100.151 135.194C100.342 128.846 95.3513 123.544 89.0032 123.353C82.6551 123.162 77.3539 128.153 77.1627 134.501C76.9714 140.849 81.9625 146.15 88.3106 146.342C94.6587 146.533 99.9599 141.542 100.151 135.194Z" fill="#F8AC46"/>
<path d="M64.4004 105.4C70.8004 99.0001 80.3004 94.9001 88.5004 94.9001H89.0004C97.2004 94.9001 106.6 99.0001 113.1 105.4C115.8 108.1 120.2 108.1 122.9 105.4C125.6 102.7 125.6 98.3001 122.9 95.6001C113.9 86.6001 100.9 81.1001 89.1004 81.1001H88.6004C76.8004 81.1001 63.8004 86.7001 54.8004 95.6001C52.1004 98.3001 52.1004 102.7 54.8004 105.4C56.2004 106.8 57.9004 107.5 59.7004 107.5C61.2004 107.4 63.0004 106.8 64.4004 105.4Z" fill="#F8AC46"/>
<path d="M150.6 76.5999C153.3 73.8999 153.3 69.4999 150.6 66.7999C133.7 49.7999 111.8 40.3999 89 40.3999C66.2 40.3999 44.3 49.7999 27.4 66.7999C24.7 69.4999 24.7 73.8999 27.4 76.5999C30.1 79.2999 34.5 79.2999 37.2 76.5999C51.5 62.1999 69.9 54.2999 89 54.2999C108.1 54.2999 126.5 62.1999 140.7 76.5999C142.1 77.9999 143.8 78.6999 145.6 78.6999C147.4 78.5999 149.2 77.8999 150.6 76.5999Z" fill="#F8AC46"/>
<path d="M175.8 47.8C178.6 45.2 178.8 40.8 176.1 38C153.3 13.5 122.3 0 89.0002 0C55.7002 0 24.7002 13.5 1.90024 38C-0.699761 40.8 -0.599761 45.2 2.20024 47.8C5.00024 50.4 9.40024 50.3 12.0002 47.5C32.2002 25.8 59.5002 13.9 89.0002 13.9C118.4 13.9 145.8 25.8 166 47.5C167.4 49 169.2 49.7 171.1 49.7C172.7 49.7 174.4 49.1 175.8 47.8Z" fill="#F8AC46"/>
</g>
<defs>
<clipPath id="clip0_409_3555">
<rect width="178" height="146.4" fill="white"/>
</clipPath>
</defs>
</svg>
