<svg width="196" height="160" viewBox="0 0 196 160" fill="none" xmlns="http://www.w3.org/2000/svg">
<path d="M180.555 28.0723C176.093 18.9613 169.149 10.7583 159.937 6.49013C144.146 -0.83991 124.564 5.06448 111.772 16.8996C104.982 23.1856 99.5117 31.0684 91.5587 35.8103C78.0962 43.8378 60.6287 41.1093 46.2362 47.3296C33.2123 52.9576 23.9434 65.9464 21.7895 79.9704C19.6357 93.9945 24.2811 108.698 33.2605 119.687C42.24 130.675 55.2814 138.023 69.1212 141.142L85.5447 141.62C101.356 142.14 117.095 139.276 131.709 133.22C146.159 127.17 159.187 118.134 169.097 106.062C186.709 84.6027 192.762 53.0059 180.555 28.0723Z" fill="#EBEBEB"/>
<path d="M190.871 159.579C190.871 159.645 148.136 159.693 95.4397 159.693C42.7432 159.693 0 159.662 0 159.579C0 159.496 42.7213 159.465 95.4397 159.465C148.158 159.465 190.871 159.535 190.871 159.579Z" fill="#222222"/>
<path d="M137.253 83.6902C137.579 85.0148 137.541 86.4028 137.143 87.7076C136.746 89.0125 136.003 90.1857 134.994 91.1036C133.656 92.288 131.923 92.9723 130.695 94.2751C129.935 95.1415 129.412 96.19 129.178 97.3186C128.943 98.4471 129.005 99.6172 129.357 100.715C129.73 101.804 130.32 102.807 131.091 103.662C131.863 104.517 132.799 105.206 133.845 105.689C135.268 106.354 136.829 106.673 138.4 106.62C139.97 106.566 141.506 106.142 142.881 105.382C146.272 103.465 148.246 99.618 148.746 95.7534C149.246 91.8888 148.461 87.9759 147.43 84.2166" fill="#222222"/>
<path d="M180.02 151.837C183.529 151.262 186.819 152.332 190.293 153.1C191.217 153.374 192.192 153.426 193.14 153.253C194.645 152.867 195.715 151.402 195.947 149.867C196.135 148.522 195.823 147.155 195.07 146.024C194.768 145.537 194.356 145.127 193.868 144.827C193.345 144.565 192.773 144.415 192.188 144.388C190.059 144.217 187.923 144.62 186.003 145.555C184.088 146.486 182.351 147.745 180.871 149.275C180.134 150.012 180.353 150.858 180.028 151.85" fill="#222222"/>
<path d="M108.873 95.1963C108.31 91.85 108.378 88.4281 109.074 85.107C109.369 83.4831 109.964 81.9284 110.829 80.523C111.124 79.9989 111.573 79.5778 112.114 79.3167C112.508 79.186 112.93 79.1672 113.334 79.2625C113.737 79.3578 114.106 79.5633 114.4 79.8562C114.775 80.2464 115.062 80.7117 115.244 81.2214C115.425 81.7311 115.496 82.2736 115.453 82.8128C115.374 83.8911 115.11 84.9478 114.672 85.9361C113.316 89.4015 111.162 92.2791 108.86 95.1919" fill="#222222"/>
<path d="M176.864 107.878C177.658 108.444 195.288 146.419 195.288 146.419C193.87 145.813 192.3 145.66 190.792 145.98L189.836 146.235C188.124 146.695 186.501 147.436 185.032 148.428L180.001 151.832C179.802 151.718 179.633 151.557 179.509 151.364C179.384 151.171 179.308 150.951 179.286 150.722V150.578L165.617 127.118L176.864 107.878Z" fill="#F8AC46"/>
<path d="M110.668 47.4216L115.37 74.1493C116.883 77.7463 134.531 99.5391 134.531 99.5391L128.697 118.287L105.518 86.5942C103.365 84.2928 102.195 81.2433 102.254 78.0929L103.158 49.536L110.668 47.4216Z" fill="#FFBE9D"/>
<path d="M135.693 95.3499L147.795 96.2667L158.35 97.9029C158.35 97.9029 176.866 102.768 176.866 104.794C176.866 105.47 171.812 121.564 168.97 131.206C168.273 133.548 167.705 135.926 167.268 138.33L176.866 159.579H131.319V140.098C131.319 140.098 128.249 114.511 128.788 111.014C129.328 107.518 135.693 95.3499 135.693 95.3499Z" fill="#F8AC46"/>
<path d="M104.925 36.6219C104.996 33.8995 105.275 31.1866 105.758 28.5066C105.824 28.125 105.982 27.6644 106.364 27.6293C106.837 27.5679 107.079 28.1776 107.14 28.6514C107.561 31.8834 107.426 35.1636 106.741 38.3502" fill="#EB996E"/>
<path d="M110.32 93.2181C115.513 88.5771 115.689 80.5364 115.246 74.1363C115.159 73.6689 115.23 73.186 115.448 72.7633C115.943 72.057 117.15 72.3246 117.641 73.0353C118.132 73.7459 118.08 74.6802 118.053 75.54C118.321 74.8118 119.461 74.8162 119.997 75.3777C120.532 75.9392 120.624 76.7858 120.685 77.571L120.856 79.7117L136.03 94.1875C136.03 94.1875 136.446 92.8716 137.561 93.6304C138.675 94.3893 139.394 95.9905 139.394 95.9905L128.704 119.323L108.863 95.1965C109.245 94.4665 109.736 93.7993 110.32 93.2181Z" fill="#F8AC46"/>
<path d="M130.911 109.365C129.328 111.384 128.145 113.688 127.428 116.151C126.713 118.631 126.791 121.272 127.652 123.705C128.317 125.388 129.408 126.87 130.817 128.007C132.226 129.143 133.906 129.895 135.692 130.189" fill="#F8AC46"/>
<path d="M180.019 151.836L179.444 159.579H190.687L193.319 145.871C189.894 145.679 186.517 146.738 183.813 148.849L180.019 151.836Z" fill="#FFBE9D"/>
<path d="M115.605 91.5027C115.669 91.2897 115.751 91.0827 115.851 90.8842C116.027 90.4981 116.263 89.9279 116.531 89.2172C116.799 88.5066 117.084 87.6468 117.351 86.6818C117.629 85.6285 117.851 84.561 118.014 83.4839C118.165 82.4063 118.258 81.3212 118.29 80.2334C118.29 79.2289 118.29 78.3253 118.229 77.5664C118.167 76.8075 118.11 76.1978 118.053 75.7766C118.015 75.5578 117.995 75.3363 117.992 75.1143C118.063 75.3251 118.113 75.5426 118.141 75.7635C118.255 76.3554 118.338 76.9528 118.391 77.5532C118.477 78.4454 118.513 79.3416 118.501 80.2378C118.467 82.4352 118.149 84.619 117.553 86.7344C117.308 87.5967 117.015 88.4446 116.676 89.2743C116.386 89.9849 116.127 90.5464 115.926 90.9236C115.834 91.1244 115.727 91.318 115.605 91.5027Z" fill="#222222"/>
<path d="M118.909 87.4278C119.052 87.0505 119.216 86.6815 119.4 86.3224C120.168 84.542 120.614 82.6394 120.716 80.7031C120.716 80.3001 120.738 79.8974 120.782 79.4968C120.869 79.8943 120.901 80.3015 120.879 80.7075C120.864 82.6749 120.414 84.6146 119.563 86.3882C119.395 86.764 119.175 87.114 118.909 87.4278Z" fill="#222222"/>
<path d="M136.727 99.5612C136.692 99.5392 136.876 99.2541 136.982 98.7365C137.105 98.06 137.066 97.364 136.868 96.7055C136.659 96.0426 136.406 95.3948 136.109 94.7666C135.97 94.5065 135.867 94.2292 135.802 93.9419C135.975 94.1764 136.123 94.4295 136.24 94.6964C136.588 95.3143 136.868 95.9671 137.078 96.6441C137.288 97.3371 137.305 98.0742 137.127 98.776C137.071 99.0705 136.933 99.343 136.727 99.5612Z" fill="#222222"/>
<path d="M134.091 130.46C134.022 130.432 133.958 130.395 133.898 130.351L133.38 130.008C132.942 129.706 132.288 129.263 131.525 128.662C130.623 127.967 129.798 127.177 129.064 126.306C128.161 125.228 127.511 123.961 127.16 122.599C126.825 121.237 126.739 119.825 126.906 118.432C127.04 117.302 127.292 116.189 127.656 115.111C127.897 114.385 128.177 113.672 128.494 112.975C128.608 112.73 128.696 112.537 128.761 112.414C128.79 112.345 128.827 112.281 128.871 112.221C128.788 112.489 128.69 112.753 128.577 113.01C128.38 113.51 128.095 114.239 127.809 115.16C127.473 116.233 127.24 117.336 127.116 118.454C126.964 119.822 127.053 121.206 127.38 122.542C127.721 123.874 128.352 125.114 129.226 126.175C129.944 127.04 130.748 127.831 131.626 128.535C132.372 129.149 132.999 129.609 133.433 129.938L133.924 130.316C134.038 130.403 134.095 130.451 134.091 130.46Z" fill="#222222"/>
<path d="M158.94 134.799C158.88 134.831 158.815 134.855 158.747 134.869C158.616 134.904 158.427 134.97 158.177 135.018C157.47 135.171 156.751 135.258 156.028 135.277C153.617 135.351 151.24 134.702 149.201 133.412C147.163 132.123 145.558 130.253 144.592 128.043C144.297 127.383 144.067 126.695 143.903 125.991C143.842 125.74 143.82 125.552 143.793 125.411C143.778 125.344 143.771 125.275 143.772 125.205C143.861 125.453 143.935 125.707 143.991 125.964C144.689 128.613 146.252 130.952 148.433 132.61C150.613 134.268 153.285 135.149 156.023 135.115C156.739 135.111 157.454 135.05 158.16 134.93C158.417 134.873 158.678 134.829 158.94 134.799Z" fill="#222222"/>
<path d="M165.92 143.348C165.859 143.348 166.438 140.905 167.236 137.931C168.035 134.956 168.693 132.557 168.75 132.575C168.807 132.592 168.232 135.014 167.456 137.988C166.679 140.962 165.982 143.348 165.92 143.348Z" fill="#222222"/>
<path d="M172.04 138.177C171.987 138.207 170.224 135.325 168.092 131.737C165.96 128.149 164.293 125.214 164.35 125.183C164.407 125.153 166.166 128.03 168.298 131.619C170.43 135.207 172.114 138.141 172.04 138.177Z" fill="#222222"/>
<path d="M188.879 145.278C188.879 145.322 188.239 145.375 187.239 145.629C186.654 145.778 186.081 145.967 185.523 146.195C184.843 146.483 184.186 146.823 183.558 147.213C182.939 147.612 182.352 148.059 181.804 148.551C181.356 148.96 180.939 149.399 180.553 149.867C179.895 150.661 179.571 151.218 179.531 151.183C179.584 151.041 179.653 150.905 179.737 150.779C179.941 150.42 180.171 150.077 180.426 149.753C180.801 149.268 181.213 148.813 181.659 148.393C182.21 147.882 182.806 147.421 183.44 147.016C184.079 146.619 184.751 146.278 185.449 145.998C186.018 145.773 186.605 145.596 187.203 145.467C187.605 145.374 188.012 145.313 188.423 145.283C188.574 145.26 188.728 145.258 188.879 145.278Z" fill="#222222"/>
<path d="M191.03 142.638C191.03 142.686 190.323 142.598 189.196 142.695C188.538 142.754 187.887 142.868 187.248 143.037C185.683 143.452 184.22 144.186 182.949 145.191C182.433 145.602 181.952 146.055 181.511 146.546C180.761 147.388 180.41 148.002 180.37 147.981C180.429 147.825 180.507 147.678 180.603 147.542C180.697 147.373 180.802 147.21 180.918 147.055C181.065 146.843 181.221 146.638 181.388 146.441C181.819 145.926 182.298 145.453 182.818 145.028C183.461 144.513 184.155 144.063 184.888 143.686C185.627 143.325 186.4 143.04 187.196 142.835C187.848 142.671 188.515 142.57 189.187 142.532C189.443 142.519 189.699 142.519 189.955 142.532C190.15 142.533 190.345 142.545 190.538 142.567C190.704 142.57 190.869 142.594 191.03 142.638Z" fill="#222222"/>
<g opacity="0.3">
<path d="M144.242 126.139C143.212 128.096 144.071 130.482 145.015 132.487C145.747 134.04 146.563 135.615 147.897 136.698C148.552 137.234 149.311 137.628 150.126 137.856C150.941 138.085 151.794 138.142 152.632 138.026C153.47 137.909 154.275 137.62 154.997 137.177C155.718 136.734 156.34 136.147 156.823 135.452C154.027 135.411 151.309 134.524 149.026 132.909C146.743 131.294 145.002 129.026 144.032 126.403" fill="black"/>
</g>
<g opacity="0.3">
<path d="M164.382 125.184C163.593 127.065 164.189 129.64 165.014 131.505C165.839 133.369 166.716 135.453 166.053 137.387C165.883 137.731 165.794 138.109 165.795 138.493C165.839 138.87 166.233 139.234 166.589 139.058C166.772 138.929 166.899 138.735 166.944 138.515C167.567 136.637 168.191 134.761 168.817 132.886" fill="black"/>
</g>
<path d="M122.884 100.403C122.954 99.2252 123.101 98.053 123.322 96.8939C123.471 95.7284 123.696 94.5738 123.994 93.4373C123.927 94.6156 123.781 95.7881 123.555 96.9466C123.407 98.1122 123.183 99.267 122.884 100.403Z" fill="#FBFFFE"/>
<path d="M118.264 99.4337C118.207 99.4688 117.452 98.416 116.408 97.2053C115.364 95.9946 114.443 95.0866 114.487 95.0383C115.273 95.6135 115.979 96.2923 116.584 97.0562C117.244 97.7725 117.809 98.5717 118.264 99.4337Z" fill="#FBFFFE"/>
<path d="M122.23 88.1339C122.098 88.4166 121.931 88.6818 121.734 88.9235C121.401 89.3929 120.914 90.0202 120.348 90.6782C119.782 91.3362 119.238 91.9284 118.83 92.3319C118.626 92.5663 118.391 92.7728 118.133 92.946C118.084 92.9022 119.045 91.8625 120.172 90.529C121.3 89.1955 122.177 88.0769 122.23 88.1339Z" fill="#FBFFFE"/>
<path d="M120.681 82.6111C120.615 82.6374 120.365 82.0803 119.883 81.5232C119.4 80.9661 118.883 80.6459 118.918 80.5801C119.374 80.7114 119.774 80.9907 120.054 81.3741C120.391 81.7077 120.611 82.1417 120.681 82.6111Z" fill="#FBFFFE"/>
<path d="M116.68 86.015C116.322 86.1838 115.935 86.2835 115.54 86.3089C115.156 86.4091 114.757 86.4329 114.364 86.3791C115.106 86.1101 115.892 85.9865 116.68 86.015Z" fill="#FBFFFE"/>
<path d="M126.774 90.8886C126.784 90.2058 126.735 89.5234 126.629 88.8488C126.447 88.1901 126.208 87.5487 125.914 86.9319C126.412 87.443 126.738 88.0959 126.848 88.8006C127.036 89.488 127.01 90.2163 126.774 90.8886Z" fill="#FBFFFE"/>
<path d="M132.167 96.6878C131.358 95.3963 130.271 94.3009 128.986 93.4812C129.712 93.7626 130.37 94.1936 130.918 94.746C131.466 95.2985 131.891 95.9601 132.167 96.6878Z" fill="#FBFFFE"/>
<path d="M123.51 106.751C122.204 107.24 120.757 107.191 119.487 106.615C119.509 106.549 120.365 106.825 121.492 106.856C122.619 106.887 123.492 106.685 123.51 106.751Z" fill="#FBFFFE"/>
<path d="M127.572 108.834C127.51 108.808 127.852 107.799 128.138 106.518C128.423 105.237 128.55 104.176 128.616 104.185C128.661 104.987 128.575 105.792 128.361 106.567C128.222 107.36 127.955 108.126 127.572 108.834Z" fill="#FBFFFE"/>
<path d="M136.447 109.172C135.753 108.586 135.112 107.94 134.53 107.242C133.888 106.596 133.301 105.898 132.775 105.154C133.467 105.743 134.106 106.391 134.688 107.089C135.329 107.735 135.918 108.432 136.447 109.172Z" fill="#FBFFFE"/>
<path d="M140.579 119.424C140.053 119.042 139.573 118.6 139.149 118.108C138.674 117.666 138.25 117.171 137.886 116.634C138.412 117.016 138.892 117.457 139.316 117.95C139.796 118.388 140.22 118.883 140.579 119.424Z" fill="#FBFFFE"/>
<path d="M132.898 120.402C132.394 120.939 131.8 121.384 131.144 121.718C130.526 122.129 129.84 122.426 129.117 122.595C129.117 122.534 129.995 122.156 131.03 121.538C132.065 120.919 132.855 120.349 132.898 120.402Z" fill="#FBFFFE"/>
<path d="M136.434 130.153C136.368 130.153 136.632 128.986 136.763 127.543C136.895 126.1 136.855 124.911 136.921 124.911C137.082 125.779 137.106 126.668 136.991 127.543C136.948 128.437 136.759 129.319 136.434 130.153Z" fill="#FBFFFE"/>
<path d="M149.729 122.227C149.005 121.783 148.362 121.218 147.83 120.556C147.243 119.943 146.77 119.232 146.431 118.454C146.488 118.415 147.089 119.367 148.001 120.406C148.913 121.446 149.773 122.17 149.729 122.227Z" fill="#FBFFFE"/>
<path d="M154.585 126.363C154.532 126.324 155.199 125.412 155.945 124.24C156.691 123.069 157.239 122.086 157.296 122.117C157.011 122.915 156.62 123.67 156.133 124.363C155.712 125.098 155.191 125.772 154.585 126.363Z" fill="#FBFFFE"/>
<path d="M153.874 116.239C152.376 115.99 150.907 115.593 149.487 115.054C150.244 115.145 150.99 115.306 151.716 115.537C152.457 115.697 153.18 115.933 153.874 116.239Z" fill="#FBFFFE"/>
<path d="M150.335 134.057C150.257 133.367 150.257 132.669 150.335 131.978C150.34 131.283 150.42 130.59 150.572 129.912C150.65 130.603 150.65 131.301 150.572 131.991C150.567 132.687 150.488 133.379 150.335 134.057Z" fill="#FBFFFE"/>
<path d="M153.396 140.159C153.626 139.451 153.811 138.728 153.949 137.996C154.01 137.254 154.022 136.508 153.984 135.764C154.211 136.494 154.275 137.264 154.174 138.022C154.072 138.779 153.807 139.506 153.396 140.15V140.159Z" fill="#FBFFFE"/>
<path d="M145.461 138.813C145.238 137.297 145.534 135.751 146.303 134.426C146.365 134.452 145.961 135.378 145.733 136.593C145.505 137.808 145.527 138.808 145.461 138.813Z" fill="#FBFFFE"/>
<path d="M138.223 141.905C137.507 141.408 136.819 140.874 136.161 140.304C135.456 139.794 134.779 139.247 134.13 138.668C134.918 139.061 135.655 139.55 136.323 140.124C137.024 140.642 137.661 141.239 138.223 141.905Z" fill="#FBFFFE"/>
<path d="M143.124 133.299C141.445 134.364 139.685 135.295 137.86 136.084C138.686 135.516 139.554 135.012 140.457 134.575C141.312 134.082 142.204 133.655 143.124 133.299Z" fill="#FBFFFE"/>
<path d="M158.349 152.613C158.256 152.643 158.161 152.667 158.064 152.683C157.875 152.718 157.599 152.788 157.239 152.836C156.224 152.992 155.196 153.058 154.169 153.034C151.515 152.995 148.899 152.394 146.495 151.271C144.09 150.147 141.951 148.526 140.219 146.515C139.213 145.358 138.351 144.082 137.653 142.717C137.177 141.801 136.784 140.846 136.478 139.861C136.359 139.514 136.302 139.238 136.249 139.054C136.22 138.959 136.201 138.862 136.192 138.764C136.234 138.853 136.268 138.946 136.293 139.041C136.359 139.22 136.429 139.479 136.561 139.834C137.402 142.239 138.698 144.46 140.377 146.375C142.114 148.34 144.233 149.929 146.605 151.046C148.977 152.163 151.553 152.784 154.173 152.872C155.198 152.91 156.225 152.869 157.244 152.749C157.608 152.714 157.884 152.657 158.073 152.639C158.164 152.62 158.256 152.611 158.349 152.613Z" fill="#222222"/>
<path d="M145.242 150.341C145.092 149.644 145.165 148.919 145.448 148.266C145.663 147.586 146.086 146.992 146.659 146.568C146.272 147.129 145.938 147.725 145.663 148.349C145.462 148.999 145.321 149.665 145.242 150.341Z" fill="#FBFFFE"/>
<path d="M141.632 148.832C141.216 149.154 140.834 149.519 140.492 149.919C140.207 150.361 139.966 150.83 139.772 151.319C139.787 150.763 139.974 150.225 140.307 149.779C140.64 149.334 141.103 149.003 141.632 148.832Z" fill="#FBFFFE"/>
<path d="M155.515 157.096C154.797 157.039 154.104 156.809 153.493 156.428C152.882 156.046 152.372 155.523 152.006 154.903C152.96 155.933 154.171 156.69 155.515 157.096Z" fill="#FBFFFE"/>
<path d="M157.673 144.945C157.581 145.59 157.308 146.196 156.887 146.692C156.465 147.189 155.912 147.557 155.291 147.753C155.804 147.399 156.28 146.995 156.712 146.546C157.087 146.047 157.409 145.51 157.673 144.945Z" fill="#FBFFFE"/>
<path d="M163.811 154.004C163.758 153.96 164.337 153.227 164.872 152.218C165.407 151.209 165.692 150.319 165.749 150.341C165.501 151.736 164.82 153.017 163.802 154.004H163.811Z" fill="#FBFFFE"/>
<path d="M171.921 155.192C171.947 155.258 171.149 155.574 170.346 156.236C169.543 156.898 169.061 157.609 169.004 157.552C169.256 156.947 169.67 156.423 170.201 156.039C170.685 155.602 171.28 155.309 171.921 155.192Z" fill="#FBFFFE"/>
<path d="M165.736 144.809C165.666 144.831 165.298 143.55 164.477 142.129C163.657 140.708 162.78 139.707 162.837 139.664C163.077 139.833 163.289 140.041 163.464 140.278C164.387 141.356 165.09 142.605 165.534 143.954C165.645 144.227 165.713 144.515 165.736 144.809Z" fill="#FBFFFE"/>
<path d="M166.947 131.75C165.581 132.222 164.169 132.547 162.735 132.72C164.101 132.249 165.513 131.924 166.947 131.75Z" fill="#FBFFFE"/>
<path d="M163.214 127.846C162.713 127.38 162.263 126.863 161.871 126.302C161.425 125.785 161.035 125.222 160.709 124.622C161.215 125.081 161.665 125.598 162.051 126.162C162.502 126.677 162.892 127.242 163.214 127.846Z" fill="#FBFFFE"/>
<path d="M172.478 125.504C171.056 125.468 169.658 125.137 168.372 124.53C169.067 124.648 169.754 124.808 170.429 125.008C171.122 125.131 171.806 125.297 172.478 125.504Z" fill="#FBFFFE"/>
<path d="M179.059 125.385C179.247 124.764 179.471 124.155 179.73 123.56C179.915 122.937 180.139 122.326 180.401 121.731C180.365 122.387 180.217 123.033 179.962 123.639C179.767 124.27 179.461 124.861 179.059 125.385Z" fill="#FBFFFE"/>
<path d="M177.558 134.299C176.198 133.995 174.969 133.267 174.049 132.219C174.093 132.167 174.786 132.772 175.746 133.338C176.707 133.904 177.58 134.233 177.558 134.299Z" fill="#FBFFFE"/>
<path d="M181.831 134.027C181.919 133.146 182.08 132.275 182.313 131.421C182.472 130.554 182.704 129.701 183.006 128.873C182.76 130.623 182.362 132.349 181.817 134.031L181.831 134.027Z" fill="#FBFFFE"/>
<path d="M178.265 143.993C177.17 142.754 176.192 141.416 175.344 139.997C175.919 140.592 176.438 141.238 176.897 141.927C177.415 142.572 177.874 143.264 178.265 143.993Z" fill="#FBFFFE"/>
<path d="M184.353 140.181C184.291 140.212 183.892 139.418 183.26 138.532C182.629 137.646 182.019 137.001 182.067 136.953C182.619 137.339 183.089 137.831 183.449 138.4C183.868 138.926 184.176 139.532 184.353 140.181Z" fill="#FBFFFE"/>
<path d="M190.064 139.326C189.564 138.738 189.096 138.125 188.661 137.488C188.162 136.901 187.694 136.289 187.257 135.654C188.424 136.682 189.378 137.93 190.064 139.326Z" fill="#FBFFFE"/>
<path d="M188.71 143.111C188.632 142.584 188.455 142.077 188.188 141.616C187.867 141.19 187.47 140.827 187.017 140.545C187.017 140.519 187.218 140.545 187.495 140.681C187.851 140.871 188.153 141.149 188.372 141.488C188.595 141.827 188.73 142.216 188.762 142.62C188.806 142.91 188.749 143.111 188.71 143.111Z" fill="#FBFFFE"/>
<path d="M184.269 148.301C184.234 148.301 184.247 148.182 184.212 148.029C184.171 147.831 184.064 147.654 183.909 147.524C183.747 147.404 183.549 147.344 183.348 147.353C183.19 147.353 183.089 147.393 183.072 147.353C183.054 147.314 183.137 147.235 183.326 147.182C183.45 147.15 183.58 147.146 183.705 147.172C183.831 147.198 183.949 147.253 184.05 147.332C184.151 147.411 184.232 147.512 184.288 147.627C184.343 147.743 184.372 147.87 184.37 147.998C184.366 148.209 184.295 148.309 184.269 148.301Z" fill="#FBFFFE"/>
<path d="M138.632 156.596C137.813 156.28 137.068 155.797 136.446 155.178C135.824 154.559 135.337 153.816 135.018 152.999C135.912 154.478 137.153 155.719 138.632 156.613V156.596Z" fill="#FBFFFE"/>
<path d="M110.71 47.72C110.003 41.0479 108.727 34.7707 108.38 28.2302C108.394 28.0662 108.374 27.9012 108.32 27.7456C108.266 27.59 108.181 27.4473 108.069 27.3266C107.973 27.2708 107.868 27.2349 107.758 27.2213C107.648 27.2077 107.537 27.2165 107.43 27.2473C107.324 27.2781 107.225 27.3301 107.14 27.4003C107.054 27.4705 106.984 27.5574 106.933 27.6556C106.741 28.0662 106.666 28.5211 106.714 28.9716C106.721 32.4498 106.127 35.9032 104.959 39.1792C104.209 41.3067 103.204 43.3465 102.643 45.5267C102.081 47.7068 103.138 48.4482 104.121 50.4792" fill="#FFBE9D"/>
<path d="M104.136 50.4704C103.267 49.8038 102.593 48.9159 102.184 47.8995C101.776 46.8832 101.649 45.7758 101.815 44.6933C102.039 43.3773 102.692 42.1841 103.21 40.9559C103.728 39.7276 104.127 38.3634 103.811 37.0693C103.636 36.589 103.519 36.0899 103.46 35.5822C103.46 35.0734 103.789 34.5031 104.298 34.4812C104.49 34.4967 104.676 34.5567 104.842 34.6564C105.007 34.7562 105.147 34.8929 105.25 35.0558C106.105 36.113 106.79 39.2012 106.36 41.5086" fill="#FFBE9D"/>
<path d="M106.359 41.5085C106.359 41.5085 106.403 41.1532 106.429 40.5128C106.456 39.6094 106.381 38.7058 106.205 37.8194C106.087 37.2089 105.911 36.611 105.679 36.034C105.557 35.7201 105.391 35.4248 105.187 35.1567C105.096 35.0128 104.976 34.8892 104.835 34.7934C104.694 34.6976 104.535 34.6316 104.367 34.5996C104.195 34.6078 104.03 34.6723 103.897 34.7832C103.765 34.8941 103.673 35.0454 103.635 35.2137C103.541 35.5877 103.565 35.9817 103.705 36.3411C103.852 36.7424 103.955 37.1587 104.012 37.5825C104.054 38.0214 104.038 38.4639 103.964 38.8985C103.657 40.6795 102.709 42.1183 102.209 43.5439C101.962 44.21 101.83 44.9131 101.819 45.6232C101.816 46.2418 101.908 46.8571 102.09 47.448C102.356 48.3102 102.805 49.1048 103.406 49.7773C103.845 50.2467 104.13 50.4529 104.117 50.4748C104.039 50.435 103.965 50.3865 103.898 50.33C103.7 50.1793 103.513 50.0135 103.341 49.8344C102.7 49.1731 102.219 48.373 101.937 47.4963C101.737 46.8919 101.633 46.2598 101.63 45.6232C101.634 44.8902 101.763 44.1633 102.012 43.4738C102.494 42.0174 103.428 40.5786 103.718 38.8634C103.793 38.4466 103.809 38.0214 103.766 37.6001C103.713 37.1883 103.615 36.7836 103.472 36.3937C103.321 35.9909 103.299 35.5505 103.411 35.1348C103.476 34.9272 103.596 34.741 103.757 34.5952C103.838 34.5199 103.934 34.4619 104.038 34.4249C104.142 34.388 104.253 34.3728 104.363 34.3803C104.564 34.4069 104.757 34.4757 104.929 34.5823C105.102 34.689 105.249 34.8309 105.363 34.9988C105.576 35.2892 105.747 35.6081 105.872 35.9463C106.104 36.5355 106.274 37.147 106.381 37.7712C106.547 38.6705 106.598 39.5873 106.534 40.4996C106.519 40.7472 106.486 40.9934 106.438 41.2366C106.424 41.3305 106.398 41.4221 106.359 41.5085Z" fill="#EB996E"/>
<path d="M163.704 77.1324C163.848 77.7599 164.187 78.3253 164.674 78.7466C165.161 79.1678 165.769 79.4229 166.411 79.4748C167.054 79.5064 167.694 79.3739 168.272 79.09C168.85 78.8061 169.346 78.3801 169.714 77.8518C170.442 76.7776 170.735 75.4668 170.534 74.1846C170.284 72.3378 169.056 70.5612 167.275 70.0129C165.494 69.4646 163.279 70.4516 162.787 72.2413L160.734 75.1058L163.704 77.1324Z" fill="#222222"/>
<path d="M161.279 71.5043C161.478 69.9169 161.356 68.3056 160.921 66.7662C160.485 65.2267 159.745 63.7905 158.744 62.5426C157.743 61.2947 156.501 60.2607 155.093 59.5018C153.684 58.743 152.138 58.2748 150.545 58.1251C144.18 57.5197 138.517 62.2617 137.565 68.5872C136.727 74.1319 136.008 79.7292 136.034 81.7471C136.113 87.8883 139.697 90.2659 141.153 90.959C141.676 91.1474 142.217 91.2812 142.767 91.3581C142.773 91.3592 142.778 91.3613 142.782 91.3643C142.786 91.3673 142.79 91.3712 142.793 91.3757C142.796 91.3802 142.798 91.3852 142.799 91.3905C142.8 91.3958 142.799 91.4012 142.798 91.4064L141.438 98.425C140.82 103.035 143.395 107.15 147.996 107.821C152.598 108.492 156.226 104.952 156.932 100.338L161.279 71.5043Z" fill="#FFBE9D"/>
<path d="M138.622 72.1709C138.723 72.3157 139.531 71.8814 140.57 72.0349C141.61 72.1885 142.29 72.8201 142.421 72.7061C142.487 72.6578 142.395 72.4166 142.101 72.1271C141.698 71.7498 141.187 71.5062 140.64 71.4296C140.1 71.3511 139.549 71.4447 139.066 71.6972C138.701 71.8946 138.57 72.1051 138.622 72.1709Z" fill="#222222"/>
<path d="M147.852 74.1713C147.953 74.3161 148.764 73.8818 149.8 74.0353C150.835 74.1889 151.524 74.8205 151.655 74.7065C151.717 74.6582 151.629 74.417 151.331 74.1231C150.928 73.748 150.419 73.506 149.874 73.43C149.334 73.3512 148.783 73.4449 148.299 73.6976C147.944 73.895 147.804 74.1055 147.852 74.1713Z" fill="#222222"/>
<path d="M144.264 79.0757C143.742 78.8256 143.191 78.6415 142.623 78.5273C142.36 78.4615 142.119 78.3694 142.101 78.1852C142.118 77.9087 142.219 77.644 142.391 77.4263L143.47 75.5225C144.974 72.8072 146.102 70.5612 145.996 70.4998C145.891 70.4384 144.575 72.5922 143.07 75.3251L142.022 77.2421C141.812 77.5399 141.71 77.9004 141.733 78.2641C141.76 78.3607 141.809 78.4499 141.875 78.5257C141.941 78.6015 142.022 78.6619 142.114 78.7028C142.255 78.7627 142.402 78.8054 142.553 78.83C143.11 78.984 143.685 79.0666 144.264 79.0757Z" fill="#222222"/>
<path d="M142.807 91.4018C142.807 91.4018 146.755 92.3142 152.217 90.0332C152.217 90.0332 149.866 95.0998 142.443 93.2969L142.807 91.4018Z" fill="#EB996E"/>
<path d="M144.339 81.6415C144.571 81.4276 144.853 81.2754 145.16 81.1988C145.467 81.1222 145.787 81.1236 146.093 81.2029C146.319 81.2586 146.531 81.3587 146.718 81.4972C146.905 81.6358 147.062 81.8101 147.181 82.01C147.295 82.2027 147.346 82.4259 147.328 82.6489C147.31 82.872 147.224 83.084 147.08 83.2558C146.887 83.4189 146.65 83.5199 146.398 83.5458C146.147 83.5716 145.894 83.521 145.672 83.4006C145.206 83.158 144.795 82.8238 144.461 82.418C144.354 82.3189 144.268 82.1996 144.207 82.067C144.177 82.0041 144.166 81.9334 144.177 81.8644C144.188 81.7954 144.22 81.7314 144.268 81.681" fill="#EB996E"/>
<path d="M147.212 80.2381C147.046 80.203 146.879 81.3304 145.8 81.9928C144.721 82.6551 143.536 82.3525 143.506 82.5104C143.479 82.5806 143.743 82.7692 144.247 82.8569C144.905 82.961 145.579 82.8306 146.151 82.4884C146.7 82.1584 147.099 81.6285 147.265 81.0102C147.375 80.5408 147.291 80.2425 147.212 80.2381Z" fill="#222222"/>
<path d="M148.568 70.7936C148.629 71.0919 149.686 71.1094 150.88 71.434C152.073 71.7586 153.016 72.2324 153.213 72.0043C153.301 71.8946 153.169 71.6051 152.814 71.2717C152.333 70.8596 151.764 70.5625 151.15 70.4029C150.537 70.2433 149.895 70.2254 149.274 70.3505C148.791 70.4646 148.546 70.6532 148.568 70.7936Z" fill="#222222"/>
<path d="M139.67 68.9733C139.815 69.2365 140.57 69.0961 141.425 69.2102C142.281 69.3242 142.991 69.5962 143.18 69.3769C143.272 69.2672 143.18 69.0128 142.903 68.7452C142.516 68.4145 142.038 68.2069 141.532 68.1491C141.025 68.0913 140.513 68.1858 140.061 68.4206C139.741 68.618 139.605 68.8461 139.67 68.9733Z" fill="#222222"/>
<path d="M136.364 67.2141C137.632 69.1486 141.659 67.951 144.089 66.6219C145.359 67.4317 146.894 67.7142 148.368 67.4095C149.843 67.1047 151.14 66.2367 151.985 64.9901C153.376 66.7447 156.205 66.1745 157.249 64.1786C158.293 62.1826 157.688 59.4322 156.284 57.6864C154.88 55.9405 152.801 55.0544 150.757 54.6815C145.91 53.8042 140.632 55.6641 137.733 60.0464C136.395 62.0686 135.592 64.7927 136.386 67.2141" fill="#222222"/>
<path d="M149.76 55.3705C149.76 55.4582 148.615 55.2389 146.816 55.5372C144.48 55.9258 142.339 57.0782 140.728 58.814C139.211 60.6314 138.208 62.8215 137.824 65.157C137.69 66.1307 137.639 67.1138 137.67 68.0961C137.577 67.8425 137.522 67.5763 137.508 67.3065C137.431 66.5766 137.443 65.8402 137.543 65.1132C137.861 62.6871 138.869 60.4033 140.447 58.5332C142.115 56.7272 144.362 55.5617 146.799 55.2389C147.526 55.1411 148.262 55.1293 148.992 55.2038C149.255 55.2198 149.514 55.276 149.76 55.3705Z" fill="#455A64"/>
<path d="M143.206 64.389C143.134 64.1669 143.101 63.9337 143.11 63.7003C143.087 63.0639 143.153 62.4275 143.307 61.8097C143.542 60.7734 143.986 59.7962 144.613 58.9381C145.239 58.08 146.035 57.3592 146.95 56.82C147.866 56.2809 148.882 55.9349 149.936 55.8032C150.991 55.6715 152.061 55.757 153.081 56.0544C153.696 56.2232 154.287 56.474 154.835 56.8001C155.047 56.9102 155.236 57.059 155.392 57.2388C154.627 56.8767 153.832 56.5831 153.015 56.3615C151.028 55.8554 148.922 56.1551 147.155 57.1954C145.389 58.2357 144.105 59.9321 143.584 61.9149C143.154 63.3801 143.29 64.389 143.206 64.389Z" fill="#455A64"/>
<path d="M154.836 62.2835C154.36 64.0005 154.086 65.7671 154.02 67.5474C153.954 69.3378 154.511 71.0955 155.595 72.5219C157.288 74.5617 160.113 75.1846 162.719 75.6802C164.112 72.203 164.532 68.4117 163.934 64.7137C163.635 62.9196 163.056 61.0903 161.793 59.7831C160.854 58.8566 159.634 58.2678 158.324 58.109C157.014 57.9502 155.688 58.2305 154.555 58.9058" fill="#222222"/>
<path d="M156.283 70.7761C155.599 72.2588 155.647 73.974 155.884 75.6014C156.121 77.2288 156.533 78.8212 156.516 80.453C156.498 82.0848 155.981 83.8175 154.7 84.8396C154.311 85.0986 153.947 85.3922 153.612 85.717C153.446 85.8818 153.336 86.0936 153.295 86.3236C153.254 86.5536 153.285 86.7905 153.384 87.0022C153.629 87.397 154.371 87.3883 154.476 86.9364L154.41 87.0505C154.346 87.1598 154.311 87.2841 154.309 87.4111C154.308 87.538 154.34 87.6631 154.402 87.7737C154.465 87.8844 154.555 87.9768 154.664 88.0415C154.773 88.1063 154.897 88.1412 155.024 88.1428C155.473 88.1213 155.912 88.0083 156.315 87.8106C156.717 87.6129 157.076 87.3348 157.367 86.9935C158.205 86.024 158.538 84.7212 158.757 83.4842C159.433 79.6108 159.301 75.5882 160.372 71.8114" fill="#222222"/>
<path d="M141.408 96.214C141.71 97.5335 142.293 98.7726 143.116 99.8471C143.939 100.922 144.984 101.806 146.18 102.441C147.375 103.076 148.693 103.447 150.045 103.527C151.396 103.608 152.749 103.397 154.011 102.908C156.283 102.031 158.117 100.32 159.885 98.6486C160.201 100.551 160.114 102.499 159.629 104.366C159.144 106.233 158.272 107.977 157.07 109.485C155.867 110.993 154.361 112.231 152.649 113.12C150.938 114.008 149.058 114.527 147.133 114.642C144.224 114.818 141.101 113.932 139.272 111.664C137.995 110.085 137.482 107.992 137.517 105.961C137.606 103.927 137.993 101.917 138.667 99.9953C139.184 98.3371 140.005 96.486 141.68 96.0254" fill="#F8AC46"/>
<path d="M162.218 75.7945C163.973 76.7376 164.912 78.7116 165.249 80.6593C165.587 82.6069 165.416 84.6072 165.499 86.5768C165.583 88.5464 165.96 90.6169 167.21 92.1478C168.526 93.7797 170.61 94.5517 172.474 95.5475C176.562 97.7408 179.931 101.483 181.16 105.966C182.388 110.449 181.274 115.616 177.918 118.84C174.847 121.762 170.417 122.788 166.188 122.788C163.174 122.788 159.863 122.139 157.981 119.784C156.099 117.428 156.226 114.125 156.884 111.221C157.542 108.317 158.748 105.496 158.797 102.518C158.346 104.362 157.561 106.107 156.48 107.668C156.169 108.106 155.638 108.589 155.164 108.334C154.691 108.08 154.835 107.26 155.081 106.711C158.713 98.6269 157.45 82.3306 159.604 73.4038" fill="#222222"/>
<path d="M159.228 74.8774C159.337 74.8423 163.579 74.0395 163.031 78.2331C162.482 82.4267 158.39 81.0142 158.398 80.8958C158.407 80.7774 159.228 74.8774 159.228 74.8774Z" fill="#FFBE9D"/>
<path d="M159.884 79.4746C159.884 79.4746 159.95 79.5316 160.069 79.6062C160.232 79.7027 160.427 79.7326 160.612 79.6896C161.077 79.5843 161.542 78.9263 161.661 78.1762C161.716 77.8171 161.692 77.4503 161.591 77.1014C161.569 76.9651 161.513 76.8363 161.43 76.7262C161.347 76.6161 161.238 76.5281 161.113 76.4698C161.034 76.4419 160.948 76.441 160.868 76.4672C160.789 76.4934 160.721 76.5452 160.674 76.6145C160.604 76.7242 160.617 76.8119 160.595 76.8163C160.573 76.8207 160.516 76.733 160.569 76.5663C160.606 76.465 160.677 76.3798 160.77 76.325C160.836 76.2858 160.908 76.2605 160.984 76.2507C161.059 76.2409 161.136 76.2468 161.209 76.268C161.377 76.3247 161.527 76.4234 161.646 76.5547C161.765 76.686 161.849 76.8455 161.889 77.0181C162.019 77.4048 162.053 77.8171 161.99 78.22C161.854 79.0623 161.319 79.7948 160.674 79.8913C160.557 79.9101 160.438 79.9021 160.324 79.8679C160.211 79.8337 160.107 79.7742 160.02 79.6939C159.88 79.5755 159.871 79.479 159.884 79.4746Z" fill="#EB996E"/>
<path d="M137.073 105.25C137.279 104.803 137.517 104.37 137.784 103.956C138.395 102.944 138.902 101.873 139.297 100.759C139.681 99.6431 139.81 98.456 139.675 97.2843C139.589 96.8034 139.478 96.3275 139.341 95.8586C139.424 95.9655 139.488 96.0856 139.53 96.214C139.673 96.5502 139.776 96.9021 139.837 97.2624C140.021 98.4595 139.911 99.6836 139.517 100.829C139.118 101.96 138.584 103.038 137.924 104.04C137.679 104.426 137.486 104.733 137.323 104.939C137.161 105.145 137.086 105.259 137.073 105.25Z" fill="#222222"/>
<path d="M139.211 100.412C139.149 100.412 139.031 100.052 138.653 99.8023C138.276 99.5522 137.899 99.5522 137.89 99.4864C137.881 99.4206 137.982 99.4119 138.153 99.4075C138.38 99.4095 138.601 99.4815 138.785 99.6136C138.971 99.7434 139.114 99.9249 139.197 100.136C139.254 100.298 139.241 100.403 139.211 100.412Z" fill="#FBFFFE"/>
<path d="M141.921 100.403C141.593 100.034 141.232 99.6946 140.842 99.3898C140.41 99.148 139.955 98.951 139.482 98.802C139.744 98.7659 140.01 98.7826 140.264 98.8512C140.519 98.9197 140.757 99.0388 140.965 99.2012C141.429 99.4616 141.772 99.893 141.921 100.403Z" fill="#FBFFFE"/>
<path d="M143.623 109.304C143.633 108.699 143.719 108.098 143.877 107.514C143.962 106.911 144.123 106.322 144.356 105.76C144.346 106.366 144.26 106.968 144.101 107.554C144.016 108.155 143.856 108.743 143.623 109.304Z" fill="#FBFFFE"/>
<path d="M150.467 110.646C150.357 109.387 150.397 108.119 150.585 106.869C150.701 108.128 150.661 109.396 150.467 110.646Z" fill="#FBFFFE"/>
<path d="M10.7466 130.141L3.98242 159.597L18.2872 159.641L24.8934 133.738L10.7466 130.141Z" fill="#B78876"/>
<path d="M80.9939 93.9509C79.6341 92.1305 78.0724 90.3802 77.3574 88.222C77.0109 87.178 76.8749 86.0726 76.5064 85.0373C76.1379 84.0021 75.4668 82.9932 74.4403 82.6027C73.4138 82.2123 72.633 82.6028 71.9662 83.3397L67.0576 97.6971L69.887 108.725C72.712 108.089 76.2476 107.335 78.8883 106.146C81.5291 104.957 83.275 103.053 83.4592 100.162C83.5864 97.8945 82.3538 95.7758 80.9939 93.9509Z" fill="#222222"/>
<path d="M36.3249 91.4158C36.3249 91.4158 19.2609 98.8423 17.129 102.194C14.9971 105.545 7.97852 129.439 7.97852 129.439L25.9637 134.703L25.6566 159.58H69.7421L69.378 115.713L63.8509 91.4728C63.8509 91.4728 54.117 90.8455 53.2133 90.4025C52.3097 89.9594 36.3249 91.4158 36.3249 91.4158Z" fill="#F8AC46"/>
<path d="M96.9657 30.6126C97.1061 29.608 96.3998 28.5026 96.9087 27.6209C97.2452 27.1665 97.7263 26.8401 98.2729 26.6953C98.5378 26.5742 98.8241 26.5071 99.1152 26.4979C99.2603 26.4956 99.4029 26.5359 99.5254 26.6139C99.6478 26.6918 99.7446 26.804 99.8039 26.9366C99.8355 27.1043 99.8207 27.2775 99.7612 27.4375C99.7017 27.5975 99.5996 27.7383 99.4661 27.8446C99.1988 28.0546 98.974 28.3137 98.8037 28.6079C98.6846 29.3299 98.7403 30.07 98.966 30.7661C99.5504 32.2978 100.035 33.8656 100.418 35.4598" fill="#B78876"/>
<path d="M93.3643 30.9549C93.4257 29.4327 94.6802 23.4362 94.7241 21.9141C95.755 22.2299 96.3515 23.3266 96.5446 24.3881C96.7376 25.4497 96.6367 26.5419 96.8209 27.6035C97.0666 29.0292 97.8079 30.3144 98.5536 31.5515C99.2994 32.7885 100.08 34.0475 100.418 35.4512C100.756 36.8549 102.028 40.5046 101.036 41.5574" fill="#B78876"/>
<path d="M93.0786 41.2195L86.9769 70.2063C86.7619 71.5223 63.8506 91.5033 63.8506 91.5033L68.3732 109.572L98.2022 80.3876C100.356 78.0851 101.528 75.0342 101.47 71.882L100.961 44.6849L93.0786 41.2195Z" fill="#B78876"/>
<path d="M92.0348 31.139L93.0788 41.2282L100.975 44.7024C100.975 44.7024 101.071 43.9874 101.413 40.4912C101.786 36.6398 97.6453 34.986 95.7985 32.1567C95.0089 30.9416 95.2151 28.7044 94.6053 25.932C94.5351 25.6118 94.0965 23.6729 93.8596 22.6333C93.7349 22.0556 93.3965 21.5463 92.9121 21.2076C92.5524 20.9708 92.1488 20.8523 91.8549 21.2076C91.561 21.563 92.0348 31.139 92.0348 31.139Z" fill="#B78876"/>
<path d="M96.9659 42.8953C97.8432 42.1364 98.0538 40.7766 97.7248 39.6492C97.322 38.5391 96.6863 37.528 95.8605 36.6838C95.0358 35.8418 94.3422 34.8807 93.8032 33.8325C93.4698 33.078 93.3119 32.2446 92.9258 31.5032C92.5398 30.7619 91.8862 30.082 91.0615 30.0513C91.7239 34.2229 91.7064 36.6312 93.0618 41.2021" fill="#B78876"/>
<path d="M91.8815 34.8149C91.8815 34.8149 91.8508 34.7009 91.8025 34.4815C91.7543 34.2622 91.6709 33.8981 91.592 33.5252C91.4033 32.6479 91.1533 31.5293 90.8945 30.2441L90.8682 30.1212H90.9954C91.2654 30.1114 91.5347 30.1552 91.7877 30.25C92.0407 30.3449 92.2723 30.489 92.4693 30.6739C93.0716 31.2471 93.5003 31.9784 93.7063 32.7839C93.8813 33.41 94.1118 34.0192 94.395 34.6044C94.6097 34.9887 94.8688 35.3465 95.167 35.6703C95.2759 35.7947 95.3647 35.9353 95.4302 36.087C95.3102 35.9757 95.1987 35.8555 95.0969 35.7273C94.7704 35.4189 94.487 35.0677 94.2546 34.6833C93.9447 34.0963 93.6921 33.4808 93.5001 32.8453C93.2961 32.0801 92.8865 31.3853 92.3157 30.8362C91.96 30.5024 91.4875 30.3213 90.9998 30.3318L91.105 30.2002C91.6358 32.8409 91.978 34.8193 91.8815 34.8149Z" fill="#7C5142"/>
<path d="M95.4299 32.2488C95.1115 30.8917 94.8684 29.518 94.7017 28.1341C94.458 26.7611 94.2896 25.3758 94.1973 23.9844C94.5179 25.3425 94.7611 26.7177 94.9254 28.1034C95.169 29.475 95.3374 30.8588 95.4299 32.2488Z" fill="#7C5142"/>
<path d="M97.9438 32.5911C97.9438 32.5911 97.9745 32.6349 98.0008 32.7446H97.935C97.6088 31.8061 97.3422 30.8479 97.1366 29.8757C96.948 29.0291 96.812 28.2571 96.7287 27.6824C96.6609 27.3818 96.6344 27.0734 96.6497 26.7656C96.7155 26.7656 96.9831 28.1299 97.3604 29.8363C97.663 31.2005 97.9438 32.3498 98.0008 32.7358H97.935C97.9306 32.6437 97.9306 32.5911 97.9438 32.5911Z" fill="#7C5142"/>
<path d="M99.5008 38.1491C99.4657 38.1491 99.3078 37.921 98.9919 37.5832C98.1575 36.6967 97.0248 36.1498 95.8116 36.0479C95.5578 36.0501 95.3042 36.034 95.0527 35.9996C95.2955 35.9054 95.5563 35.8665 95.816 35.8856C96.4482 35.8935 97.071 36.0403 97.6403 36.3154C98.2095 36.5906 98.7114 36.9874 99.1104 37.4779C99.29 37.6689 99.4235 37.8985 99.5008 38.1491Z" fill="#7C5142"/>
<path d="M93.7949 42.0177C93.5779 41.6402 93.4028 41.2401 93.2729 40.8246C92.9123 39.8403 92.6105 38.8354 92.3692 37.8153C92.1238 36.8037 91.9392 35.7784 91.8165 34.7447C91.7447 34.3099 91.7183 33.8689 91.7375 33.4287C91.8476 33.8479 91.9268 34.2745 91.9744 34.7052C92.106 35.4904 92.3078 36.5783 92.5885 37.7759C92.8693 38.9734 93.1851 40.0218 93.4264 40.7851C93.5777 41.1869 93.7008 41.5988 93.7949 42.0177Z" fill="#7C5142"/>
<path d="M58.4941 92.0254C58.885 91.4268 59.4913 91.0018 60.1872 90.8384C60.8831 90.6751 61.6152 90.7859 62.2315 91.148C65.4513 88.5161 68.7457 85.9631 71.9655 83.3442C70.9127 88.6082 70.2108 95.947 72.5664 100.764C72.5664 100.764 75.5362 106.282 80.2649 105.44L76.045 109.572L69.3905 115.744" fill="#F8AC46"/>
<path d="M57.4502 94.4818C57.4552 93.7756 57.6705 93.0868 58.0687 92.5035C58.4049 91.8805 58.9177 91.3708 59.5426 91.0383C58.5515 91.9798 57.8292 93.1684 57.4502 94.4818Z" fill="#222222"/>
<path d="M60.9309 97.728C60.7483 97.4356 60.6232 97.111 60.5624 96.7717C60.373 95.9582 60.3504 95.1147 60.4959 94.2922C60.6414 93.4696 60.952 92.6851 61.409 91.9859C61.5832 91.6868 61.8124 91.4234 62.0845 91.2095C62.1152 91.2358 61.8608 91.5341 61.5494 92.0868C61.1442 92.7861 60.8637 93.5505 60.7203 94.3459C60.5829 95.1428 60.5829 95.9573 60.7203 96.7542C60.83 97.3244 60.966 97.6929 60.9309 97.728Z" fill="#222222"/>
<path d="M77.0464 108.993C76.7227 109.194 76.3687 109.342 75.998 109.431C74.9846 109.676 73.9243 109.644 72.9274 109.339C71.4509 108.87 70.159 107.95 69.2338 106.707C68.1226 105.184 67.3725 103.427 67.0405 101.571C66.421 98.2277 66.244 94.8178 66.5141 91.4288C66.615 90.1128 66.7598 89.0863 66.8826 88.3581C66.9396 87.9984 66.9923 87.7221 67.0318 87.5334C67.0454 87.4362 67.0689 87.3407 67.1019 87.2483C67.105 87.347 67.0962 87.4456 67.0756 87.5422L66.9703 88.3713C66.8782 89.0907 66.7554 90.1259 66.6764 91.4419C66.452 94.8163 66.6495 98.2056 67.2642 101.531C67.5927 103.34 68.3194 105.052 69.3918 106.545C70.2788 107.775 71.5292 108.695 72.9669 109.177C73.9376 109.49 74.9729 109.546 75.9717 109.339C76.3373 109.248 76.6963 109.132 77.0464 108.993Z" fill="#FBFFFE"/>
<path d="M26.0467 142.108C25.9853 142.108 25.9326 135.87 25.9326 128.18C25.9326 120.49 25.9853 114.253 26.0467 114.253C26.1081 114.253 26.1607 120.486 26.1607 128.18C26.1607 135.874 26.1125 142.108 26.0467 142.108Z" fill="#222222"/>
<path d="M25.6964 109.44C25.6482 109.44 25.6613 108.817 25.4464 107.848C25.3183 107.281 25.1346 106.729 24.898 106.198C24.6032 105.553 24.24 104.941 23.8145 104.373C23.3773 103.814 22.8817 103.302 22.3363 102.847C21.8872 102.48 21.4039 102.157 20.8931 101.882C20.0157 101.421 19.406 101.268 19.4192 101.224C19.5689 101.232 19.7167 101.261 19.8578 101.312C20.0241 101.353 20.1869 101.407 20.3447 101.474C20.5599 101.548 20.7696 101.637 20.972 101.741C21.499 101.999 21.9962 102.314 22.4547 102.68C23.0178 103.14 23.5283 103.661 23.9769 104.233C24.4147 104.815 24.7827 105.447 25.0735 106.115C25.3124 106.661 25.4904 107.232 25.6043 107.817C25.6493 108.04 25.6801 108.266 25.6964 108.493C25.7169 108.663 25.7257 108.834 25.7227 109.006C25.7307 109.151 25.7219 109.297 25.6964 109.44Z" fill="#222222"/>
<path d="M55.7396 91.2227C55.776 91.3444 55.8009 91.4692 55.8141 91.5955C55.8733 91.9512 55.9114 92.3101 55.9282 92.6702C55.9806 94.0011 55.7949 95.3307 55.3798 96.5963C54.7617 98.4836 53.6662 100.179 52.1995 101.518C50.36 103.126 48.0499 104.095 45.614 104.282C43.1781 104.468 40.7473 103.862 38.6844 102.553C37.0353 101.45 35.6995 99.9387 34.8066 98.1667C34.2085 96.9773 33.8268 95.691 33.6792 94.3679C33.6436 94.0093 33.6275 93.6491 33.631 93.2888C33.6204 93.1632 33.6204 93.037 33.631 92.9115C33.6516 93.0347 33.6618 93.1594 33.6617 93.2844C33.6729 93.6424 33.7022 93.9996 33.7494 94.3547C33.9291 95.6587 34.3296 96.9226 34.9338 98.0921C35.8288 99.8283 37.1532 101.307 38.7809 102.387C40.8064 103.66 43.187 104.251 45.573 104.072C47.959 103.892 50.2247 102.953 52.0372 101.391C53.4879 100.079 54.5783 98.4182 55.2044 96.5656C55.6248 95.318 55.8324 94.0086 55.8185 92.6922C55.8185 92.2272 55.779 91.8675 55.7439 91.6218C55.7088 91.3762 55.7352 91.227 55.7396 91.2227Z" fill="#222222"/>
<path d="M25.6698 129.281C25.6698 129.342 22.0245 128.197 17.5765 126.728C13.1284 125.258 9.53578 124.017 9.55772 123.955C9.57965 123.894 13.1986 125.039 17.651 126.508C22.1035 127.978 25.6873 129.219 25.6698 129.281Z" fill="#FBFFFE"/>
<path d="M68.9519 123.192C68.9519 123.258 59.2794 123.35 47.3478 123.399C35.4161 123.447 25.7393 123.438 25.7393 123.399C25.7393 123.359 35.4118 123.241 47.3478 123.192C59.2837 123.144 68.9519 123.131 68.9519 123.192Z" fill="#FBFFFE"/>
<path d="M69.1712 127.013C69.1712 127.075 59.4461 127.127 47.4574 127.127C35.4688 127.127 25.7393 127.075 25.7393 127.013C25.7393 126.952 35.46 126.899 47.4574 126.899C59.4548 126.899 69.1712 126.947 69.1712 127.013Z" fill="#FBFFFE"/>
<path d="M63.2156 131.654C63.186 131.776 63.1448 131.895 63.0928 132.009C62.9963 132.255 62.8647 132.588 62.7024 133.01L62.4129 133.729C62.2988 133.992 62.1628 134.268 62.0225 134.571C61.733 135.168 61.4347 135.861 61.0179 136.589L60.3863 137.738C60.1669 138.137 59.9037 138.532 59.6493 138.953C59.1492 139.8 58.5351 140.651 57.8947 141.559C56.4703 143.489 54.9012 145.307 53.201 146.998C51.4766 148.666 49.6274 150.2 47.6694 151.587C46.7483 152.201 45.8841 152.802 45.0375 153.284C44.5988 153.53 44.2128 153.785 43.8092 154L42.6336 154.605C41.901 155.004 41.1992 155.294 40.5982 155.57C40.2955 155.702 40.0148 155.833 39.7516 155.943L39.0234 156.219L38.0189 156.592C37.903 156.642 37.7825 156.68 37.6592 156.706C37.7687 156.644 37.8831 156.591 38.0013 156.548L38.9927 156.136L39.7077 155.842C39.9709 155.728 40.2473 155.592 40.5456 155.451C41.1422 155.166 41.8352 154.868 42.559 154.46L43.7127 153.846C44.1119 153.627 44.5111 153.368 44.9322 153.122C45.7788 152.635 46.6342 152.03 47.5642 151.416C51.4715 148.659 54.9081 145.289 57.7411 141.436C58.3772 140.537 58.9957 139.682 59.4958 138.852C59.7546 138.436 60.0222 138.045 60.2459 137.651L60.882 136.51C61.3206 135.795 61.6145 135.106 61.9128 134.514C62.0576 134.216 62.2023 133.944 62.3208 133.685C62.4392 133.426 62.5357 133.189 62.6278 132.974C62.8077 132.562 62.9524 132.237 63.0665 131.992C63.1104 131.877 63.1602 131.764 63.2156 131.654Z" fill="#222222"/>
<g opacity="0.3">
<path d="M61.4343 135.453C58.4865 139.041 55.3983 141.642 51.0687 143.318C48.9939 144.116 46.8225 144.665 44.8134 145.617C42.8043 146.569 40.9093 148.003 39.9881 150.034C39.2907 151.604 39.6284 153.982 41.3041 154.324C41.9551 154.404 42.6155 154.302 43.2123 154.03C51.7881 150.92 57.4249 143.064 61.408 135.453" fill="black"/>
</g>
<path d="M30.7573 57.4062C28.9062 58.8582 28.7834 61.5735 28.8755 63.9248C28.9676 66.276 28.9939 68.9518 27.2787 70.5749C25.875 71.9128 23.4185 72.4085 23.015 74.3079C22.9128 74.7554 22.9536 75.2237 23.1317 75.6468C23.3098 76.0699 23.6161 76.4264 24.0075 76.6662C24.3989 76.906 24.8557 77.0169 25.3135 76.9834C25.7713 76.9499 26.207 76.7735 26.5593 76.4793C25.9628 77.9663 26.2347 79.8701 27.5025 80.8659C28.7702 81.8617 30.9854 81.3879 31.4504 79.8614C31.3786 80.1139 31.3587 80.3784 31.3922 80.6389C31.4256 80.8993 31.5116 81.1502 31.6449 81.3764C31.7782 81.6027 31.956 81.7994 32.1677 81.9549C32.3793 82.1103 32.6203 82.2211 32.8761 82.2805C33.1318 82.34 33.397 82.3469 33.6555 82.3009C33.914 82.2548 34.1604 82.1567 34.3799 82.0125C34.5993 81.8683 34.7872 81.6811 34.9321 81.4621C35.0771 81.2431 35.176 80.997 35.2229 80.7387" fill="#222222"/>
<path d="M57.6222 74.4306C57.7105 74.7388 57.8611 75.0254 58.0648 75.2729C58.2685 75.5204 58.5209 75.7233 58.8063 75.8691C59.0917 76.0149 59.4041 76.1005 59.724 76.1205C60.0438 76.1405 60.3644 76.0945 60.6658 75.9854C60.9672 75.8763 61.2429 75.7064 61.4758 75.4863C61.7088 75.2662 61.894 75.0005 62.0199 74.7058C62.1459 74.411 62.2099 74.0936 62.208 73.7731C62.2061 73.4526 62.1383 73.1359 62.0088 72.8427C61.6448 71.9303 60.6929 71.2416 60.6709 70.2633C60.6139 69.079 61.8597 68.2938 62.952 67.8332C64.0442 67.3726 65.3251 66.7584 65.4962 65.5872C65.6673 64.416 64.6891 63.5167 63.8732 62.714C63.0572 61.9112 62.272 60.6917 62.8467 59.7004C63.1406 59.1959 63.724 58.9239 64.1013 58.4809C64.9523 57.4983 64.6101 55.8489 63.6275 55.0111C62.6449 54.1732 61.2368 53.9802 59.9515 54.1337C58.6662 54.2873 57.438 54.7698 56.179 55.0812C54.0914 55.5851 51.9219 55.6504 49.8077 55.2728C47.6936 54.8953 45.6807 54.0832 43.8965 52.8879" fill="#222222"/>
<path d="M32.0175 66.4515L36.5314 92.6133C36.7184 93.7083 37.1203 94.7554 37.7139 95.6943C38.3075 96.6332 39.081 97.4453 39.9899 98.0839C40.8988 98.7225 41.9252 99.1749 43.0097 99.4149C44.0943 99.655 45.2156 99.6781 46.3091 99.4828C48.381 99.1117 50.2389 97.9783 51.5168 96.3058C52.7948 94.6333 53.4001 92.5429 53.2137 90.4463C53.0075 88.1258 52.832 86.2045 52.832 86.2045C52.832 86.2045 59.3857 84.52 58.8198 77.8699C58.5434 74.6501 57.4424 68.0658 56.372 62.1175C55.8171 59.0389 54.1234 56.282 51.628 54.3954C49.1327 52.5088 46.0185 51.6308 42.9051 51.9362L42.2647 51.9976C40.6331 52.2533 39.0694 52.8332 37.6656 53.7031C36.2619 54.573 35.0466 55.7153 34.0914 57.0625C33.1363 58.4097 32.4607 59.9346 32.1045 61.5472C31.7483 63.1597 31.7188 64.8273 32.0175 66.4515Z" fill="#B78876"/>
<path d="M54.9721 66.4119C55.0007 66.6594 54.9306 66.9082 54.7771 67.1044C54.6235 67.3007 54.3989 67.4285 54.1518 67.4603C54.0321 67.4822 53.9091 67.4799 53.7903 67.4533C53.6715 67.4268 53.5592 67.3766 53.4602 67.3058C53.3612 67.235 53.2774 67.145 53.2138 67.0412C53.1503 66.9374 53.1082 66.8218 53.0902 66.7014C53.0617 66.4539 53.1317 66.2051 53.2853 66.0089C53.4388 65.8127 53.6634 65.6848 53.9105 65.653C54.0303 65.6311 54.1532 65.6335 54.272 65.66C54.3908 65.6866 54.5031 65.7367 54.6021 65.8075C54.7012 65.8783 54.7849 65.9683 54.8485 66.0721C54.9121 66.176 54.9541 66.2915 54.9721 66.4119Z" fill="#222222"/>
<path d="M55.2627 65.5039C55.1574 65.6355 54.3854 65.1749 53.3633 65.2758C52.3412 65.3767 51.6394 65.9645 51.5165 65.8504C51.4595 65.7978 51.556 65.5653 51.8587 65.2933C52.2718 64.9427 52.7839 64.7296 53.3238 64.6836C53.8551 64.6306 54.3895 64.7474 54.8504 65.017C55.1881 65.2275 55.3154 65.4425 55.2627 65.5039Z" fill="#222222"/>
<path d="M44.9717 67.5832C44.9967 67.8303 44.9246 68.0773 44.7707 68.2721C44.6168 68.467 44.3931 68.5943 44.147 68.6272C44.0273 68.6485 43.9046 68.6457 43.786 68.6189C43.6674 68.5921 43.5554 68.5419 43.4565 68.4712C43.3576 68.4005 43.2739 68.3107 43.2101 68.2072C43.1464 68.1037 43.104 67.9885 43.0854 67.8683C43.0592 67.6213 43.1301 67.3737 43.2832 67.178C43.4363 66.9823 43.6596 66.8539 43.9057 66.8199C44.026 66.7987 44.1493 66.8016 44.2684 66.8286C44.3875 66.8557 44.5 66.9062 44.5993 66.9773C44.6986 67.0484 44.7827 67.1386 44.8466 67.2427C44.9106 67.3467 44.9531 67.4625 44.9717 67.5832Z" fill="#222222"/>
<path d="M45.2295 66.6708C45.1242 66.8068 44.3522 66.3462 43.3301 66.4471C42.308 66.548 41.6105 67.1358 41.4833 67.0217C41.4263 66.9691 41.5228 66.7366 41.8255 66.4646C42.2395 66.1155 42.7511 65.9025 43.2906 65.8549C43.822 65.7998 44.3571 65.9166 44.8172 66.1883C45.1549 66.3988 45.2646 66.6138 45.2295 66.6708Z" fill="#222222"/>
<path d="M49.6826 73.8956C49.6826 73.8342 50.2968 73.6631 51.3101 73.4306C51.5689 73.3779 51.8145 73.3034 51.8409 73.1191C51.8335 72.8485 51.7465 72.5861 51.5908 72.3646L50.6214 70.4521C49.2747 67.7236 48.2745 65.4733 48.3842 65.4206C48.4939 65.368 49.6739 67.535 51.0162 70.2459L51.9505 72.176C52.1449 72.4742 52.2273 72.8317 52.183 73.1849C52.1567 73.2834 52.1076 73.3744 52.0398 73.4506C51.9721 73.5267 51.8874 73.586 51.7926 73.6236C51.6509 73.6754 51.5037 73.7107 51.3539 73.7289C50.8057 73.8521 50.2444 73.9081 49.6826 73.8956Z" fill="#222222"/>
<path d="M45.1028 62.6351C45.0282 62.9247 43.9973 62.8896 42.813 63.1528C41.6286 63.416 40.6854 63.8371 40.5056 63.5914C40.4223 63.4818 40.5626 63.201 40.9443 62.8939C41.4315 62.5091 42.0026 62.2446 42.6112 62.1219C43.2182 61.9882 43.8484 62.0018 44.4492 62.1614C44.8922 62.3061 45.1335 62.5035 45.1028 62.6351Z" fill="#222222"/>
<path d="M54.5994 62.5781C54.4415 62.8281 53.7221 62.6571 52.8448 62.7273C51.9674 62.7974 51.2963 63.0387 51.0901 62.8106C51.0068 62.7009 51.0901 62.4553 51.3884 62.2052C51.7814 61.8946 52.2612 61.7137 52.7614 61.6876C53.2598 61.6469 53.7584 61.7635 54.1871 62.021C54.5424 62.2316 54.6652 62.4597 54.5994 62.5781Z" fill="#222222"/>
<path d="M38.5262 58.4501L38.4911 58.4852C37.5135 59.4233 36.9354 60.7023 36.8768 62.0559C36.8768 62.1042 36.8768 62.1524 36.8768 62.1919C36.8023 64.1176 37.0348 66.0434 36.9426 67.9647C36.8505 69.886 36.3812 71.8776 35.1047 73.3208C34.5826 73.913 33.6 74.3823 33.0649 73.7989C32.8787 73.5532 32.7661 73.2596 32.7403 72.9523C31.9419 68.4078 30.2925 64.4642 29.8363 59.6696C29.7709 59.0284 29.8597 58.3809 30.0955 57.7811C30.3313 57.1813 30.7072 56.6466 31.1918 56.2217C32.1217 55.4014 33.2754 54.5373 34.4423 54.9584C35.6091 55.3795 37.2541 57.3228 38.206 58.1211" fill="#222222"/>
<path d="M34.5524 69.2414C34.434 69.2063 29.85 68.3378 30.4378 72.8691C31.0256 77.4005 35.4561 75.8784 35.4473 75.7468C35.4385 75.6152 34.5524 69.2414 34.5524 69.2414Z" fill="#B78876"/>
<path d="M33.8587 74.2113C33.8587 74.2113 33.7885 74.2771 33.6613 74.3516C33.5742 74.4049 33.4774 74.4404 33.3766 74.4562C33.2757 74.472 33.1727 74.4678 33.0735 74.4437C32.5734 74.3297 32.069 73.6191 31.9418 72.8075C31.8795 72.4193 31.905 72.0221 32.0163 71.6451C32.0413 71.4978 32.1014 71.3588 32.1915 71.2397C32.2816 71.1205 32.3991 71.0249 32.534 70.9608C32.6215 70.9264 32.7182 70.9234 32.8077 70.9522C32.8973 70.9809 32.9741 71.0398 33.0253 71.1187C33.1042 71.2371 33.0867 71.3336 33.113 71.338C33.1393 71.3424 33.2007 71.2503 33.1393 71.066C33.0996 70.9565 33.0238 70.8636 32.9244 70.8028C32.7906 70.7292 32.6339 70.7088 32.4857 70.7458C32.304 70.8072 32.1409 70.914 32.0119 71.056C31.883 71.198 31.7924 71.3706 31.7487 71.5573C31.6062 71.9807 31.5686 72.4323 31.6391 72.8733C31.7882 73.7814 32.3673 74.5753 33.0472 74.6806C33.1735 74.7011 33.3028 74.6924 33.4253 74.6551C33.5477 74.6179 33.6599 74.5531 33.7534 74.4657C33.8587 74.3209 33.8587 74.2156 33.8587 74.2113Z" fill="#7C5142"/>
<path d="M34.352 55.678C33.036 53.9673 35.8698 51.0546 38.0456 50.129C40.2213 49.2034 43.2876 50.0061 45.5949 50.5282C47.0469 50.8615 48.5164 51.3748 49.9816 51.1686C50.9639 50.9723 51.9116 50.6308 52.7934 50.1553C53.6742 49.6719 54.6445 49.3733 55.6447 49.278C56.1457 49.2398 56.6475 49.3394 57.096 49.566C57.5444 49.7925 57.9224 50.1374 58.1889 50.5632C58.6539 51.4406 58.2372 52.7566 57.2634 52.9978C57.5629 52.7917 57.9079 52.6614 58.2689 52.6181C58.6299 52.5748 58.996 52.6198 59.3357 52.7492C59.6755 52.8785 59.9788 53.0885 60.2195 53.3609C60.4603 53.6334 60.6313 53.9602 60.7178 54.3133C60.8044 54.6664 60.8039 55.0353 60.7165 55.3882C60.6291 55.7411 60.4573 56.0675 60.2159 56.3393C59.9745 56.6112 59.6707 56.8204 59.3307 56.9489C58.9906 57.0775 58.6244 57.1216 58.2635 57.0774C58.8645 56.5247 59.9348 57.2397 59.9348 58.0512C59.9348 58.8627 59.2549 59.5295 58.5442 59.9287C56.7282 60.9464 54.491 60.8937 52.4644 60.4244C50.4378 59.955 48.5164 59.1084 46.4986 58.582C44.4807 58.0556 41.0987 57.1081 39.2124 57.9898C37.8262 58.6346 36.9928 60.4639 36.1418 60.1831C35.7391 60.016 35.3812 59.7566 35.097 59.426C34.8129 59.0953 34.6103 58.7026 34.5056 58.2793C34.3096 57.4285 34.2533 56.5514 34.3389 55.6824" fill="#222222"/>
<path d="M34.6104 70.0176C34.6669 72.427 34.9429 74.8261 35.435 77.1854C35.9268 79.5528 37.05 81.7431 38.6855 83.524C40.8788 85.7744 43.7565 87.9106 46.871 88.4414C50.2706 89.0029 54.4291 88.2923 57.1971 86.2481C58.513 85.2787 59.4649 83.1775 59.057 81.5895C59.6142 81.3266 60.091 80.9196 60.438 80.4106C60.7851 79.9016 60.9898 79.3091 61.031 78.6944C61.1012 77.4661 60.351 75.9308 59.3816 75.7685C60.1098 75.6457 60.3203 74.4876 60.044 73.834C59.7676 73.1804 58.807 72.983 58.0788 73.1233C57.3591 73.3117 56.6896 73.6562 56.118 74.1323C55.5496 74.6089 54.9083 74.991 54.2185 75.264C51.8673 76.0273 49.4854 73.948 47.0157 74.0489C44.7829 74.1367 42.7958 75.9922 40.5805 75.6807C39.9656 75.5635 39.3822 75.3182 38.8683 74.9608C38.3544 74.6033 37.9214 74.1416 37.5976 73.6059C36.9133 72.5575 37.2116 68.6841 36.944 67.4646" fill="#222222"/>
<g opacity="0.6">
<path d="M52.5278 80.4623C52.343 80.4191 52.1612 80.3634 51.9839 80.2956C51.5543 80.1727 51.1021 80.1504 50.6625 80.2302C50.2228 80.3101 49.8074 80.4901 49.4484 80.7562C49.1677 80.958 49.0098 81.1203 49.0098 81.0983C49.0098 81.0764 49.0975 80.8834 49.3651 80.6597C49.7254 80.3425 50.1655 80.1299 50.6379 80.0448C51.1104 79.9598 51.597 80.0055 52.0453 80.1772C52.3699 80.2868 52.541 80.4404 52.5278 80.4623Z" fill="#455A64"/>
</g>
<path d="M47.7259 75.4221C47.8926 75.3958 48.0023 76.5056 49.0419 77.1767C50.0816 77.8479 51.2352 77.6373 51.2616 77.7909C51.2835 77.8567 51.0203 78.0321 50.5202 78.0935C49.8722 78.1696 49.2181 78.0142 48.6735 77.6549C48.1518 77.3065 47.7866 76.7682 47.6558 76.1547C47.5549 75.7072 47.6514 75.4221 47.7259 75.4221Z" fill="white"/>
<path d="M44.4268 87.7002C44.526 87.7228 44.6218 87.7582 44.7119 87.8054C44.9005 87.8756 45.1769 87.9721 45.541 88.073C46.5727 88.3519 47.6317 88.5181 48.6993 88.5687C49.4304 88.6118 50.1638 88.5971 50.8926 88.5248C51.7332 88.4496 52.5637 88.2879 53.3711 88.0423C54.2625 87.7761 55.1128 87.3878 55.8978 86.8886C56.7514 86.3737 57.4964 85.6972 58.0911 84.8971C58.7976 83.955 59.112 82.776 58.9684 81.6071V81.515L59.0474 81.4799C59.593 81.2263 60.0654 80.8384 60.4204 80.3526C60.5926 80.1233 60.7396 79.8763 60.859 79.6156C60.9638 79.3625 61.0289 79.0946 61.0521 78.8216C61.0998 78.3275 61.0292 77.829 60.8461 77.3675C60.6631 76.9061 60.3728 76.4948 59.9993 76.1677L59.9335 76.1151L59.9861 76.0493C60.184 75.7982 60.3131 75.4999 60.3607 75.1838C60.4084 74.8677 60.373 74.5447 60.2581 74.2464C60.1679 74.0202 60.0316 73.8152 59.8579 73.6445C59.6842 73.4739 59.4769 73.3412 59.2492 73.255C58.9584 73.1389 58.6437 73.0952 58.3323 73.1278C58.1174 73.1541 58.0121 73.1936 58.0077 73.1804C58.109 73.1323 58.217 73.0997 58.328 73.0839C58.7447 73.0164 59.172 73.0887 59.5433 73.2894C59.9147 73.4902 60.2092 73.8081 60.3809 74.1938C60.5108 74.5154 60.5548 74.8652 60.5087 75.209C60.4625 75.5527 60.3278 75.8786 60.1177 76.1546V76.0361C60.5184 76.3782 60.8318 76.811 61.0316 77.2985C61.2315 77.7861 61.3122 78.3142 61.267 78.8392C61.2446 79.1406 61.175 79.4366 61.0608 79.7165C60.9336 79.9914 60.7793 80.253 60.6002 80.4973C60.2268 81.0182 59.7251 81.4337 59.1439 81.7036L59.2097 81.5721C59.3857 82.8004 59.0705 84.0487 58.3323 85.0462C57.7201 85.8699 56.9526 86.5658 56.0732 87.0948C55.2724 87.6045 54.4022 87.996 53.4895 88.2573C52.6679 88.5042 51.8224 88.663 50.9672 88.731C50.2241 88.7899 49.4775 88.7899 48.7344 88.731C47.6585 88.6637 46.5941 88.4709 45.5629 88.1564C45.2833 88.0695 45.0094 87.9654 44.7426 87.8449C44.6324 87.8081 44.5266 87.7596 44.4268 87.7002Z" fill="#455A64"/>
<path d="M24.5425 76.1241C24.4585 76.101 24.3796 76.0623 24.31 76.01C24.1123 75.862 23.9603 75.6613 23.8713 75.431C23.7231 75.0604 23.691 74.6534 23.7792 74.2641C23.9176 73.7487 24.2269 73.2955 24.6565 72.9789C25.1612 72.5985 25.7241 72.3022 26.3234 72.1015C26.9951 71.8905 27.6444 71.6143 28.2623 71.2769C28.9125 70.8653 29.422 70.2655 29.7231 69.5573C30.0533 68.7952 30.2292 67.9752 30.2407 67.1447C30.2758 65.4295 29.881 63.8021 29.8371 62.2887C29.7933 60.7753 30.0565 59.3628 30.7452 58.4153C31.261 57.6557 32.0441 57.1185 32.9385 56.9107C33.181 56.8623 33.4294 56.8505 33.6754 56.8756C33.7613 56.8855 33.8463 56.9017 33.9298 56.9238C33.6049 56.9083 33.2792 56.9334 32.9604 56.9984C32.0984 57.2261 31.3504 57.7633 30.8592 58.5074C30.2188 59.4286 29.9512 60.7972 30.0301 62.2799C30.1091 63.7626 30.4688 65.39 30.4688 67.1534C30.4505 68.0156 30.2612 68.8655 29.9117 69.6538C29.5892 70.401 29.0458 71.0317 28.3544 71.4611C27.7197 71.8047 27.0507 72.0811 26.3585 72.2858C25.7763 72.4699 25.227 72.7453 24.7311 73.1017C24.3238 73.3901 24.0255 73.8073 23.8845 74.2861C23.7889 74.651 23.8057 75.0363 23.9327 75.3915C24.0484 75.697 24.263 75.9549 24.5425 76.1241Z" fill="#455A64"/>
<path d="M57.4295 52.9232C57.4917 52.8854 57.5579 52.8545 57.6269 52.8311C57.7102 52.7939 57.7969 52.7645 57.8857 52.7434C58.0047 52.7083 58.1265 52.6833 58.2498 52.6688C58.6591 52.6242 59.0733 52.6733 59.4608 52.8124C59.8484 52.9515 60.1993 53.1769 60.4869 53.4716C60.7746 53.8573 60.9828 54.2964 61.0995 54.7633C61.2162 55.2301 61.2391 55.7155 61.1669 56.1913C61.0808 56.7813 60.8773 57.3482 60.5683 57.8583C60.2594 58.3683 59.8514 58.8113 59.3683 59.161C58.2561 59.9708 56.9269 60.4291 55.552 60.477C54.0614 60.5357 52.5703 60.3761 51.1259 60.0032C48.8315 59.4401 46.6545 58.4763 44.6951 57.1563C43.8575 56.5805 42.9777 56.0688 42.0631 55.6254C41.2621 55.2547 40.3996 55.0347 39.5189 54.9762C38.2359 54.8875 36.9515 55.126 35.7859 55.6692C34.9656 56.0553 34.5752 56.3887 34.5576 56.3623C34.9179 56.0522 35.3176 55.7911 35.7464 55.5859C36.9189 55.0061 38.2217 54.7401 39.5277 54.8139C40.4369 54.8605 41.3295 55.0762 42.1596 55.4499C43.0874 55.8922 43.9804 56.404 44.8311 56.9808C46.7765 58.2748 48.9316 59.2217 51.2005 59.7795C52.6226 60.1528 54.0912 60.3182 55.5608 60.2708C56.8938 60.2241 58.1834 59.7846 59.2675 59.0075C59.7328 58.6746 60.1275 58.2528 60.4287 57.7664C60.7299 57.28 60.9316 56.7386 61.0221 56.1737C61.0994 55.7165 61.0853 55.2485 60.9807 54.7967C60.876 54.3449 60.6828 53.9184 60.4124 53.5417C60.1402 53.2565 59.8083 53.035 59.4405 52.8932C59.0727 52.7514 58.678 52.6927 58.2848 52.7214C57.9949 52.7666 57.709 52.8341 57.4295 52.9232Z" fill="#455A64"/>
<path d="M55.1048 49.0583C55.1044 49.4037 55.0342 49.7453 54.8986 50.0629C54.5183 50.9357 53.8575 51.6566 53.0212 52.1114C52.4564 52.4401 51.8366 52.663 51.1919 52.7694C50.453 52.8771 49.7024 52.8771 48.9635 52.7694C47.3975 52.572 45.7788 51.9579 44.0768 51.4271C42.3748 50.8963 40.6597 50.5805 39.1507 50.9051C37.8135 51.1972 36.6025 51.9032 35.6896 52.923C35.0678 53.6031 34.5916 54.4033 34.2903 55.2742C34.0885 55.8971 34.049 56.2612 34.0227 56.2568C34.012 56.1694 34.012 56.081 34.0227 55.9936C34.0578 55.7413 34.1121 55.492 34.185 55.2479C34.4575 54.3469 34.923 53.5161 35.5492 52.8133C36.4711 51.7482 37.7104 51.0071 39.0849 50.6989C40.6465 50.3524 42.4099 50.6726 44.1207 51.2078C45.8315 51.743 47.437 52.3571 48.9679 52.5589C49.6879 52.664 50.4193 52.664 51.1393 52.5589C51.7648 52.4643 52.3681 52.2577 52.9203 51.9491C53.7378 51.5203 54.3948 50.8386 54.7934 50.0059C54.9222 49.6988 55.0264 49.382 55.1048 49.0583Z" fill="#455A64"/>
<path d="M88.3072 21.2952C88.2677 21.3434 85.8024 19.3387 82.7976 16.8164C79.7927 14.2941 77.3932 12.1885 77.4371 12.1578C77.481 12.1271 79.9419 14.1143 82.9467 16.6409C85.9515 19.1676 88.351 21.2469 88.3072 21.2952Z" fill="#222222"/>
<path d="M100.816 18.2904C100.755 18.2904 100.505 14.395 100.264 9.58291C100.022 4.77079 99.8733 0.866695 99.9347 0.862308C99.9961 0.857922 100.246 4.75763 100.492 9.57414C100.737 14.3906 100.878 18.2904 100.816 18.2904Z" fill="#222222"/>
<path d="M92.8516 15.505C92.7902 15.505 92.0225 13.3117 91.1321 10.535C90.2416 7.75824 89.5704 5.51667 89.6318 5.49913C89.6932 5.48158 90.4609 7.69244 91.3514 10.4648C92.2419 13.2371 92.9086 15.4875 92.8516 15.505Z" fill="#222222"/>
<path d="M85.7492 25.4098C84.594 25.0034 83.4646 24.5273 82.3671 23.9841C81.2374 23.5079 80.1386 22.9614 79.0771 22.3479C80.2323 22.7543 81.3617 23.2304 82.4592 23.7736C83.5885 24.2508 84.6872 24.7973 85.7492 25.4098Z" fill="#222222"/>
<path d="M74.2165 20.3698C74.2165 20.4312 73.8436 20.44 73.4006 20.3698C72.9575 20.2996 72.6066 20.2207 72.6154 20.1593C72.6242 20.0979 72.9883 20.0891 73.4269 20.1593C73.8656 20.2295 74.2165 20.3084 74.2165 20.3698Z" fill="#222222"/>
<path d="M89.9158 2.66533C89.85 2.66533 89.8018 2.31001 89.8018 1.86696C89.8018 1.42391 89.85 1.06421 89.9158 1.06421C89.9816 1.06421 90.0299 1.42391 90.0299 1.86696C90.0299 2.31001 89.9772 2.66533 89.9158 2.66533Z" fill="#222222"/>
<path d="M116.328 8.85891C116.377 8.90278 114.35 11.2233 111.81 14.0439C109.27 16.8645 107.173 19.1192 107.116 19.0753C107.059 19.0315 109.095 16.7153 111.635 13.8904C114.174 11.0654 116.284 8.81943 116.328 8.85891Z" fill="#222222"/>
<path d="M119.553 5.66984C119.597 5.7137 119.364 6.02076 119.031 6.35415C118.698 6.68753 118.395 6.91563 118.351 6.87177C118.307 6.8279 118.54 6.52084 118.873 6.19184C119.206 5.86285 119.509 5.60842 119.553 5.66984Z" fill="#222222"/>
<path d="M127.37 16.8999C127.181 17.0354 126.982 17.1543 126.773 17.2552C126.383 17.4702 125.812 17.7728 125.102 18.1325C123.676 18.852 121.68 19.7907 119.434 20.725C117.188 21.6594 115.113 22.4051 113.596 22.9183C112.841 23.1684 112.227 23.357 111.797 23.4842C111.58 23.5632 111.355 23.6205 111.126 23.6553C111.333 23.5527 111.549 23.4675 111.771 23.4009L113.525 22.7648C115.026 22.2253 117.083 21.4488 119.329 20.5276C121.575 19.6064 123.571 18.6809 125.032 18.0009L126.734 17.1938C126.938 17.0803 127.151 16.982 127.37 16.8999Z" fill="#222222"/>
<path d="M120.956 27.6997C120.581 27.8666 120.19 27.9945 119.789 28.0813C119.061 28.2831 118.034 28.52 116.903 28.7174C115.771 28.9148 114.709 29.0245 113.968 29.0771C113.562 29.1288 113.152 29.1361 112.744 29.099C113.142 29.0072 113.547 28.9457 113.955 28.9148C114.701 28.8227 115.731 28.6823 116.863 28.4761C117.995 28.27 119.017 28.0726 119.754 27.9147C120.147 27.8062 120.549 27.7342 120.956 27.6997Z" fill="#222222"/>
<path d="M126.786 26.6206C125.951 26.7727 125.095 26.7727 124.26 26.6206C125.095 26.4686 125.951 26.4686 126.786 26.6206Z" fill="#222222"/>
</svg>
