<svg width="178" height="147" viewBox="0 0 178 147" fill="none" xmlns="http://www.w3.org/2000/svg">
<g clip-path="url(#clip0_409_3567)">
<path d="M100.151 135.394C100.342 129.045 95.3513 123.744 89.0032 123.553C82.6551 123.362 77.3539 128.353 77.1627 134.701C76.9714 141.049 81.9625 146.35 88.3106 146.542C94.6587 146.733 99.9599 141.742 100.151 135.394Z" fill="#F8AC46"/>
<path d="M64.4004 105.6C70.8004 99.1998 80.3004 95.0998 88.5004 95.0998H89.0004C97.2004 95.0998 106.6 99.1998 113.1 105.6C115.8 108.3 120.2 108.3 122.9 105.6C125.6 102.9 125.6 98.4998 122.9 95.7998C113.9 86.7998 100.9 81.2998 89.1004 81.2998H88.6004C76.8004 81.2998 63.8004 86.8998 54.8004 95.7998C52.1004 98.4998 52.1004 102.9 54.8004 105.6C56.2004 107 57.9004 107.7 59.7004 107.7C61.2004 107.6 63.0004 107 64.4004 105.6Z" fill="#EEEEEE"/>
<path d="M150.6 76.7996C153.3 74.0996 153.3 69.6996 150.6 66.9996C133.7 49.9996 111.8 40.5996 89 40.5996C66.2 40.5996 44.3 49.9996 27.4 66.9996C24.7 69.6996 24.7 74.0996 27.4 76.7996C30.1 79.4996 34.5 79.4996 37.2 76.7996C51.5 62.3996 69.9 54.4996 89 54.4996C108.1 54.4996 126.5 62.3996 140.7 76.7996C142.1 78.1996 143.8 78.8996 145.6 78.8996C147.4 78.7996 149.2 78.0996 150.6 76.7996Z" fill="#EEEEEE"/>
<path d="M175.8 47.9997C178.6 45.3997 178.8 40.9997 176.1 38.1997C153.3 13.6997 122.3 0.199707 89.0002 0.199707C55.7002 0.199707 24.7002 13.6997 1.90024 38.1997C-0.699761 40.9997 -0.599761 45.3997 2.20024 47.9997C5.00024 50.5997 9.40024 50.4997 12.0002 47.6997C32.2002 25.9997 59.5002 14.0997 89.0002 14.0997C118.4 14.0997 145.8 25.9997 166 47.6997C167.4 49.1997 169.2 49.8997 171.1 49.8997C172.7 49.8997 174.4 49.2997 175.8 47.9997Z" fill="#EEEEEE"/>
</g>
<defs>
<clipPath id="clip0_409_3567">
<rect width="178" height="146.4" fill="white" transform="translate(0 0.199707)"/>
</clipPath>
</defs>
</svg>
