<svg width="178" height="148" viewBox="0 0 178 148" fill="none" xmlns="http://www.w3.org/2000/svg">
<g clip-path="url(#clip0_409_3562)">
<path d="M100.151 135.993C100.342 129.645 95.3513 124.344 89.0032 124.153C82.6551 123.962 77.3539 128.953 77.1627 135.301C76.9714 141.649 81.9625 146.95 88.3106 147.141C94.6587 147.333 99.9599 142.342 100.151 135.993Z" fill="#F8AC46"/>
<path d="M64.4004 106.2C70.8004 99.7999 80.3004 95.6999 88.5004 95.6999H89.0004C97.2004 95.6999 106.6 99.7999 113.1 106.2C115.8 108.9 120.2 108.9 122.9 106.2C125.6 103.5 125.6 99.0999 122.9 96.3999C113.9 87.3999 100.9 81.8999 89.1004 81.8999H88.6004C76.8004 81.8999 63.8004 87.4999 54.8004 96.3999C52.1004 99.0999 52.1004 103.5 54.8004 106.2C56.2004 107.6 57.9004 108.3 59.7004 108.3C61.2004 108.2 63.0004 107.6 64.4004 106.2Z" fill="#F8AC46"/>
<path d="M150.6 77.3997C153.3 74.6997 153.3 70.2997 150.6 67.5997C133.7 50.5997 111.8 41.1997 89 41.1997C66.2 41.1997 44.3 50.5997 27.4 67.5997C24.7 70.2997 24.7 74.6997 27.4 77.3997C30.1 80.0997 34.5 80.0997 37.2 77.3997C51.5 62.9997 69.9 55.0997 89 55.0997C108.1 55.0997 126.5 62.9997 140.7 77.3997C142.1 78.7997 143.8 79.4997 145.6 79.4997C147.4 79.3997 149.2 78.6997 150.6 77.3997Z" fill="#EEEEEE"/>
<path d="M175.8 48.5998C178.6 45.9998 178.8 41.5998 176.1 38.7998C153.3 14.2998 122.3 0.799805 89.0002 0.799805C55.7002 0.799805 24.7002 14.2998 1.90024 38.7998C-0.699761 41.5998 -0.599761 45.9998 2.20024 48.5998C5.00024 51.1998 9.40024 51.0998 12.0002 48.2998C32.2002 26.5998 59.5002 14.6998 89.0002 14.6998C118.4 14.6998 145.8 26.5998 166 48.2998C167.4 49.7998 169.2 50.4998 171.1 50.4998C172.7 50.4998 174.4 49.8998 175.8 48.5998Z" fill="#EEEEEE"/>
</g>
<defs>
<clipPath id="clip0_409_3562">
<rect width="178" height="146.4" fill="white" transform="translate(0 0.799805)"/>
</clipPath>
</defs>
</svg>
