<svg width="291" height="71" viewBox="0 0 291 71" fill="none" xmlns="http://www.w3.org/2000/svg">
<g clip-path="url(#clip0_1375_3589)">
<path d="M20.0781 32.3089C20.0781 31.6441 20.212 31.0458 20.4797 30.514C20.7474 29.9821 21.149 29.6497 21.6175 29.3838C22.1529 29.1179 22.8222 28.985 23.5584 28.985C24.0938 28.985 24.5623 29.1179 25.1646 29.3173C25.7 29.5168 26.2354 29.8492 26.7709 30.3145L28.9795 24.9297C28.1763 24.132 27.2394 23.5336 26.1016 23.1348C24.9638 22.6694 23.7591 22.47 22.4206 22.47C20.5466 22.47 18.8734 22.8688 17.401 23.7331C15.9956 24.5308 14.8578 25.7275 14.0547 27.1235C13.2515 28.5861 12.85 30.1816 12.85 32.043V35.367H8.09814V41.616H12.85V65.2162C13.3854 65.2162 13.9208 65.2162 14.5232 65.2162C15.1255 65.2162 15.7948 65.2162 16.4641 65.2162H20.0781V41.616H26.9716V35.367H20.0781V32.3089Z" fill="#FBFDFD"/>
<path d="M51.6007 36.1646C49.1913 34.7686 46.5142 34.1038 43.4356 34.1038C40.3569 34.1038 37.6129 34.7686 35.2035 36.1646C32.7941 37.5607 30.9202 39.4221 29.5147 41.8154C28.1092 44.2086 27.4399 46.9343 27.4399 49.9923C27.4399 53.0504 28.1092 55.776 29.5147 58.1693C30.9202 60.5626 32.7941 62.424 35.2035 63.8201C37.6798 65.0832 40.4238 65.8144 43.5025 65.8144C46.5142 65.8144 49.2582 65.1496 51.6676 63.7536C54.077 62.3575 55.951 60.4961 57.3565 58.1028C58.7619 55.7096 59.4312 52.9839 59.4312 49.9259C59.4312 46.8678 58.7619 44.1421 57.3565 41.7489C55.951 39.4221 54.0101 37.5607 51.6007 36.1646ZM50.9984 54.8453C50.2622 56.2414 49.1913 57.438 47.9197 58.2358C46.6481 59.1 45.1088 59.4989 43.5025 59.4989C41.8293 59.4989 40.3569 59.1 39.0184 58.2358C37.6798 57.3715 36.6759 56.2414 35.9397 54.8453C35.2035 53.4493 34.8019 51.7873 34.8019 49.9923C34.8019 48.1974 35.2035 46.5354 35.9397 45.1393C36.6759 43.6768 37.7467 42.5466 39.0184 41.7489C40.3569 40.9511 41.8293 40.4858 43.5025 40.4858C45.1757 40.4858 46.6481 40.8847 47.9197 41.7489C49.1913 42.5466 50.2622 43.6768 50.9984 45.1393C51.7346 46.5354 52.1361 48.1974 52.0692 50.0588C52.1361 51.7873 51.8015 53.3828 50.9984 54.8453Z" fill="#FBFDFD"/>
<path d="M86.7379 36.1646C84.3285 34.7686 81.6514 34.1038 78.5728 34.1038C75.4941 34.1038 72.7501 34.7686 70.3407 36.1646C67.9313 37.5607 66.0574 39.4221 64.6519 41.8154C63.2464 44.2086 62.5771 46.9343 62.5771 49.9923C62.5771 53.0504 63.2464 55.776 64.6519 58.1693C66.0574 60.5626 67.9313 62.424 70.3407 63.8201C72.7501 65.2161 75.4941 65.8809 78.5728 65.8809C81.5845 65.8809 84.3285 65.2161 86.7379 63.8201C89.1473 62.424 91.0213 60.5626 92.4267 58.1693C93.8322 55.776 94.5015 53.0504 94.5015 49.9923C94.5015 46.9343 93.8322 44.2086 92.4267 41.8154C91.0882 39.4221 89.1473 37.5607 86.7379 36.1646ZM86.1356 54.8453C85.3994 56.2414 84.3285 57.438 83.0569 58.2358C81.7853 59.1 80.246 59.4989 78.6397 59.4989C76.9665 59.4989 75.4941 59.1 74.1556 58.2358C72.817 57.3715 71.7462 56.2414 71.0769 54.8453C70.3407 53.4493 69.9392 51.7873 69.9392 49.9923C69.9392 48.1974 70.3407 46.5354 71.0769 45.1393C71.8131 43.6768 72.884 42.5466 74.1556 41.7489C75.4941 40.9511 76.9665 40.4858 78.6397 40.4858C80.3129 40.4858 81.7853 40.8847 83.0569 41.7489C84.3285 42.5466 85.3994 43.6768 86.1356 45.1393C86.8718 46.5354 87.2733 48.1974 87.2064 50.0588C87.2733 51.7873 86.9387 53.3828 86.1356 54.8453Z" fill="#FBFDFD"/>
<path d="M121.741 38.2921C121.272 37.7602 120.67 37.2284 120.001 36.6966C118.93 35.8988 117.658 35.3005 116.32 34.8351C114.914 34.3698 113.509 34.1703 112.036 34.1703C109.292 34.1703 106.883 34.8351 104.741 36.2312C102.6 37.6273 100.859 39.4887 99.6547 41.882C98.3831 44.2752 97.7808 47.0009 97.7808 50.0589C97.7808 53.117 98.3831 55.8426 99.6547 58.2359C100.926 60.6291 102.6 62.4906 104.741 63.8202C106.883 65.2162 109.359 65.881 112.036 65.881C113.442 65.881 114.78 65.6816 116.119 65.2162C117.457 64.7509 118.662 64.219 119.666 63.4213C120.536 62.823 121.272 62.0917 121.808 61.3604L121.875 65.2827H128.768V22.47H121.607V38.2921H121.741ZM120.871 55.0449C120.134 56.5074 119.131 57.6376 117.859 58.5018C116.587 59.366 115.115 59.7649 113.442 59.7649C111.769 59.7649 110.296 59.366 109.025 58.5018C107.753 57.6376 106.749 56.5074 106.013 55.0449C105.277 53.5823 104.942 51.8539 104.942 49.9924C104.942 48.131 105.277 46.4026 106.013 44.94C106.749 43.4775 107.753 42.2808 109.025 41.4831C110.296 40.6853 111.769 40.22 113.442 40.22C115.115 40.22 116.587 40.6188 117.859 41.4831C119.131 42.2808 120.134 43.4775 120.871 44.94C121.607 46.4026 121.942 48.131 121.942 49.9924C121.942 51.9203 121.607 53.5823 120.871 55.0449Z" fill="#FBFDFD"/>
<path d="M158.551 38.3584C157.279 37.0289 155.74 35.9652 154 35.2339C152.26 34.4362 150.386 34.1038 148.378 34.1038C146.102 34.1038 143.961 34.5026 142.087 35.3004C140.146 36.0981 138.539 37.2283 137.134 38.6244C135.728 40.0869 134.658 41.7489 133.921 43.7433C133.118 45.7377 132.784 47.865 132.784 50.2583C132.784 53.2498 133.453 55.909 134.858 58.2358C136.264 60.5626 138.138 62.424 140.614 63.7536C143.091 65.0832 145.901 65.748 149.114 65.748C150.519 65.748 151.992 65.5485 153.464 65.1496C154.937 64.7508 156.342 64.2189 157.681 63.5541C159.019 62.8893 160.224 62.0916 161.228 61.0944L157.681 56.1749C156.275 57.3715 155.004 58.1693 153.799 58.6347C152.594 59.1 151.256 59.2994 149.85 59.2994C147.775 59.2994 145.968 58.9006 144.496 58.1028C142.957 57.3051 141.752 56.1749 140.949 54.7124C140.413 53.7152 140.012 52.6515 139.811 51.3884H162.432L162.499 48.9287C162.566 46.8013 162.232 44.8069 161.562 42.9455C160.826 41.2835 159.822 39.688 158.551 38.3584ZM143.559 41.483C144.831 40.7517 146.437 40.3528 148.378 40.3528C149.649 40.3528 150.72 40.6187 151.791 41.1506C152.795 41.6824 153.665 42.4137 154.334 43.2779C155.004 44.2086 155.405 45.2058 155.472 46.4025V46.6684H139.945C140.079 45.8706 140.346 45.2058 140.614 44.541C141.283 43.2779 142.287 42.2142 143.559 41.483Z" fill="#FBFDFD"/>
<path d="M188.267 39.0899C187.664 38.2257 186.928 37.4279 186.125 36.6966C185.188 35.8989 184.05 35.2341 182.779 34.8352C181.507 34.3698 180.101 34.1704 178.562 34.1704C175.885 34.1704 173.476 34.8352 171.334 36.1648C169.192 37.4944 167.519 39.3558 166.247 41.7491C164.976 44.1423 164.374 46.868 164.374 49.926C164.374 52.9841 164.976 55.7097 166.247 58.103C167.519 60.4963 169.125 62.3577 171.2 63.7537C173.275 65.1498 175.55 65.8146 178.094 65.8146C179.566 65.8146 180.972 65.6152 182.243 65.1498C183.515 64.6845 184.719 64.0861 185.79 63.3549C186.794 62.6901 187.597 61.8923 188.267 61.0281V65.2828H195.562V34.7687H188.334V39.0899H188.267ZM184.452 58.3024C183.18 59.1002 181.708 59.4991 180.035 59.4991C178.361 59.4991 176.889 59.1002 175.617 58.3024C174.346 57.5047 173.409 56.3745 172.673 54.912C172.003 53.4494 171.602 51.7874 171.602 49.926C171.602 48.0646 171.936 46.4691 172.673 45.0065C173.342 43.6105 174.346 42.4803 175.617 41.6826C176.889 40.8848 178.361 40.486 180.035 40.486C181.708 40.486 183.18 40.8848 184.452 41.6826C185.723 42.4803 186.727 43.6105 187.463 45.0065C188.2 46.4026 188.534 48.0646 188.534 49.926C188.534 51.7874 188.2 53.4494 187.463 54.912C186.727 56.3745 185.723 57.5047 184.452 58.3024Z" fill="#FBFDFD"/>
<path d="M221.396 50.8566C220.659 50.0588 219.656 49.3275 218.384 48.7292C217.112 48.1309 215.506 47.5326 213.632 47.0672C212.294 46.7348 211.156 46.4025 210.286 46.0701C209.416 45.7377 208.813 45.4053 208.345 45.1393C207.943 44.8734 207.676 44.541 207.475 44.1421C207.274 43.7433 207.14 43.2779 207.073 42.8126C207.073 42.2807 207.207 41.8154 207.408 41.4165C207.609 41.0176 207.943 40.6852 208.278 40.4193C208.679 40.1534 209.148 39.9539 209.75 39.821C210.353 39.688 211.022 39.6215 211.758 39.6215C212.561 39.6215 213.364 39.7545 214.234 40.0869C215.104 40.4193 216.041 40.8182 216.912 41.4165C217.782 41.9483 218.585 42.5466 219.321 43.2779L223.27 38.9568C222.4 37.9596 221.329 37.0953 220.057 36.3641C218.785 35.6328 217.447 35.101 215.975 34.7021C214.502 34.3032 213.03 34.1038 211.49 34.1038C209.951 34.1038 208.546 34.3032 207.14 34.7686C205.735 35.1674 204.53 35.8322 203.459 36.63C202.388 37.4277 201.585 38.4249 200.983 39.4886C200.38 40.6187 200.113 41.8154 200.113 43.145C200.113 44.2086 200.247 45.2058 200.581 46.1365C200.916 47.0672 201.384 47.865 202.054 48.5963C202.857 49.4605 203.928 50.2583 205.333 50.9895C206.739 51.7208 208.479 52.3191 210.553 52.851C211.892 53.1833 212.963 53.4493 213.766 53.7817C214.569 54.1141 215.238 54.38 215.573 54.6459C216.242 55.1777 216.644 55.909 216.644 56.8397C216.644 57.3715 216.51 57.7704 216.309 58.1693C216.108 58.5682 215.774 58.9006 215.439 59.233C215.038 59.5654 214.569 59.7648 214.101 59.8978C213.565 60.0307 212.963 60.0972 212.294 60.0972C210.687 60.0972 209.215 59.8313 207.742 59.233C206.337 58.6347 204.998 57.7039 203.861 56.3744L199.176 60.3631C200.514 62.0916 202.254 63.3547 204.463 64.2854C206.605 65.2161 209.081 65.615 211.758 65.615C213.967 65.615 215.975 65.2161 217.715 64.4184C219.455 63.6206 220.86 62.4905 221.931 61.0944C222.935 59.6983 223.47 58.0363 223.47 56.2414C223.47 55.1112 223.337 54.1141 223.002 53.1833C222.6 52.3856 222.132 51.5878 221.396 50.8566Z" fill="#FBFDFD"/>
<path d="M256.265 49.1283C256.331 47.0009 255.997 45.0066 255.328 43.1451C254.658 41.2837 253.654 39.7547 252.383 38.4251C251.111 37.0955 249.572 36.0318 247.832 35.3006C246.092 34.5028 244.218 34.1704 242.21 34.1704C239.934 34.1704 237.793 34.5693 235.919 35.367C233.978 36.1648 232.371 37.2949 230.966 38.691C229.561 40.1536 228.49 41.8155 227.753 43.8099C226.95 45.8043 226.616 47.9316 226.616 50.3249C226.616 53.3165 227.285 55.9757 228.69 58.3024C230.096 60.6292 231.97 62.4906 234.446 63.8202C236.923 65.1498 239.733 65.8146 242.946 65.8146C244.351 65.8146 245.824 65.6152 247.296 65.2163C248.769 64.8174 250.174 64.2856 251.513 63.6208C252.851 62.956 254.056 62.1582 255.06 61.161L251.513 56.2416C250.107 57.4382 248.836 58.236 247.631 58.7013C246.426 59.1667 245.088 59.3661 243.682 59.3661C241.607 59.3661 239.8 58.9672 238.328 58.1695C236.789 57.3717 235.584 56.2416 234.781 54.779C234.245 53.7818 233.844 52.7182 233.643 51.4551H256.265V49.1283ZM237.391 41.4831C238.663 40.7519 240.269 40.353 242.21 40.353C243.481 40.353 244.552 40.6189 245.623 41.1507C246.627 41.6826 247.497 42.4139 248.166 43.2781C248.836 44.2088 249.237 45.206 249.304 46.4026V46.6685H233.777C233.911 45.8708 234.178 45.206 234.446 44.5412C235.115 43.2781 236.119 42.2144 237.391 41.4831Z" fill="#FBFDFD"/>
<path d="M283.37 39.8876H266.572C265.166 39.8876 264.028 38.7575 264.028 37.3614C264.028 35.9654 265.166 34.8352 266.572 34.8352H283.37C284.776 34.8352 285.914 35.9654 285.914 37.3614C285.914 38.7575 284.776 39.8876 283.37 39.8876Z" fill="#F7AC46"/>
<path d="M264.898 29.251C264.229 29.251 263.56 28.9851 263.091 28.5197C262.087 27.5225 262.087 25.927 263.091 24.9298L275.874 12.2323C276.878 11.2351 278.485 11.2351 279.489 12.2323C280.492 13.2295 280.492 14.825 279.489 15.8222L266.705 28.5197C266.237 28.9851 265.568 29.251 264.898 29.251Z" fill="#F7AC46"/>
<path d="M254.391 27.3231C252.985 27.3231 251.848 26.1929 251.848 24.7968V8.04404C251.848 6.64797 252.985 5.51782 254.391 5.51782C255.796 5.51782 256.934 6.64797 256.934 8.04404V24.7304C257.001 26.1929 255.863 27.3231 254.391 27.3231Z" fill="#F7AC46"/>
</g>
<defs>
<clipPath id="clip0_1375_3589">
<rect width="291" height="71" fill="white"/>
</clipPath>
</defs>
</svg>
