<svg width="19" height="22" viewBox="0 0 19 22" fill="none" xmlns="http://www.w3.org/2000/svg">
<path d="M15.7655 11.6262C15.7548 9.82294 16.5884 8.46385 18.2717 7.46173C17.3302 6.13967 15.9058 5.41253 14.0282 5.27239C12.2504 5.1349 10.3053 6.28774 9.59313 6.28774C8.84047 6.28774 7.11931 5.31999 5.76505 5.31999C2.9702 5.36229 0 7.50403 0 11.8616C0 13.1492 0.240098 14.4792 0.720294 15.8489C1.36235 17.6522 3.67701 22.0705 6.09148 21.9991C7.35402 21.9701 8.24696 21.1213 9.88988 21.1213C11.4842 21.1213 12.3097 21.9991 13.718 21.9991C16.154 21.9648 18.2475 17.9483 18.8571 16.1398C15.5902 14.63 15.7655 11.7188 15.7655 11.6262ZM12.9302 3.56164C14.298 1.96988 14.1739 0.520893 14.1334 0C12.9248 0.0687473 11.5274 0.806459 10.7316 1.71339C9.85481 2.68643 9.33955 3.88951 9.45015 5.24595C10.7559 5.34378 11.9483 4.68539 12.9302 3.56164Z" fill="#222222"/>
</svg>
