<svg fill="none" height="24" viewBox="0 0 24 24" width="24" xmlns="http://www.w3.org/2000/svg"><path d="m5.3163 19.4384c.60832-1.4332 2.02862-2.4384 3.6837-2.4384h6c1.6551 0 3.0754 1.0052 3.6837 2.4384m-2.6837-9.9384c0 2.2091-1.7909 4-4 4-2.20914 0-4-1.7909-4-4 0-2.20914 1.79086-4 4-4 2.2091 0 4 1.79086 4 4zm6 2.5c0 5.5228-4.4772 10-10 10-5.52285 0-10-4.4772-10-10 0-5.52285 4.47715-10 10-10 5.5228 0 10 4.47715 10 10z" stroke="#000" stroke-linecap="round" stroke-linejoin="round" stroke-width="2"/></svg>