<svg width="22" height="22" viewBox="0 0 22 22" fill="none" xmlns="http://www.w3.org/2000/svg">
<path d="M19.3238 7.86519V14.1352C19.3238 15.1618 18.7738 16.1152 17.8846 16.6377L12.4396 19.7819C11.5505 20.2952 10.4505 20.2952 9.55214 19.7819L4.10714 16.6377C3.21797 16.1244 2.66797 15.171 2.66797 14.1352V7.86519C2.66797 6.83853 3.21797 5.88516 4.10714 5.36266L9.55214 2.2185C10.4413 1.70516 11.5413 1.70516 12.4396 2.2185L17.8846 5.36266C18.7738 5.88516 19.3238 6.82936 19.3238 7.86519Z" stroke="#4E878C" stroke-width="1.3" stroke-linecap="round" stroke-linejoin="round"/>
<path d="M11.0001 10.0837C12.1797 10.0837 13.1359 9.12739 13.1359 7.9478C13.1359 6.76822 12.1797 5.81201 11.0001 5.81201C9.8205 5.81201 8.86426 6.76822 8.86426 7.9478C8.86426 9.12739 9.8205 10.0837 11.0001 10.0837Z" stroke="#4E878C" stroke-width="1.3" stroke-linecap="round" stroke-linejoin="round"/>
<path d="M14.6663 15.272C14.6663 13.622 13.0255 12.2837 10.9997 12.2837C8.97384 12.2837 7.33301 13.622 7.33301 15.272" stroke="#4E878C" stroke-width="1.3" stroke-linecap="round" stroke-linejoin="round"/>
</svg>
