<svg width="22" height="22" viewBox="0 0 22 22" fill="none" xmlns="http://www.w3.org/2000/svg">
<g clip-path="url(#clip0_244_8942)">
<path d="M12.8651 6.75092C11.8369 5.72268 10.1639 5.72268 9.13569 6.75088C8.63755 7.24897 8.36328 7.91121 8.36328 8.6156C8.36328 9.31998 8.63755 9.98222 9.13569 10.4803C9.47733 10.822 9.89035 11.0494 10.3271 11.164V20.4858C10.3271 20.8577 10.6286 21.1592 11.0004 21.1592C11.3723 21.1592 11.6737 20.8577 11.6737 20.4858V11.164C12.1105 11.0494 12.5235 10.822 12.8651 10.4804C13.3633 9.98226 13.6375 9.32003 13.6375 8.61564C13.6375 7.91125 13.3633 7.24902 12.8651 6.75092ZM11.9129 9.52812C11.4098 10.0312 10.5911 10.0313 10.088 9.52812C9.8442 9.28436 9.71001 8.96038 9.71001 8.61564C9.71001 8.27094 9.84424 7.94687 10.088 7.70315C10.3395 7.45161 10.67 7.3258 11.0004 7.3258C11.3309 7.3258 11.6614 7.45157 11.9129 7.70315C12.1567 7.94692 12.2909 8.27094 12.2909 8.61564C12.2909 8.96033 12.1566 9.2844 11.9129 9.52812Z" fill="#222222"/>
<path d="M15.962 3.93795C15.6991 3.67498 15.2727 3.67498 15.0097 3.93795C14.7468 4.20088 14.7468 4.62721 15.0097 4.89018C17.0638 6.94434 17.0638 10.2867 15.0097 12.3407C14.7468 12.6037 14.7468 13.03 15.0097 13.293C15.1412 13.4245 15.3135 13.4902 15.4858 13.4902C15.6581 13.4902 15.8305 13.4245 15.9619 13.293C18.5411 10.7138 18.5412 6.51715 15.962 3.93795Z" fill="#222222"/>
<path d="M18.8614 1.03826C18.5984 0.775333 18.1721 0.775333 17.9091 1.03826C17.6462 1.30118 17.6462 1.72752 17.9091 1.99049C21.5622 5.64356 21.5622 11.5876 17.9091 15.2407C17.6462 15.5036 17.6462 15.9299 17.9091 16.1929C18.0406 16.3244 18.2129 16.3901 18.3852 16.3901C18.5575 16.3901 18.7299 16.3244 18.8613 16.1929C20.8853 14.1689 22 11.4779 22 8.61554C22 5.75318 20.8853 3.06222 18.8614 1.03826Z" fill="#222222"/>
<path d="M6.99009 4.89015C7.25314 4.62722 7.25314 4.20089 6.99013 3.93792C6.7272 3.67499 6.30087 3.67499 6.0379 3.93792C3.4587 6.51712 3.45874 10.7138 6.0379 13.2929C6.16938 13.4244 6.34169 13.4901 6.51399 13.4901C6.6863 13.4901 6.85864 13.4244 6.99009 13.2929C7.25305 13.03 7.25305 12.6036 6.99009 12.3407C4.93596 10.2865 4.93596 6.94427 6.99009 4.89015Z" fill="#222222"/>
<path d="M4.09084 1.99049C4.35381 1.72756 4.35381 1.30123 4.09084 1.03826C3.82791 0.775333 3.40158 0.775333 3.13861 1.03826C1.11465 3.06222 0 5.75322 0 8.6155C0 11.4778 1.11465 14.1688 3.13865 16.1928C3.27014 16.3243 3.44244 16.39 3.61475 16.39C3.78701 16.39 3.9594 16.3243 4.09084 16.1928C4.35381 15.9299 4.35381 15.5035 4.09084 15.2405C0.437809 11.5875 0.437809 5.64352 4.09084 1.99049Z" fill="#222222"/>
</g>
<defs>
<clipPath id="clip0_244_8942">
<rect width="22" height="22" fill="white"/>
</clipPath>
</defs>
</svg>
