<svg fill="none" height="24" viewBox="0 0 24 24" width="24" xmlns="http://www.w3.org/2000/svg"><path d="m10 8v-1m0 5.5v-1m0 5.5v-1m-4.8-12h13.6c1.1201 0 1.6802 0 2.108.21799.3763.19174.6823.4977.874.87403.218.42782.218.98788.218 2.10798v1.3c-1.933 0-3.5 1.567-3.5 3.5s1.567 3.5 3.5 3.5v1.3c0 1.1201 0 1.6802-.218 2.108-.1917.3763-.4977.6823-.874.874-.4278.218-.9879.218-2.108.218h-13.6c-1.1201 0-1.68016 0-2.10798-.218-.37633-.1917-.68229-.4977-.87403-.874-.21799-.4278-.21799-.9879-.21799-2.108v-1.3c1.933 0 3.5-1.567 3.5-3.5s-1.567-3.5-3.5-3.5v-1.3c0-1.1201 0-1.68016.21799-2.10798.19174-.37633.4977-.68229.87403-.87403.42782-.21799.98788-.21799 2.10798-.21799z" stroke="#000" stroke-linecap="round" stroke-linejoin="round" stroke-width="2"/></svg>