<svg width="22" height="22" viewBox="0 0 22 22" fill="none" xmlns="http://www.w3.org/2000/svg">
<path d="M11.0004 4.25428C12.5765 4.23003 14.1008 4.81723 15.2533 5.89265L18.3577 2.85707C16.366 0.990816 13.7296 -0.0325348 11.0004 0.00130138C8.96119 0.000830194 6.96209 0.567628 5.22662 1.63831C3.49116 2.70899 2.08775 4.24134 1.17334 6.06399L4.73036 8.82563C5.16529 7.50315 6.00439 6.35056 7.12931 5.5304C8.25423 4.71024 9.60823 4.26388 11.0004 4.25428Z" fill="#E43E2B"/>
<path d="M21.56 11.246C21.573 10.4898 21.4948 9.73481 21.3273 8.99731H11V13.08H17.0627C16.9477 13.7958 16.6891 14.4809 16.3025 15.0942C15.9159 15.7075 15.4092 16.2362 14.813 16.6487L18.2843 19.3373C19.3662 18.2928 20.217 17.033 20.7817 15.6393C21.3465 14.2456 21.6127 12.7489 21.5632 11.246H21.56Z" fill="#3B7DED"/>
<path d="M4.74306 13.1765C4.50255 12.4762 4.37856 11.7412 4.37604 11.0008C4.38042 10.2616 4.49996 9.52753 4.73036 8.82511L1.17334 6.06348C0.401856 7.59516 0 9.28631 0 11.0013C0 12.7163 0.401856 14.4075 1.17334 15.9392L4.74306 13.1765Z" fill="#F0B501"/>
<path d="M11.0004 22.0011C13.6798 22.0769 16.2865 21.1234 18.2847 19.3368L14.8133 16.6481C13.6878 17.4027 12.3549 17.7872 11.0004 17.7481C9.60942 17.7398 8.2564 17.2938 7.13324 16.4733C6.01008 15.6527 5.1738 14.4993 4.74305 13.1768L1.18604 15.9395C2.09798 17.7613 3.49909 19.2933 5.23246 20.3639C6.96584 21.4345 8.96303 22.0014 11.0004 22.0011Z" fill="#2BA24C"/>
</svg>
