<svg fill="none" height="24" viewBox="0 0 24 24" width="24" xmlns="http://www.w3.org/2000/svg"><path d="m6 20.0872h2.61029c.34034 0 .67859.0405 1.00852.1215l2.75809.6702c.5984.1458 1.2219.16 1.8266.0425l3.0495-.5933c.8055-.1569 1.5466-.5426 2.1273-1.1076l2.1576-2.0988c.6161-.5983.6161-1.5693 0-2.1686-.5547-.5396-1.4332-.6004-2.0608-.1428l-2.5145 1.8346c-.3601.2632-.7983.4049-1.2489.4049h-2.4282 1.5456c.8711 0 1.5768-.6865 1.5768-1.5339v-.3067c0-.7037-.4923-1.3172-1.1938-1.4873l-2.3855-.5801c-.3882-.0942-.7858-.1418-1.1855-.1418-.9648 0-2.71121.7988-2.71121.7988l-2.93189 1.2261m-4-.4249v5.8c0 .5601 0 .8401.10899 1.054.09588.1882.24886.3411.43702.437.21391.109.49394.109 1.05399.109h.8c.56005 0 .84008 0 1.05399-.109.18816-.0958.34114-.2488.43702-.437.10899-.2139.10899-.4939.10899-1.054v-5.8c0-.56 0-.8401-.10899-1.054-.09588-.1881-.24886-.3411-.43702-.437-.21391-.109-.49394-.109-1.05399-.109h-.8c-.56005 0-.84008 0-1.05399.109-.18816.0959-.34114.2489-.43702.437-.10899.2139-.10899.494-.10899 1.054zm15.1914-11.00773c-.5968-1.24886-1.9728-1.91047-3.311-1.27188-1.3381.63859-1.9082 2.15301-1.3479 3.48245.3462.82164 1.3382 2.41718 2.0456 3.51621.2613.40608.392.60912.5829.72785.1637.1019.3687.1568.5614.1505.2247-.0075.4394-.118.8687-.33895 1.1621-.59812 2.819-1.48388 3.5297-2.02231 1.1499-.8712 1.4348-2.47255.5739-3.68988-.861-1.21734-2.362-1.33712-3.5033-.55399z" stroke="#000" stroke-linecap="round" stroke-linejoin="round" stroke-width="2"/></svg>