<svg fill="none" height="24" viewBox="0 0 24 24" width="24" xmlns="http://www.w3.org/2000/svg"><path d="m15 9h.01m-6.01 0h.01m12.99 3c0 5.5228-4.4772 10-10 10-5.52285 0-10-4.4772-10-10 0-5.52285 4.47715-10 10-10 5.5228 0 10 4.47715 10 10zm-6.5-3c0 .27614-.2239.5-.5.5s-.5-.22386-.5-.5.2239-.5.5-.5.5.22386.5.5zm-6 0c0 .27614-.22386.5-.5.5s-.5-.22386-.5-.5.22386-.5.5-.5.5.22386.5.5zm2.5 8.5c2.5005 0 4.5-1.833 4.5-3.5h-9c0 1.667 1.9995 3.5 4.5 3.5z" stroke="#000" stroke-linecap="round" stroke-linejoin="round" stroke-width="2"/></svg>