<svg fill="none" height="24" viewBox="0 0 24 24" width="24" xmlns="http://www.w3.org/2000/svg"><path d="m9.35442 21c.70518.6224 1.63138 1 2.64578 1 1.0145 0 1.9407-.3776 2.6459-1m-12.35196-15.18011c-.01435-1.45135.76813-2.80664 2.03221-3.51989m17.37605 3.5199c.0143-1.45135-.7682-2.80665-2.0322-3.5199m-1.67 5.7c0-1.5913-.6321-3.11742-1.7573-4.24264s-2.6514-1.75736-4.2427-1.75736-3.11737.63214-4.24259 1.75736-1.75736 2.65134-1.75736 4.24264c0 3.0902-.77953 5.206-1.65034 6.6054-.73453 1.1805-1.1018 1.7707-1.08834 1.9354.01492.1823.05354.2518.20046.3608.13268.0984.73081.0984 1.92707.0984h13.2223c1.1963 0 1.7944 0 1.9271-.0984.1469-.109.1855-.1785.2004-.3608.0135-.1647-.3538-.7549-1.0883-1.9354-.8708-1.3994-1.6504-3.5152-1.6504-6.6054z" stroke="#000" stroke-linecap="round" stroke-linejoin="round" stroke-width="2"/></svg>