<svg fill="none" height="24" viewBox="0 0 24 24" width="24" xmlns="http://www.w3.org/2000/svg"><path d="m5.03685 21.3253c-.58469.2573-.87703.3859-1.05643.3294-.15552-.049-.27739-.1707-.32655-.3262-.0567-.1793.07158-.4718.32816-1.0568l7.28137-16.6015c.2316-.52808.3474-.79212.5093-.87293.1406-.07019.306-.07019.4466 0 .1619.08081.2777.34485.5094.87293l7.2813 16.6015c.2566.585.3849.8775.3282 1.0568-.0492.1555-.1711.2772-.3266.3262-.1794.0565-.4717-.0721-1.0564-.3294l-6.637-2.9203c-.1187-.0522-.178-.0783-.2397-.0886-.0546-.0092-.1104-.0092-.165 0-.0616.0103-.121.0364-.2397.0886z" stroke="#000" stroke-linecap="round" stroke-linejoin="round" stroke-width="2"/></svg>