<svg fill="none" height="24" viewBox="0 0 24 24" width="24" xmlns="http://www.w3.org/2000/svg"><path clip-rule="evenodd" d="m9.276 4.38207-1.919 4.865-4.863 1.91703c-.14523.0576-.26981.1575-.35759.2868-.08777.1293-.1347.2819-.1347.4382 0 .1562.04693.3089.1347.4381.08778.1293.21236.2292.35759.2869l4.863 1.918 1.919 4.863c.05764.1452.15756.2698.28683.3576.12927.0877.28192.1347.43817.1347.1563 0 .3089-.047.4382-.1347.1292-.0878.2292-.2124.2868-.3576h-.001l1.918-4.863 4.864-1.919c.1448-.058.269-.1581.3564-.2873.0875-.1293.1342-.2817.1342-.4377 0-.1561-.0467-.3085-.1342-.4377-.0874-.1292-.2116-.2293-.3564-.2873l-4.864-1.91603-1.918-4.865c-.0392-.09936-.0986-.18955-.1743-.26492-.0757-.07536-.1662-.13429-.2657-.17308-.0951-.03761-.1966-.05612-.29885-.05447-.10223.00166-.20313.02345-.29693.06413s-.17867.09945-.24974.17294c-.07108.0735-.12697.16029-.16448.2554zm8.297-2.03-.743 1.886-1.884.743c-.1033.04188-.1918.11364-.2541.2061s-.0956.20142-.0956.3129c0 .11149.0333.22044.0956.31291.0623.09246.1508.16422.2541.20609l1.884.743.743 1.886c.0411.10412.1126.19347.2052.25643.0925.06296.2019.09663.3138.09663s.2213-.03367.3139-.09663c.0925-.06296.164-.15231.2051-.25643l.745-1.886 1.883-.743c.1045-.04072.1943-.11205.2576-.20466.0633-.0926.0972-.20216.0972-.31434 0-.11217-.0339-.22173-.0972-.31434-.0633-.0926-.1531-.16393-.2576-.20466l-1.883-.743-.745-1.885c-.0277-.07122-.07-.13591-.124-.18996-.0541-.05405-.1188-.09629-.19-.12404-.1377-.05328-.2909-.05021-.4264.00855s-.2424.16849-.2976.30545zm-.704 13.00303-.744 1.883-1.883.744c-.0716.0275-.1366.0697-.191.1237-.0544.0541-.097.1189-.125.1903-.0537.1379-.0506.2915.0086.4272s.1697.2424.3074.2968l1.883.743.744 1.884c.057.144.17.258.314.315.1378.0537.2913.0508.427-.0082.1356-.059.2424-.1693.297-.3068l.744-1.884 1.883-.743c.1045-.0407.1943-.1121.2576-.2047s.0972-.2022.0972-.3143c0-.1122-.0339-.2218-.0972-.3144s-.1531-.1639-.2576-.2046l-1.883-.744-.744-1.883c-.0276-.0718-.0698-.1369-.1241-.1913-.0542-.0545-.1193-.0969-.1909-.1247-.1378-.0534-.2912-.0502-.4266.009s-.242.1695-.2964.307z" fill="#000" fill-rule="evenodd"/></svg>