<svg width="21" height="20" viewBox="0 0 21 20" fill="none" xmlns="http://www.w3.org/2000/svg">
<path d="M10.9661 9.05841C10.8828 9.05008 10.7828 9.05008 10.6911 9.05841C8.70781 8.99175 7.13281 7.36675 7.13281 5.36675C7.13281 3.32508 8.78281 1.66675 10.8328 1.66675C12.8745 1.66675 14.5328 3.32508 14.5328 5.36675C14.5245 7.36675 12.9495 8.99175 10.9661 9.05841Z" stroke="#4E878C" stroke-width="1.5" stroke-linecap="round" stroke-linejoin="round"/>
<path d="M6.79961 12.1333C4.78294 13.4833 4.78294 15.6833 6.79961 17.0249C9.09128 18.5583 12.8496 18.5583 15.1413 17.0249C17.1579 15.6749 17.1579 13.4749 15.1413 12.1333C12.8579 10.6083 9.09961 10.6083 6.79961 12.1333Z" stroke="#4E878C" stroke-width="1.5" stroke-linecap="round" stroke-linejoin="round"/>
</svg>
