<svg fill="none" height="24" viewBox="0 0 24 24" width="24" xmlns="http://www.w3.org/2000/svg"><path d="m5.99989 11h4m-2-2v4m7.00001-1h.01m2.99-2h.01m-7.5611-5h3.1021c2.6249 0 3.9374 0 4.9675.49743.907.43797 1.6606 1.13966 2.1621 2.01316.5696.99211.6631 2.30122.8501 4.91941l.246 3.4445c.1207 1.6889-1.2169 3.1255-2.9102 3.1255-.8659 0-1.687-.3846-2.2413-1.0498l-.3752-.4502c-.3431-.4118-.5148-.6177-.7101-.7841-.4096-.3487-.9054-.581-1.4355-.6723-.2529-.0436-.5209-.0436-1.057-.0436h-2.0948c-.5361 0-.8041 0-1.05697.0436-.53014.0913-1.02596.3236-1.43553.6723-.19537.1664-.36695.3723-.71011.7841l-.37516.4502c-.55433.6652-1.37549 1.0498-2.24138 1.0498-1.69322 0-3.03085-1.4366-2.91021-3.1255l.24604-3.4445c.18701-2.61819.28052-3.9273.85008-4.91941.50148-.8735 1.25507-1.57519 2.16209-2.01316 1.03016-.49743 2.34261-.49743 4.96745-.49743z" stroke="#000" stroke-linecap="round" stroke-linejoin="round" stroke-width="2"/></svg>