<svg fill="none" height="24" viewBox="0 0 24 24" width="24" xmlns="http://www.w3.org/2000/svg"><path d="m12 14.9998-3-3m3 3c1.3968-.5313 2.7369-1.2013 4-2m-4 2v5s3.03-.55 4-2c1.08-1.62 0-5 0-5m-7-1c.53214-1.3806 1.2022-2.70398 2-3.95004 1.1652-1.86301 2.7876-3.39695 4.713-4.45591s4.0897-1.60772 6.287-1.59409c0 2.72-.78 7.5-6 11.00004m-7-1h-5s.55-3.03004 2-4.00004c1.62-1.08 5 0 5 0m-6.5 8.50004c-1.5 1.26-2 5-2 5s3.74-.5 5-2c.71-.84.7-2.13-.09-2.91-.38869-.371-.90071-.5854-1.43777-.602-.53707-.0166-1.06135.1657-1.47223.512z" stroke="#000" stroke-linecap="round" stroke-linejoin="round" stroke-width="2"/></svg>