<svg fill="none" height="24" viewBox="0 0 24 24" width="24" xmlns="http://www.w3.org/2000/svg"><path d="m7.86866 15.4599-.86866 6.5401 4.5884-2.753c.1497-.0898.2245-.1347.3044-.1523.0706-.0155.1438-.0155.2144 0 .0799.0176.1547.0625.3044.1523l4.5884 2.753-.8681-6.5429m.294-11.20822c.1544.37352.4509.67042.8241.82542l1.3089.54218c.3736.15473.6703.45151.8251.82506.1547.37355.1547.79327 0 1.16682l-.5418 1.30799c-.1548.37372-.155.79386.0005 1.16735l.5408 1.3076c.0767.1851.1162.3834.1162.5837.0001.2002-.0394.3986-.116.5836s-.189.3532-.3306.4948c-.1417.1416-.3098.2539-.4949.3305l-1.3079.5417c-.3735.1545-.6704.4509-.8254.8242l-.5422 1.309c-.1547.3735-.4515.6703-.825.825-.3736.1548-.7933.1548-1.1668 0l-1.3079-.5418c-.3736-.1543-.7931-.154-1.1664.0009l-1.3089.5414c-.37336.1544-.79269.1543-1.16592-.0003-.37324-.1547-.66984-.4511-.82467-.8242l-.54232-1.3094c-.15444-.3735-.45088-.6704-.82415-.8254l-1.30889-.5422c-.37337-.1546-.67006-.4512-.82484-.8246-.15478-.3733-.15499-.7928-.00058-1.1663l.54177-1.308c.15434-.37355.15403-.79311-.00088-1.16644l-.54099-1.30987c-.0767-.18502-.1162-.38333-.11623-.58362-.00003-.20028.0394-.39861.11604-.58365.07664-.18503.189-.35316.33064-.49476s.30979-.2539.49484-.33048l1.30795-.54179c.37318-.15431.66989-.45039.82501-.82325l.54216-1.30893c.15472-.37355.45149-.67033.82503-.82506.37353-.15473.79323-.15473 1.16673 0l1.308.54179c.3735.15434.7931.15403 1.1664-.00088l1.3094-.54007c.3735-.15465.7931-.15461 1.1666.00008.3734.1547.6702.4514.8249.82485l.5423 1.30933z" stroke="#000" stroke-linecap="round" stroke-linejoin="round" stroke-width="2"/></svg>