<svg fill="none" height="24" viewBox="0 0 24 24" width="24" xmlns="http://www.w3.org/2000/svg"><path d="m9 11.4999 2 2 4.5-4.50003m4.5 3.00003c0 4.9084-5.354 8.4784-7.302 9.6148-.2214.1292-.3321.1938-.4883.2273-.1213.026-.2981.026-.4194 0-.1562-.0335-.2669-.0981-.4883-.2273-1.94804-1.1364-7.302-4.7064-7.302-9.6148v-4.78243c0-.79951 0-1.19927.13076-1.5429.11551-.30356.30322-.57442.5469-.78917.27584-.24309.65014-.38345 1.39874-.66418l5.3618-2.01068c.2079-.07796.3118-.11694.4188-.13239.0948-.01371.1912-.01371.286 0 .107.01545.2109.05443.4188.13239l5.3618 2.01068c.7486.28073 1.1229.42109 1.3987.66418.2437.21475.4314.48561.5469.78917.1308.34363.1308.74339.1308 1.5429z" stroke="#000" stroke-linecap="round" stroke-linejoin="round" stroke-width="2"/></svg>