<svg width="25" height="21" viewBox="0 0 25 21" fill="none" xmlns="http://www.w3.org/2000/svg">
<rect x="2.65" y="0.65" width="14.7" height="17.7" rx="1.35" fill="#FBFFFE" stroke="#4E878C" stroke-width="1.3"/>
<path d="M1 3C1 3 3 3.5 4 3" stroke="#4E878C" stroke-width="1.2" stroke-linecap="round"/>
<path d="M1 9C1 9 3 9.5 4 9" stroke="#4E878C" stroke-width="1.2" stroke-linecap="round"/>
<path d="M1 15C1 15 3 15.5 4 15" stroke="#4E878C" stroke-width="1.2" stroke-linecap="round"/>
<path d="M15 20.5L13 19V14.5H22V19L20.5 20.5H15Z" fill="#FBFFFE"/>
<path d="M22.8262 14.1732V14.1732H22.8249H12.1751V14.1732L12.1738 14.1732C11.8755 14.1759 11.5865 14.2771 11.3529 14.4611C11.1194 14.6451 10.9548 14.9013 10.8859 15.1891C10.817 15.4768 10.8479 15.779 10.9736 16.0473C11.0994 16.3154 11.3124 16.5338 11.5783 16.668L11.5783 16.668L11.5795 16.6686L12.5776 17.1608V18.0317C12.5776 18.7531 12.8681 19.4445 13.3847 19.9539C13.9012 20.4633 14.6012 20.7491 15.3307 20.7491H19.6693C20.3988 20.7491 21.0988 20.4633 21.6153 19.9539C22.1319 19.4445 22.4224 18.7531 22.4224 18.0317V17.1608L23.4205 16.6686L23.4217 16.668C23.6876 16.5338 23.9006 16.3154 24.0264 16.0473C24.1521 15.779 24.183 15.4768 24.1141 15.1891C24.0452 14.9013 23.8806 14.6451 23.6471 14.4611C23.4135 14.2771 23.1245 14.1759 22.8262 14.1732ZM11.971 15.8996L11.971 15.8995L11.9661 15.8973C11.869 15.855 11.7904 15.7809 11.7434 15.6881C11.6965 15.5954 11.6839 15.4896 11.7076 15.3889C11.7314 15.2881 11.7901 15.1983 11.8743 15.1351C11.9585 15.0718 12.0628 15.0394 12.1691 15.0437L12.1691 15.0438H12.1751H12.5776V16.1903L11.971 15.8996ZM23.0339 15.8973L23.0339 15.8972L23.029 15.8996L22.4224 16.1903V15.0438H22.8249V15.0439L22.8309 15.0437C22.9372 15.0394 23.0415 15.0718 23.1257 15.1351C23.2099 15.1983 23.2686 15.2881 23.2924 15.3889C23.3161 15.4896 23.3035 15.5954 23.2566 15.6881C23.2096 15.7809 23.131 15.855 23.0339 15.8973ZM21.544 18.0317C21.544 18.5209 21.347 18.9904 20.9956 19.3369C20.6442 19.6835 20.1671 19.8786 19.6693 19.8786H15.3307C14.8329 19.8786 14.3558 19.6835 14.0044 19.3369C13.653 18.9904 13.456 18.5209 13.456 18.0317V15.0438H21.544V18.0317Z" fill="#4E878C" stroke="#4E878C" stroke-width="0.3"/>
<path d="M14.4677 11.4378L14.4676 11.4379C14.105 11.708 13.9368 12.0068 13.9482 12.2703C13.9601 12.5461 14.1699 12.7362 14.4368 12.7362C14.5602 12.7362 14.6815 12.6926 14.7733 12.6105C14.8657 12.528 14.9214 12.4122 14.9214 12.2874V12.2873C14.9214 12.2851 14.9214 12.2661 14.9765 12.2163C15.0025 12.1928 15.0343 12.168 15.0736 12.1384C15.0801 12.1334 15.0869 12.1283 15.0938 12.1231C15.1268 12.0983 15.1637 12.0705 15.2003 12.0409C15.3821 11.8939 15.5906 11.6755 15.5906 11.2922C15.5906 10.8413 15.2837 10.6067 15.0919 10.4602C15.0778 10.4494 15.0644 10.4391 15.0517 10.4293C15.0021 10.3906 14.9672 10.3614 14.9435 10.3354C14.9261 10.3162 14.9215 10.3059 14.9204 10.3028C14.9212 10.2993 14.9242 10.2909 14.9343 10.2764C14.9548 10.2469 14.9964 10.2039 15.075 10.1455C15.4331 9.87943 15.6012 9.58182 15.5921 9.31907C15.5876 9.18662 15.5369 9.06741 15.4469 8.98123C15.357 8.89521 15.2364 8.85 15.106 8.85C14.9826 8.85 14.8613 8.89363 14.7695 8.97566C14.6771 9.05819 14.6214 9.17399 14.6214 9.29885V9.2989C14.6214 9.30111 14.6214 9.32011 14.5663 9.36995C14.5403 9.39341 14.5085 9.41816 14.4692 9.44784C14.4627 9.45279 14.4559 9.45787 14.449 9.46307C14.416 9.48793 14.3791 9.5157 14.3425 9.5453C14.1607 9.69228 13.9522 9.91075 13.9522 10.294C13.9522 10.6772 14.1605 10.8963 14.3422 11.044C14.3788 11.0737 14.4157 11.1017 14.4487 11.1267C14.4556 11.1319 14.4623 11.137 14.4689 11.142C14.5081 11.1718 14.54 11.1968 14.566 11.2204C14.6214 11.2707 14.6214 11.2899 14.6214 11.2922V11.2922C14.6214 11.3024 14.6201 11.3057 14.62 11.3062L14.6199 11.3062L14.6199 11.3062C14.6197 11.3068 14.6182 11.3108 14.6104 11.32C14.5901 11.3438 14.5515 11.3755 14.4677 11.4378ZM14.9201 10.3049C14.9201 10.3049 14.92 10.3044 14.9202 10.3034C14.9203 10.3044 14.9202 10.3048 14.9201 10.3049Z" fill="#4E878C" stroke="#4E878C" stroke-width="0.3"/>
<path d="M19.6396 11.4378L19.6395 11.4379C19.2769 11.708 19.1087 12.0068 19.1201 12.2703C19.132 12.5461 19.3418 12.7362 19.6087 12.7362C19.7321 12.7362 19.8534 12.6926 19.9452 12.6105C20.0376 12.528 20.0933 12.4122 20.0933 12.2874V12.2873C20.0933 12.2851 20.0932 12.2661 20.1484 12.2163C20.1744 12.1928 20.2062 12.168 20.2455 12.1384C20.252 12.1334 20.2587 12.1283 20.2657 12.1231C20.2987 12.0983 20.3355 12.0705 20.3721 12.0409C20.554 11.8939 20.7624 11.6755 20.7624 11.2922C20.7624 10.8413 20.4555 10.6067 20.2638 10.4602C20.2497 10.4494 20.2363 10.4391 20.2236 10.4293C20.1739 10.3906 20.139 10.3614 20.1154 10.3354C20.098 10.3162 20.0933 10.3059 20.0922 10.3028C20.0931 10.2993 20.0961 10.2909 20.1062 10.2764C20.1266 10.2469 20.1682 10.2039 20.2469 10.1455C20.605 9.87943 20.7731 9.58182 20.764 9.31907C20.7594 9.18662 20.7087 9.06741 20.6187 8.98123C20.5289 8.89521 20.4082 8.85 20.2779 8.85C20.1545 8.85 20.0332 8.89363 19.9413 8.97566C19.8489 9.05819 19.7933 9.17399 19.7933 9.29885V9.2989C19.7933 9.30111 19.7933 9.32011 19.7381 9.36995C19.7122 9.39341 19.6804 9.41816 19.6411 9.44784C19.6345 9.45279 19.6278 9.45787 19.6209 9.46307C19.5879 9.48793 19.551 9.5157 19.5144 9.5453C19.3326 9.69228 19.1241 9.91075 19.1241 10.294C19.1241 10.6772 19.3324 10.8963 19.5141 11.044C19.5507 11.0737 19.5875 11.1017 19.6205 11.1267C19.6275 11.1319 19.6342 11.137 19.6407 11.142C19.68 11.1718 19.7119 11.1968 19.7379 11.2204C19.7933 11.2707 19.7933 11.2899 19.7933 11.2922V11.2922C19.7933 11.3024 19.792 11.3057 19.7918 11.3062L19.7918 11.3062L19.7918 11.3062C19.7916 11.3068 19.7901 11.3108 19.7823 11.32C19.762 11.3438 19.7234 11.3755 19.6396 11.4378ZM20.092 10.3049C20.0919 10.3049 20.0919 10.3044 20.0921 10.3034C20.0921 10.3044 20.092 10.3048 20.092 10.3049Z" fill="#4E878C" stroke="#4E878C" stroke-width="0.3"/>
<line x1="6.6" y1="5.4" x2="12.4" y2="5.4" stroke="#4E878C" stroke-width="1.2" stroke-linecap="round"/>
<line x1="6.6" y1="9.4" x2="9.4" y2="9.4" stroke="#4E878C" stroke-width="1.2" stroke-linecap="round"/>
</svg>
