<svg fill="none" height="24" viewBox="0 0 24 24" width="24" xmlns="http://www.w3.org/2000/svg"><path d="m7 22v-11m-5 2v7c0 1.1046.89543 2 2 2h13.4262c1.4808 0 2.74-1.0803 2.9652-2.5438l1.0769-7c.2796-1.8173-1.1265-3.4562-2.9651-3.4562h-3.5032c-.5523 0-1-.44772-1-1v-3.53416c0-1.36185-1.104-2.46584-2.4658-2.46584-.3249 0-.6192.1913-.7511.48812l-3.51916 7.91798c-.1605.3612-.51862.5939-.91381.5939h-2.35013c-1.10457 0-2 .8954-2 2z" stroke="#000" stroke-linecap="round" stroke-linejoin="round" stroke-width="2"/></svg>